<svg width="72" height="72" fill="none" xmlns="http://www.w3.org/2000/svg"><g clip-path="url(#a)"><path d="M36 72c19.8823 0 36-16.1177 36-36S55.8823 0 36 0 0 16.1177 0 36s16.1177 36 36 36Z" fill="url(#b)"/><path d="M44.1965 39.9272c-.7391 0-1.3383.5992-1.3383 1.3384v10.0769c0 .7392.5992 1.3383 1.3383 1.3383.7391 0 1.3383-.5991 1.3383-1.3383V41.2656c0-.7392-.5992-1.3384-1.3383-1.3384Z" fill="#FF8A3D"/><path d="M50.4419 46.3066c0-.7391-.5992-1.3383-1.3383-1.3383h-10.077c-.7391 0-1.3383.5992-1.3383 1.3383 0 .7392.5992 1.3384 1.3383 1.3384h10.077c.7391 0 1.3383-.5992 1.3383-1.3384Z" fill="#FF8A3D"/><path d="M20.0243 46.3963c3.051 0 5.5243-2.4734 5.5243-5.5243 0-3.051-2.4733-5.5243-5.5243-5.5243S14.5 37.821 14.5 40.872c0 3.0509 2.4733 5.5243 5.5243 5.5243ZM44.0652 56.7392c5.763 0 10.4348-4.6718 10.4348-10.4348 0-5.7629-4.6718-10.4348-10.4348-10.4348-5.763 0-10.4348 4.6719-10.4348 10.4348 0 5.763 4.6718 10.4348 10.4348 10.4348Z" stroke="#FF8A3D" stroke-width="3.47826" stroke-linecap="round" stroke-linejoin="round"/><path d="M25.5144 41.1449V15l28.9855 6.9565v23.1884" stroke="#FF8A3D" stroke-width="3.47826" stroke-linecap="round" stroke-linejoin="round"/><g filter="url(#c)"><path fill-rule="evenodd" clip-rule="evenodd" d="m51.8818 49.3974 2.9365 5.0862 6.0953-2.3916c2.525-.9909 5.2761-.1556 6.5068 1.9761l2.9019 5.0261c.927 1.6057.2411 3.7357-1.5327 4.7598l-8.0265 4.6341c-1.2799.7389-2.7753.6995-3.857.017l-8.2541-3.0105c-.6307-.2249-.9034-.9122-.6108-1.5325.8018-1.701 2.7398-2.6484 4.5083-2.2859l-.0305-.0529-.0232-.0407-5.4299-9.4047c-.6946-1.2032-.1796-2.8024 1.1496-3.5698 1.3292-.7674 2.9717-.4138 3.6663.7893Z" fill="#fff"/></g></g><defs><linearGradient id="b" x1="6.5" y1="-.000002" x2="61" y2="62" gradientUnits="userSpaceOnUse"><stop stop-color="#414242"/><stop offset=".734375" stop-color="#0C0C0C"/></linearGradient><clipPath id="a"><path fill="#fff" d="M0 0h72v72H0z"/></clipPath><filter id="c" x="38.7566" y="48.2026" width="39.9788" height="44.8271" filterUnits="userSpaceOnUse" color-interpolation-filters="sRGB"><feFlood flood-opacity="0" result="BackgroundImageFix"/><feColorMatrix in="SourceAlpha" values="0 0 0 0 0 0 0 0 0 0 0 0 0 0 0 0 0 0 127 0" result="hardAlpha"/><feOffset dy="16"/><feGaussianBlur stdDeviation="4"/><feComposite in2="hardAlpha" operator="out"/><feColorMatrix values="0 0 0 0 0 0 0 0 0 0 0 0 0 0 0 0 0 0 0.16 0"/><feBlend in2="BackgroundImageFix" result="effect1_dropShadow_1244_9669"/><feBlend in="SourceGraphic" in2="effect1_dropShadow_1244_9669" result="shape"/></filter></defs></svg>