<svg width="52" height="52" viewBox="0 0 52 52" fill="none" xmlns="http://www.w3.org/2000/svg">
<path d="M26 51C39.8071 51 51 39.8071 51 26C51 12.1929 39.8071 1 26 1C12.1929 1 1 12.1929 1 26C1 39.8071 12.1929 51 26 51Z" stroke="#F60A20" stroke-width="2"/>
<path d="M38.5 17.0714H34.9286V13.5H33.1429V17.0714H29.5714V18.8571H33.1429V22.4286H34.9286V18.8571H38.5V17.0714ZM33.1429 25.1071V31.8536C32.6024 31.532 31.986 31.3607 31.3571 31.3571C30.6508 31.3571 29.9603 31.5666 29.373 31.959C28.7856 32.3515 28.3279 32.9093 28.0576 33.5618C27.7873 34.2144 27.7165 34.9325 27.8543 35.6253C27.9921 36.3181 28.3323 36.9545 28.8318 37.4539C29.3312 37.9534 29.9676 38.2936 30.6604 38.4314C31.3532 38.5692 32.0713 38.4985 32.7239 38.2281C33.3765 37.9578 33.9342 37.5001 34.3267 36.9127C34.7191 36.3254 34.9286 35.6349 34.9286 34.9286V25.1071H33.1429ZM31.3571 36.7143C31.004 36.7143 30.6587 36.6096 30.3651 36.4133C30.0714 36.2171 29.8425 35.9382 29.7074 35.6119C29.5722 35.2856 29.5368 34.9266 29.6057 34.5802C29.6746 34.2338 29.8447 33.9156 30.0945 33.6659C30.3442 33.4161 30.6624 33.2461 31.0088 33.1772C31.3552 33.1083 31.7142 33.1436 32.0405 33.2788C32.3668 33.4139 32.6457 33.6428 32.8419 33.9365C33.0381 34.2301 33.1429 34.5754 33.1429 34.9286C33.1422 35.402 32.9538 35.8557 32.6191 36.1905C32.2843 36.5252 31.8305 36.7136 31.3571 36.7143ZM26.8929 17.0714H20.6429C20.1694 17.0719 19.7155 17.2602 19.3807 17.595C19.0459 17.9298 18.8576 18.3837 18.8571 18.8571V31.8536C18.3167 31.5321 17.7002 31.3607 17.0714 31.3571C16.3651 31.3571 15.6746 31.5666 15.0873 31.959C14.4999 32.3515 14.0422 32.9093 13.7719 33.5618C13.5015 34.2144 13.4308 34.9325 13.5686 35.6253C13.7064 36.3181 14.0466 36.9545 14.546 37.4539C15.0455 37.9534 15.6819 38.2936 16.3747 38.4314C17.0675 38.5692 17.7856 38.4985 18.4382 38.2281C19.0907 37.9578 19.6485 37.5001 20.041 36.9127C20.4334 36.3254 20.6429 35.6349 20.6429 34.9286V18.8571H26.8929V17.0714ZM17.0714 36.7143C16.7182 36.7143 16.373 36.6096 16.0793 36.4133C15.7857 36.2171 15.5568 35.9382 15.4216 35.6119C15.2865 35.2856 15.2511 34.9266 15.32 34.5802C15.3889 34.2338 15.559 33.9156 15.8087 33.6659C16.0585 33.4161 16.3767 33.2461 16.7231 33.1772C17.0694 33.1083 17.4285 33.1436 17.7548 33.2788C18.0811 33.4139 18.36 33.6428 18.5562 33.9365C18.7524 34.2301 18.8571 34.5754 18.8571 34.9286C18.8567 35.402 18.6684 35.856 18.3336 36.1907C17.9988 36.5255 17.5449 36.7138 17.0714 36.7143Z" fill="#F60A20"/>
</svg>
