<svg viewBox="0 0 64 64" xml:space="preserve" xmlns="http://www.w3.org/2000/svg" enable-background="new 0 0 64 64"><path d="m51.314 14.929-4.243-4.243-2.331 1.399a10.778 10.778 0 0 0-1.081-.448L43 9h-6l-.659 2.637c-.37.131-.73.281-1.081.448l-2.331-1.399-4.243 4.243 1.399 2.331c-.168.351-.318.711-.448 1.081L27 19v6l2.637.659c.131.37.281.73.448 1.081l-1.399 2.331 4.243 4.243 2.331-1.399c.351.168.711.318 1.081.448L37 35h6l.659-2.637c.37-.131.73-.281 1.081-.448l2.331 1.399 4.243-4.243-1.399-2.331c.168-.351.318-.711.448-1.081L53 25v-6l-2.637-.659c-.131-.37-.281-.73-.448-1.081l1.399-2.331z" fill="#ff8a3d" class="fill-ffcb57"></path><path d="M39 2h2v4h-2zM39 42h2v20h-2zM39 38h2v2h-2z" fill="#ffffff" class="fill-e56565"></path><path d="M55.122 8.512C51.05 3.738 44.899 1 38.249 1h-6.468c-3.475 0-6.685.699-9.542 2.079C14.689 6.723 10 14.16 10 22.485a8.35 8.35 0 0 1-3.15 6.554l-2.178 1.742.486.758a58.253 58.253 0 0 1 7.38 16.921l.312 1.209c.537 2.084 1.875 3.775 3.67 4.64a6.894 6.894 0 0 0 6.271-.143L37.49 45.87l-.982-1.742-14.684 8.287a4.882 4.882 0 0 1-4.436.093c-1.264-.609-2.213-1.826-2.603-3.339l-.312-1.209c-.083-.322-.179-.64-.267-.961H17v-2h-3.379a60.185 60.185 0 0 0-6.299-13.777l.778-.621a10.341 10.341 0 0 0 3.9-8.116c0-7.552 4.257-14.297 11.108-17.605C25.692 3.632 28.61 3 31.781 3h6.468c6.063 0 11.659 2.482 15.352 6.81 3.589 4.206 5.062 9.668 4.152 15.38a19.02 19.02 0 0 1-2.564 6.973C49.831 40.906 47 50.443 47 59.743V61H29v-8h-2v10h22v-3.257c0-8.931 2.729-18.106 7.894-26.535a20.998 20.998 0 0 0 2.834-7.703c1.004-6.3-.631-12.335-4.606-16.993z" fill="#ffffff" class="fill-3f3a34"></path><path d="M15 26h6v2h-6zM46 22c0-3.309-2.691-6-6-6s-6 2.691-6 6 2.691 6 6 6 6-2.691 6-6zm-6 4c-2.206 0-4-1.794-4-4s1.794-4 4-4 4 1.794 4 4-1.794 4-4 4z" fill="#ffffff" class="fill-3f3a34"></path><path d="M35.326 33.041c.057.024.114.049.171.071L36.219 36h7.562l.722-2.888c.057-.022.114-.047.171-.071l2.553 1.531 5.346-5.347-1.53-2.552.07-.171L54 25.781v-7.562l-2.888-.722c-.092-.227-.19-.451-.296-.669l-1.803.864c.152.318.288.646.407.982l.179.506 2.4.6v4.438l-2.4.6-.179.506c-.119.336-.255.664-.407.982l-.233.485 1.274 2.123-3.139 3.138-2.122-1.273-.484.231a9.8 9.8 0 0 1-.982.407l-.508.179-.6 2.404h-4.438l-.601-2.401-.508-.179a9.8 9.8 0 0 1-.982-.407l-.484-.231-2.122 1.273-3.69-3.69-1.414 1.414 4.794 4.794 2.552-1.532zM26 18.219v7.562l2.888.722c.092.227.19.451.296.669l1.803-.864a10.084 10.084 0 0 1-.407-.982l-.18-.507-2.4-.6v-4.438l2.4-.6.179-.506c.119-.336.255-.664.407-.982l.232-.485-1.273-2.123 3.139-3.139 2.122 1.273.484-.231a9.8 9.8 0 0 1 .982-.407l.508-.179.601-2.402h4.438l.601 2.401.508.179a9.8 9.8 0 0 1 .982.407l.484.231 2.122-1.273 3.69 3.69 1.414-1.414-4.794-4.795-2.553 1.532-.171-.071L43.781 8h-7.562l-.722 2.887-.171.071-2.553-1.532-5.346 5.347 1.53 2.553-.07.171-2.887.722z" fill="#ffffff" class="fill-3f3a34"></path><path d="M39 12h2v2h-2z" fill="#ffffff" class="fill-3f3a34"></path><path transform="rotate(-44.992 33.634 15.636)" d="M32.636 14.636h2v2h-2z" fill="#ffffff" class="fill-3f3a34"></path><path d="M30 21h2v2h-2z" fill="#ffffff" class="fill-3f3a34"></path><path transform="rotate(-45.009 33.637 28.365)" d="M32.636 27.364h2v2h-2z" fill="#ffffff" class="fill-3f3a34"></path><path d="M39 30h2v2h-2z" fill="#ffffff" class="fill-3f3a34"></path><path transform="rotate(-44.992 46.362 28.364)" d="M45.364 27.364h2v2h-2z" fill="#ffffff" class="fill-3f3a34"></path><path d="M48 21h2v2h-2z" fill="#ffffff" class="fill-3f3a34"></path><path transform="rotate(-45.009 46.366 15.636)" d="M45.364 14.636h2v2h-2z" fill="#ffffff" class="fill-3f3a34"></path></svg>