<svg width="50" height="50" viewBox="0 0 50 50" fill="none" xmlns="http://www.w3.org/2000/svg">
<g clip-path="url(#clip0_820_5670)">
<path d="M50 16.6406V15.1562C35.5469 9.06249 21.0938 18.8281 6.64062 17.9687V12.1875C21.0938 11.4844 34.2969 -0.390634 50 4.21874C49.9219 3.74999 50.0781 3.20312 50 2.73437C34.2187 -2.42188 21.0156 10.4687 6.64062 11.25C1.875 11.7187 2.26563 11.6406 0 11.9531V37.7344L6.64062 38.4375C20.1562 42.9687 37.6562 36.6406 50 46.7187C50.0781 46.25 49.9219 45.7031 50 45.2344C37.6562 34.5312 20.1562 42.1875 6.64062 37.4219V32.9687C21.0938 35.5469 35.5469 26.7187 49.9219 34.5312V33.0469C35.5469 24.5312 21.0938 34.6094 6.64062 32.0312V26.3281C21.0938 28.75 35.5469 16.0156 49.9219 25.625V24.1406C35.4688 14.6875 21.0156 27.5 6.64062 25.2344V19.2969C21.0938 20.4687 35.5469 9.68749 50 16.6406" fill="#BACAD3"/>
<path d="M31.7969 32.7344C36.0156 30.8594 38.8281 26.0157 37.2656 21.6407C36.1719 17.5782 30.625 15.8594 26.9531 17.9688C26.7188 17.1094 26.4063 16.1719 26.1719 15.3125C26.1719 15.1563 26.0938 15.0782 26.0938 14.9219C26.0156 14.7657 26.7969 14.0625 26.9531 13.9063C27.7344 12.9688 28.5156 12.0313 29.1406 11.0938C30.3125 9.37503 31.4844 7.34378 31.0938 5.2344C30.7813 3.28128 29.2188 1.64065 27.0313 1.56253C25.1563 1.4844 23.3594 2.57815 22.4219 4.06253C21.3281 5.78128 21.5625 7.57815 22.1094 9.45315C22.5 10.5469 22.8125 11.7188 23.125 12.8907C23.2813 13.2813 23.3594 13.75 23.5156 14.1407C23.5156 14.2188 23.5938 14.5313 23.6719 14.5313C23.4375 14.9219 22.8906 15.3907 22.5781 15.7032C21.25 17.0313 19.7656 18.3594 18.9063 20C18.0469 21.5625 17.6563 23.3594 17.8125 25.1563C18.125 28.6719 20.625 31.875 24.1406 33.125C25.7813 33.75 27.5781 33.8282 29.2969 33.5938C29.9219 35.5469 30.3906 37.5 31.0156 39.4532C31.5625 41.0938 32.7344 43.125 32.1875 44.9219C31.7188 46.4844 29.9219 47.5 28.2031 47.2657C30.2344 46.6407 31.1719 44.4532 30 42.7344C28.9844 41.3282 26.7969 40.9375 25.3906 41.9532C22.4219 44.1407 25.2344 47.8907 28.125 48.4375C30 48.75 31.9531 47.9688 33.125 46.5625C34.375 44.9219 34.2188 43.2032 33.75 41.3282C33.2031 39.2969 32.5781 37.2657 32.0313 35.2344C31.875 34.7657 31.7969 34.375 31.6406 33.9063L31.4063 33.2032C31.3281 32.8125 31.4844 32.8907 31.7969 32.7344V32.7344ZM35.1563 22.4219C36.1719 25.8594 34.1406 29.6094 30.7031 31.0157L28.125 22.3438C27.8906 21.6407 27.7344 20.9375 27.5 20.2344C27.3438 19.6875 27.1094 19.5313 27.6563 19.2188C30.7813 17.8125 34.2969 19.4532 35.1563 22.4219V22.4219ZM24.8438 4.45315C25.5469 3.82815 26.7969 3.3594 27.7344 3.75003C28.6719 4.21878 29.0625 5.31253 28.9844 6.25003C28.9063 8.6719 26.875 10.7813 25.3125 12.5782C25 11.4063 24.6094 10.2344 24.2969 8.9844C23.8281 7.4219 23.3594 5.70315 24.8438 4.45315V4.45315ZM25.1563 19.375C25.3125 19.6875 24.6875 20.3125 24.5313 20.625C24.2969 21.0938 24.1406 21.5625 23.9844 22.1094C23.75 23.125 23.8281 24.2188 24.1406 25.2344C24.2188 25.5469 24.6875 25.625 24.9219 25.3125C25.0781 25 24.8438 24.2969 24.8438 23.9063C24.8438 22.8907 25.0781 21.9532 25.7031 21.0938C26.7188 24.6094 27.7344 28.0469 28.75 31.5625C25.3906 32.0313 22.0313 30.1563 20.625 27.2657C19.7656 25.4688 19.6875 23.3594 20.5469 21.5625C21.4063 19.6875 23.0469 18.2813 24.4531 16.875C24.6094 17.6563 24.7656 18.5157 25.1563 19.375" fill="white"/>
</g>
<defs>
<clipPath id="clip0_820_5670">
<rect width="50" height="50" fill="white"/>
</clipPath>
</defs>
</svg>
