<svg width="64" height="64" viewBox="0 0 64 64" fill="none" xmlns="http://www.w3.org/2000/svg">
<path d="M6.20002 57.4748C6.20002 57.4748 8.02702 64.5018 19.458 62.7048L21.402 57.9998L18.114 54.4268L9.00902 51.4238L6.19702 57.4758" fill="#34484C"/>
<path d="M42.63 44.3C42.63 46.79 41.345 47.442 38.116 48.81L10.511 60.463C9.9184 60.4631 9.33159 60.3465 8.7841 60.1197C8.23661 59.8929 7.73918 59.5605 7.32024 59.1413C6.9013 58.7222 6.56907 58.2246 6.34254 57.6771C6.116 57.1295 5.99961 56.5426 6 55.95V17.168C6 14.672 7.464 13.845 10.511 12.653L38.116 1C39.3123 0.999735 40.4598 1.47458 41.3061 2.32012C42.1523 3.16566 42.6282 4.31269 42.629 5.509V44.299" fill="#1EA0CD"/>
<path d="M8.51003 59.9869C8.51003 59.9869 18.856 62.957 19.458 62.701C20.063 62.444 19.073 58.214 19.073 58.214L15.331 54.1829L11.848 54.0229L11.235 54.893L8.50903 59.9869" fill="#34484C"/>
<path d="M37.4679 3.68311L6.84595 16.5511L8.28095 24.7941L12.8359 25.2501L28.0499 22.8001L37.5089 17.8431L44.4719 8.3081C42.9499 5.5791 40.7169 3.89011 37.4689 3.68311" fill="#F4F5F5"/>
<path d="M14.958 19.4018C14.958 18.6818 15.082 18.1018 15.331 17.6118C12.2 17.3218 9.24096 16.4128 7.07796 14.4668C6.36396 15.1248 6.01196 15.9448 6.01196 17.1668V55.9508C6.01144 56.5433 6.12768 57.13 6.35404 57.6775C6.58041 58.2251 6.91245 58.7226 7.33121 59.1417C7.74996 59.5609 8.2472 59.8933 8.79452 60.1202C9.34184 60.347 9.9285 60.4638 10.521 60.4638L14.977 58.5828C14.9644 58.4518 14.9577 58.3204 14.957 58.1888V19.4018H14.958Z" fill="#34484C"/>
<path d="M52.372 48.1222C52.372 50.6172 51.093 51.2672 47.86 52.6352L19.462 62.7042C18.2651 62.704 17.1174 62.2284 16.2711 61.3821C15.4248 60.5358 14.9492 59.3881 14.949 58.1912V19.4052C14.949 16.9132 16.415 16.0832 19.462 14.8942L47.86 4.82422C49.0567 4.82448 50.2044 5.30008 51.0505 6.1464C51.8966 6.99272 52.372 8.14047 52.372 9.33722V48.1222Z" fill="#57C6E9"/>
<path d="M40.6139 16.6621C40.6431 16.737 40.6571 16.8169 40.6552 16.8972C40.6533 16.9776 40.6355 17.0567 40.6029 17.1302C40.5703 17.2036 40.5235 17.2699 40.4651 17.3251C40.4068 17.3804 40.338 17.4235 40.2629 17.4521L25.1589 23.2771C25.0081 23.3353 24.8404 23.3315 24.6924 23.2665C24.5444 23.2015 24.4281 23.0806 24.3689 22.9301C24.3108 22.7785 24.3149 22.61 24.3805 22.4615C24.4461 22.3129 24.5677 22.1963 24.7189 22.1371L39.8239 16.3151C39.8986 16.286 39.9783 16.2719 40.0584 16.2736C40.1385 16.2753 40.2175 16.2927 40.2908 16.3249C40.3642 16.3572 40.4305 16.4035 40.4859 16.4614C40.5414 16.5192 40.5849 16.5874 40.6139 16.6621V16.6621ZM40.6139 19.4401C40.6427 19.5147 40.6565 19.5943 40.6544 19.6743C40.6523 19.7543 40.6345 19.833 40.6019 19.9061C40.5692 19.9791 40.5225 20.045 40.4643 20.0999C40.4062 20.1548 40.3377 20.1977 40.2629 20.2261L25.1589 26.0501C25.0104 26.0982 24.849 26.0876 24.7081 26.0205C24.5671 25.9534 24.4571 25.8348 24.4008 25.6892C24.3445 25.5435 24.3461 25.3818 24.4053 25.2373C24.4644 25.0928 24.5767 24.9764 24.7189 24.9121L39.8239 19.0881C39.9754 19.0304 40.1436 19.0351 40.2916 19.101C40.4397 19.167 40.5555 19.2889 40.6139 19.4401V19.4401ZM35.4769 24.2881C35.5949 24.6041 35.5209 24.9241 35.3069 25.0081L24.9899 28.9831C24.7769 29.0661 24.5059 28.8811 24.3829 28.5661C24.2629 28.2491 24.3369 27.9261 24.5509 27.8471L34.8659 23.8671C35.0829 23.7871 35.3539 23.9731 35.4779 24.2871" fill="#198BA9"/>
</svg>
