<svg width="64" height="64" viewBox="0 0 64 64" fill="none" xmlns="http://www.w3.org/2000/svg">
<path d="M6.20002 57.4751C6.20002 57.4751 8.02702 64.5021 19.458 62.7051L21.402 58.0001L18.114 54.4271L9.00902 51.4241L6.19702 57.4761" fill="#34484C"/>
<path d="M42.63 44.3C42.63 46.79 41.345 47.442 38.116 48.81L10.511 60.463C9.9184 60.4631 9.33159 60.3465 8.7841 60.1197C8.23661 59.8929 7.73918 59.5605 7.32024 59.1413C6.9013 58.7222 6.56907 58.2246 6.34254 57.6771C6.116 57.1295 5.99961 56.5426 6 55.95V17.168C6 14.672 7.464 13.845 10.511 12.653L38.116 1C39.3123 0.999735 40.4598 1.47458 41.3061 2.32012C42.1523 3.16566 42.6282 4.31269 42.629 5.509V44.299" fill="#1EA0CD"/>
<path d="M8.51003 59.9869C8.51003 59.9869 18.856 62.957 19.458 62.701C20.063 62.444 19.073 58.214 19.073 58.214L15.331 54.1829L11.848 54.0229L11.235 54.893L8.50903 59.9869" fill="#34484C"/>
<path d="M37.4679 3.68311L6.84595 16.5511L8.28095 24.7941L12.8359 25.2501L28.0499 22.8001L37.5089 17.8431L44.4719 8.3081C42.9499 5.5791 40.7169 3.89011 37.4689 3.68311" fill="#F4F5F5"/>
<path d="M14.958 19.402C14.958 18.682 15.082 18.102 15.331 17.612C12.2 17.322 9.24096 16.413 7.07796 14.467C6.36396 15.125 6.01196 15.945 6.01196 17.167V55.951C6.01144 56.5435 6.12768 57.1303 6.35404 57.6778C6.58041 58.2253 6.91245 58.7228 7.33121 59.142C7.74996 59.5611 8.2472 59.8936 8.79452 60.1204C9.34184 60.3473 9.9285 60.464 10.521 60.464L14.977 58.583C14.9644 58.4521 14.9577 58.3206 14.957 58.189V19.402H14.958Z" fill="#34484C"/>
<path d="M52.372 48.122C52.372 50.617 51.093 51.267 47.86 52.635L19.462 62.704C18.2651 62.7037 17.1174 62.2281 16.2711 61.3819C15.4248 60.5356 14.9492 59.3878 14.949 58.191V19.405C14.949 16.913 16.415 16.083 19.462 14.894L47.86 4.82397C49.0567 4.82424 50.2044 5.29983 51.0505 6.14616C51.8966 6.99248 52.372 8.14023 52.372 9.33697V48.122Z" fill="#57C6E9"/>
<path d="M40.6141 16.6621C40.6432 16.737 40.6572 16.8169 40.6553 16.8972C40.6534 16.9776 40.6357 17.0567 40.603 17.1302C40.5704 17.2036 40.5236 17.2699 40.4652 17.3251C40.4069 17.3804 40.3382 17.4235 40.2631 17.4521L25.1591 23.2771C25.0083 23.3353 24.8405 23.3315 24.6925 23.2665C24.5445 23.2015 24.4282 23.0806 24.3691 22.9301C24.3109 22.7785 24.315 22.61 24.3806 22.4615C24.4462 22.3129 24.5678 22.1963 24.7191 22.1371L39.8241 16.3151C39.8987 16.286 39.9784 16.2719 40.0585 16.2736C40.1386 16.2753 40.2176 16.2927 40.291 16.3249C40.3643 16.3572 40.4306 16.4035 40.486 16.4614C40.5415 16.5192 40.585 16.5874 40.6141 16.6621M40.6141 19.4401C40.6429 19.5147 40.6566 19.5943 40.6545 19.6743C40.6525 19.7543 40.6346 19.833 40.602 19.9061C40.5694 19.9791 40.5226 20.045 40.4645 20.0999C40.4063 20.1548 40.3379 20.1977 40.2631 20.2261L25.1591 26.0501C25.0105 26.0982 24.8492 26.0876 24.7082 26.0205C24.5672 25.9534 24.4573 25.8348 24.4009 25.6892C24.3446 25.5435 24.3462 25.3818 24.4054 25.2373C24.4645 25.0928 24.5768 24.9764 24.7191 24.9121L39.8241 19.0881C39.9755 19.0304 40.1437 19.0351 40.2917 19.101C40.4398 19.167 40.5557 19.2889 40.6141 19.4401M35.4771 24.2881C35.5951 24.6041 35.5211 24.9241 35.3071 25.0081L24.9901 28.9831C24.7771 29.0661 24.5061 28.8811 24.3831 28.5661C24.2631 28.2491 24.3371 27.9261 24.5511 27.8471L34.8661 23.8671C35.0831 23.7871 35.3541 23.9731 35.4781 24.2871" fill="#198BA9"/>
</svg>
