<svg width="64" height="64" viewBox="0 0 64 64" fill="none" xmlns="http://www.w3.org/2000/svg">
<path d="M31.928 48.656C31.928 50.457 30.223 51.916 28.118 51.916H3.814C1.708 51.916 0 50.457 0 48.656V19.29C0 17.489 1.708 16.033 3.814 16.033H28.118C30.223 16.033 31.928 17.49 31.928 19.29V48.656" fill="#BB324A"/>
<path d="M31.928 46.36C31.928 48.162 30.223 49.621 28.118 49.621H3.814C1.708 49.621 0 48.162 0 46.36V16.996C0 15.197 1.708 13.738 3.814 13.738H28.118C30.223 13.738 31.928 15.197 31.928 16.996V46.36" fill="#DE374B"/>
<path d="M31.6221 48.656C31.6221 50.457 33.3291 51.916 35.4341 51.916H59.7401C61.8411 51.916 63.5491 50.457 63.5491 48.656V19.29C63.5491 17.489 61.8411 16.033 59.7401 16.033H35.4361C33.3311 16.033 31.6231 17.49 31.6231 19.29V48.656" fill="#BB324A"/>
<path d="M31.6221 46.36C31.6221 48.162 33.3291 49.621 35.4341 49.621H59.7401C61.8411 49.621 63.5491 48.162 63.5491 46.36V16.996C63.5491 15.197 61.8411 13.738 59.7401 13.738H35.4361C33.3311 13.738 31.6231 15.197 31.6231 16.996V46.36" fill="#DE374B"/>
<path d="M32.2601 45.9221C32.2601 47.7231 30.6521 49.1821 28.6661 49.1821H5.77208C3.79008 49.1821 2.18408 47.7231 2.18408 45.9221V16.5571C2.18408 14.7541 3.79008 13.2981 5.77208 13.2981H28.6671C30.6531 13.2981 32.2611 14.7551 32.2611 16.5571V45.9221" fill="#D0D1D2"/>
<path d="M32.2601 43.624C32.2601 45.427 30.6521 46.884 28.6661 46.884H5.77208C3.79008 46.884 2.18408 45.427 2.18408 43.624V14.258C2.18408 12.459 3.79008 11 5.77208 11H28.6671C30.6531 11 32.2611 12.459 32.2611 14.258V43.624" fill="#E7E6E6"/>
<path d="M6.70618 18.893H27.0752C28.4442 18.893 28.4442 16.967 27.0752 16.967H6.70618C5.33818 16.967 5.33818 18.893 6.70618 18.893ZM6.70618 22.8H27.0752C28.4442 22.8 28.4442 20.876 27.0752 20.876H6.70618C5.33818 20.876 5.33818 22.8 6.70618 22.8ZM6.70618 26.797H27.0752C28.4442 26.797 28.4442 24.871 27.0752 24.871H6.70618C5.33818 24.871 5.33818 26.797 6.70618 26.797ZM6.70618 30.707H27.0752C28.4442 30.707 28.4442 28.781 27.0752 28.781H6.70618C5.33818 28.781 5.33818 30.707 6.70618 30.707ZM6.70618 34.751H27.0752C28.4442 34.751 28.4442 32.825 27.0752 32.825H6.70618C5.33818 32.825 5.33818 34.751 6.70618 34.751ZM6.70618 39.32H27.0752C28.4442 39.32 28.4442 37.394 27.0752 37.394H6.70618C5.33818 37.394 5.33818 39.32 6.70618 39.32Z" fill="#35494D"/>
<path d="M62.3299 46.54C62.3299 48.341 60.7229 49.799 58.7379 49.799H35.8439C33.8649 49.799 32.2549 48.341 32.2549 46.54V17.173C32.2549 15.374 33.8649 13.916 35.8439 13.916H58.7379C60.7219 13.916 62.3299 15.374 62.3299 17.173V46.54Z" fill="#D0D1D2"/>
<path d="M62.3299 44.24C62.3299 46.039 60.7229 47.498 58.7379 47.498H35.8439C33.8649 47.498 32.2549 46.039 32.2549 44.24V14.87C32.2549 13.072 33.8649 11.615 35.8439 11.615H58.7379C60.7219 11.615 62.3299 13.072 62.3299 14.87V44.24" fill="#E7E6E6"/>
<path d="M36.7792 19.509H57.1482C58.5172 19.509 58.5172 17.583 57.1482 17.583H36.7792C35.4102 17.583 35.4102 19.509 36.7792 19.509ZM36.7792 23.42H57.1482C58.5172 23.42 58.5172 21.496 57.1482 21.496H36.7792C35.4102 21.496 35.4102 23.42 36.7792 23.42ZM36.7792 27.416H57.1482C58.5172 27.416 58.5172 25.49 57.1482 25.49H36.7792C35.4102 25.49 35.4102 27.416 36.7792 27.416ZM36.7792 31.33H57.1482C58.5172 31.33 58.5172 29.402 57.1482 29.402H36.7792C35.4102 29.402 35.4102 31.33 36.7792 31.33ZM36.7792 35.37H57.1482C58.5172 35.37 58.5172 33.443 57.1482 33.443H36.7792C35.4102 33.443 35.4102 35.37 36.7792 35.37ZM44.1102 39.936H57.5032C58.4032 39.936 58.4032 38.009 57.5032 38.009H44.1102C43.2112 38.009 43.2112 39.936 44.1102 39.936" fill="#35494D"/>
</svg>
