<svg width="108" height="108" viewBox="0 0 108 108" fill="none" xmlns="http://www.w3.org/2000/svg">
<g clip-path="url(#clip0_932_5679)" filter="url(#filter0_d_932_5679)">
<path d="M103.261 55.3585C102.264 46.2779 101.222 41.6668 98.4444 36.1113C98.4444 36.1113 106.778 11.1113 101.222 0.833478C99.35 -2.62763 80.6555 5.52237 73.4444 11.1113C73.4444 11.1113 62.3333 8.33903 54 8.33903C45.6667 8.33903 34.5555 11.1113 34.5555 11.1113C27.3444 5.52237 8.64999 -2.62763 6.77776 0.833478C1.22221 11.1113 9.55554 36.1113 9.55554 36.1113C6.77776 41.6668 5.7361 46.2779 4.73887 55.3585C3.64165 65.314 5.82499 73.2501 6.77776 75.0001C7.8611 76.989 13.3528 83.4029 20.6667 88.889C31.7778 97.2224 48.4444 100 54 100C59.5555 100 76.2222 97.2224 87.3333 88.889C94.6472 83.4029 100.139 76.989 101.222 75.0001C102.175 73.2501 104.358 65.314 103.261 55.3585V55.3585Z" fill="#FFCC4D"/>
<path d="M54 54.1665C62.3333 54.1665 62.3333 55.5554 62.3333 58.3332C62.3333 61.1109 58.1666 66.6665 54 66.6665C49.8333 66.6665 45.6666 61.1109 45.6666 58.3332C45.6666 55.5554 45.6638 54.1665 54 54.1665Z" fill="#E75A70"/>
<path d="M9.55561 8.33312C10.7973 4.60534 25.2223 11.1109 28.0001 13.8887C28.0001 13.8887 15.1112 22.222 12.3334 30.5553C12.3334 30.5553 6.77783 16.6665 9.55561 8.33312ZM98.4445 8.33312C97.2028 4.60534 82.7778 11.1109 80.0001 13.8887C80.0001 13.8887 92.8889 22.222 95.6667 30.5553C95.6667 30.5553 101.222 16.6665 98.4445 8.33312Z" fill="#F18F26"/>
<path d="M17.7056 15.5638C17.7056 11.636 34.5556 19.4443 31.7778 22.2221C29 24.9999 26.2222 26.6749 23.4445 29.4526C20.6667 32.2304 17.7056 18.3415 17.7056 15.5638ZM90.2945 15.5638C90.2945 11.636 73.4445 19.4443 76.2222 22.2221C79 24.9999 81.7778 26.6749 84.5556 29.4526C87.3333 32.2304 90.2945 18.3415 90.2945 15.5638V15.5638Z" fill="#FFCC4D"/>
<path d="M5.94721 69.4444C5.6589 69.4442 5.37781 69.3542 5.14292 69.1871C4.90803 69.0199 4.73099 68.7838 4.63634 68.5114C4.5417 68.2391 4.53415 67.9441 4.61474 67.6673C4.69533 67.3905 4.86007 67.1456 5.0861 66.9666C5.5361 66.6138 16.2528 58.2999 34.6639 59.7305C35.4278 59.7861 36 60.4555 35.9417 61.2194C35.8833 61.9833 35.2278 62.6111 34.45 62.4972C17.1361 61.1805 6.90832 69.0694 6.80832 69.1499C6.56148 69.3401 6.25882 69.4436 5.94721 69.4444V69.4444ZM30.5805 56.4916C30.4403 56.4918 30.3008 56.4712 30.1667 56.4305C16.8611 52.2722 5.89721 55.4666 5.7861 55.4972C5.61155 55.5497 5.42836 55.5673 5.247 55.5491C5.06564 55.5308 4.88965 55.477 4.72908 55.3907C4.56851 55.3044 4.42651 55.1874 4.31118 55.0462C4.19585 54.905 4.10946 54.7426 4.05693 54.568C4.0044 54.3935 3.98677 54.2103 4.00503 54.0289C4.0233 53.8475 4.07711 53.6716 4.16339 53.511C4.24967 53.3504 4.36674 53.2084 4.5079 53.0931C4.64906 52.9778 4.81155 52.8914 4.9861 52.8388C5.46665 52.6944 16.8917 49.3749 30.9917 53.7777C31.3078 53.8771 31.578 54.0862 31.7535 54.3673C31.929 54.6485 31.9981 54.9831 31.9485 55.3108C31.8989 55.6384 31.7337 55.9375 31.4828 56.1541C31.232 56.3706 30.9119 56.4904 30.5805 56.4916V56.4916ZM102.053 69.4444C102.341 69.4442 102.622 69.3542 102.857 69.1871C103.092 69.0199 103.269 68.7838 103.364 68.5114C103.458 68.2391 103.466 67.9441 103.385 67.6673C103.305 67.3905 103.14 67.1456 102.914 66.9666C102.464 66.6138 91.7472 58.2999 73.3361 59.7305C73.1544 59.7442 72.9771 59.7936 72.8145 59.8759C72.6519 59.9582 72.5071 60.0717 72.3885 60.21C72.2698 60.3483 72.1795 60.5086 72.1229 60.6818C72.0662 60.855 72.0443 61.0377 72.0583 61.2194C72.1166 61.9833 72.7722 62.6111 73.55 62.4972C90.8639 61.1805 101.092 69.0694 101.192 69.1499C101.438 69.3401 101.741 69.4436 102.053 69.4444V69.4444ZM77.4194 56.4916C77.5555 56.4916 77.6972 56.4722 77.8333 56.4305C91.1389 52.2722 102.103 55.4666 102.214 55.4972C102.388 55.5497 102.572 55.5673 102.753 55.5491C102.934 55.5308 103.11 55.477 103.271 55.3907C103.431 55.3044 103.573 55.1874 103.689 55.0462C103.804 54.905 103.891 54.7426 103.943 54.568C103.996 54.3935 104.013 54.2103 103.995 54.0289C103.977 53.8475 103.923 53.6716 103.837 53.511C103.75 53.3504 103.633 53.2084 103.492 53.0931C103.351 52.9778 103.188 52.8914 103.014 52.8388C102.533 52.6944 91.1083 49.3749 77.0083 53.7777C76.6922 53.8771 76.4219 54.0862 76.2465 54.3673C76.071 54.6485 76.0018 54.9831 76.0515 55.3108C76.1011 55.6384 76.2663 55.9375 76.5171 56.1541C76.768 56.3706 77.088 56.4904 77.4194 56.4916V56.4916Z" fill="#FEE7B8"/>
<path d="M64.7528 83.3334C68.4611 82.1889 72.0555 80.1223 72.0555 76.3889C72.0555 69.1139 58.4111 68.1445 56.8528 68.0584C56.0833 67.9612 55.4361 68.5973 55.3916 69.3584C55.3688 69.7242 55.4914 70.0842 55.7328 70.36C55.9743 70.6358 56.3149 70.8049 56.6805 70.8306C56.7778 70.8362 66.5 71.6612 66.5 76.3889C66.5 81.1167 56.7778 81.9417 56.6805 81.9473C56.6528 81.9501 56.6333 81.9639 56.6055 81.9695C56.4407 81.9797 56.2796 82.0237 56.1325 82.0987C55.9853 82.1737 55.8551 82.2782 55.75 82.4056C55.7333 82.4251 55.7194 82.4501 55.7028 82.4667C55.6218 82.5726 55.5546 82.6883 55.5028 82.8112C55.4722 82.8862 55.4583 82.9695 55.4444 83.0501C55.4305 83.1139 55.3972 83.1778 55.3916 83.2445C55.3889 83.2751 55.4028 83.3028 55.4028 83.3334C55.4028 83.3639 55.3889 83.3917 55.3916 83.4195C55.3972 83.4889 55.4278 83.5473 55.4444 83.6139C55.4611 83.6945 55.475 83.7778 55.5055 83.8556C55.544 83.9419 55.5915 84.0238 55.6472 84.1001C55.6944 84.1639 55.7305 84.2306 55.7861 84.2862C55.8544 84.3518 55.9299 84.4096 56.0111 84.4584C56.0778 84.5056 56.1361 84.5501 56.2083 84.5862C56.2978 84.6244 56.3922 84.6497 56.4889 84.6612C56.5528 84.6778 56.6111 84.7112 56.6805 84.7167C56.7778 84.7251 66.5 85.5501 66.5 90.2778C66.5 95.0056 56.7778 95.8306 56.6805 95.8362C56.3196 95.8589 55.9817 96.0215 55.7388 96.2894C55.4959 96.5574 55.3671 96.9095 55.3797 97.2709C55.3924 97.6324 55.5455 97.9746 55.8066 98.2249C56.0677 98.4752 56.4161 98.6138 56.7778 98.6112L56.8528 98.6084C58.4111 98.5223 72.0555 97.5528 72.0555 90.2778C72.0555 86.5445 68.4611 84.4778 64.7528 83.3334ZM82.9333 49.2306C82.7639 48.9778 78.725 43.0556 70.6666 43.0556C62.6111 43.0556 58.5694 48.9778 58.4 49.2306C58.2191 49.502 58.1397 49.8285 58.1758 50.1526C58.2119 50.4768 58.3611 50.7778 58.5972 51.0028C58.8345 51.2278 59.1429 51.3626 59.4692 51.3839C59.7954 51.4052 60.1188 51.3117 60.3833 51.1195C60.4166 51.0917 63.8889 48.6112 70.6666 48.6112C77.4055 48.6112 80.8722 51.0584 80.95 51.1139C81.2125 51.3077 81.5349 51.4028 81.8605 51.3826C82.1862 51.3624 82.4943 51.2282 82.7309 51.0035C82.9675 50.7788 83.1175 50.478 83.1545 50.1538C83.1915 49.8297 83.1132 49.5028 82.9333 49.2306V49.2306ZM49.6 49.2306C49.4305 48.9778 45.3916 43.0556 37.3333 43.0556C29.2778 43.0556 25.2361 48.9778 25.0666 49.2306C24.8846 49.5025 24.8045 49.8299 24.8402 50.1551C24.876 50.4803 25.0255 50.7825 25.2622 51.0083C25.499 51.2341 25.8079 51.3691 26.1344 51.3894C26.461 51.4098 26.7842 51.3142 27.0472 51.1195C27.0833 51.0917 30.5528 48.6112 37.3333 48.6112C44.0722 48.6112 47.5389 51.0584 47.6166 51.1139C47.8792 51.3077 48.2016 51.4028 48.5272 51.3826C48.8529 51.3624 49.161 51.2282 49.3976 51.0035C49.6342 50.7788 49.7842 50.478 49.8212 50.1538C49.8582 49.8297 49.7799 49.5028 49.6 49.2306V49.2306ZM90.1139 44.4445C89.6821 44.4454 89.2561 44.3454 88.8698 44.1525C88.4835 43.9596 88.1476 43.6791 87.8889 43.3334C80.5528 33.5528 71.0528 33.3362 70.65 33.3334C69.9157 33.3253 69.2143 33.0274 68.6987 32.5045C68.183 31.9816 67.895 31.2761 67.8972 30.5417C67.8987 29.8082 68.1911 29.1052 68.7103 28.587C69.2295 28.0689 69.9331 27.7778 70.6666 27.7778C71.1778 27.7778 83.2694 27.9167 92.3333 40.0001C92.6427 40.4126 92.8312 40.903 92.8776 41.4166C92.924 41.9301 92.8266 42.4464 92.5962 42.9077C92.3659 43.3691 92.0116 43.7571 91.5732 44.0286C91.1348 44.3 90.6295 44.444 90.1139 44.4445ZM17.8861 44.4445C17.3705 44.444 16.8651 44.3 16.4267 44.0286C15.9883 43.7571 15.6341 43.3691 15.4037 42.9077C15.1734 42.4464 15.0759 41.9301 15.1224 41.4166C15.1688 40.903 15.3573 40.4126 15.6666 40.0001C24.7278 27.9167 36.8222 27.7778 37.3333 27.7778C38.07 27.7764 38.7771 28.0676 39.2991 28.5875C39.8211 29.1074 40.1152 29.8133 40.1166 30.5501C40.1181 31.2868 39.8269 31.9939 39.307 32.5159C38.7871 33.0378 38.0811 33.3319 37.3444 33.3334C36.9111 33.3389 27.4305 33.5723 20.1083 43.3334C19.8503 43.6792 19.515 43.9598 19.1291 44.1527C18.7432 44.3457 18.3175 44.4456 17.8861 44.4445V44.4445Z" fill="#292F33"/>
</g>
<defs>
<filter id="filter0_d_932_5679" x="0" y="0" width="108" height="108" filterUnits="userSpaceOnUse" color-interpolation-filters="sRGB">
<feFlood flood-opacity="0" result="BackgroundImageFix"/>
<feColorMatrix in="SourceAlpha" type="matrix" values="0 0 0 0 0 0 0 0 0 0 0 0 0 0 0 0 0 0 127 0" result="hardAlpha"/>
<feOffset dy="4"/>
<feGaussianBlur stdDeviation="2"/>
<feComposite in2="hardAlpha" operator="out"/>
<feColorMatrix type="matrix" values="0 0 0 0 0 0 0 0 0 0 0 0 0 0 0 0 0 0 0.25 0"/>
<feBlend mode="normal" in2="BackgroundImageFix" result="effect1_dropShadow_932_5679"/>
<feBlend mode="normal" in="SourceGraphic" in2="effect1_dropShadow_932_5679" result="shape"/>
</filter>
<clipPath id="clip0_932_5679">
<rect width="100" height="100" fill="white" transform="translate(4)"/>
</clipPath>
</defs>
</svg>
