<svg width="55" height="55" viewBox="0 0 55 55" fill="none" xmlns="http://www.w3.org/2000/svg">
<g clip-path="url(#clip0_480_2976)">
<path d="M45 21.3141V20.2157C34.3047 15.7063 23.6094 22.9329 12.9141 22.2969V18.0188C23.6094 17.4985 33.3797 8.711 45 12.1219C44.9422 11.7751 45.0578 11.3704 45 11.0235C33.3219 7.20787 23.5516 16.7469 12.9141 17.3251C9.3875 17.6719 9.67656 17.6141 8 17.8454V36.9235L12.9141 37.4438C22.9156 40.7969 35.8656 36.1141 45 43.5719C45.0578 43.2251 44.9422 42.8204 45 42.4735C35.8656 34.5532 22.9156 40.2188 12.9141 36.6922V33.3969C23.6094 35.3047 34.3047 28.7719 44.9422 34.5532V33.4547C34.3047 27.1532 23.6094 34.611 12.9141 32.7032V28.4829C23.6094 30.2751 34.3047 20.8516 44.9422 27.9626V26.8641C34.2469 19.8688 23.5516 29.3501 12.9141 27.6735V23.2797C23.6094 24.1469 34.3047 16.1688 45 21.3141" fill="#BACAD3"/>
<path d="M31.5296 33.2234C34.6515 31.8359 36.7328 28.2515 35.5765 25.014C34.7671 22.0078 30.6624 20.7359 27.9453 22.2969C27.7718 21.6609 27.5406 20.9672 27.3671 20.3312C27.3671 20.2156 27.3093 20.1578 27.3093 20.0422C27.2515 19.9265 27.8296 19.4062 27.9453 19.2906C28.5234 18.5969 29.1015 17.9031 29.564 17.2094C30.4312 15.9375 31.2984 14.4344 31.0093 12.8734C30.7781 11.4281 29.6218 10.214 28.0031 10.1562C26.6156 10.0984 25.2859 10.9078 24.5921 12.0062C23.7828 13.2781 23.9562 14.6078 24.3609 15.9953C24.6499 16.8047 24.8812 17.6719 25.1124 18.539C25.2281 18.8281 25.2859 19.175 25.4015 19.464C25.4015 19.5219 25.4593 19.7531 25.5171 19.7531C25.3437 20.0422 24.939 20.389 24.7078 20.6203C23.7249 21.6031 22.6265 22.5859 21.9906 23.8C21.3546 24.9562 21.0656 26.2859 21.1812 27.6156C21.4124 30.2172 23.2624 32.5875 25.864 33.5125C27.0781 33.975 28.4078 34.0328 29.6796 33.8594C30.1421 35.3047 30.489 36.75 30.9515 38.1953C31.3562 39.4094 32.2234 40.9125 31.8187 42.2422C31.4718 43.3984 30.1421 44.15 28.8703 43.9765C30.3734 43.514 31.0671 41.8953 30.1999 40.6234C29.4484 39.5828 27.8296 39.2937 26.789 40.0453C24.5921 41.664 26.6734 44.439 28.8124 44.8437C30.1999 45.075 31.6453 44.4969 32.5124 43.4562C33.4374 42.2422 33.3218 40.9703 32.9749 39.5828C32.5703 38.0797 32.1078 36.5765 31.7031 35.0734C31.5874 34.7265 31.5296 34.4375 31.414 34.0906L31.2406 33.5703C31.1828 33.2812 31.2984 33.339 31.5296 33.2234M34.0156 25.5922C34.7671 28.1359 33.264 30.9109 30.7203 31.9515L28.8124 25.5344C28.639 25.014 28.5234 24.4937 28.3499 23.9734C28.2343 23.5687 28.0609 23.4531 28.4656 23.2219C30.7781 22.1812 33.3796 23.3953 34.0156 25.5922M26.3843 12.2953C26.9046 11.8328 27.8296 11.4859 28.5234 11.775C29.2171 12.1219 29.5062 12.9312 29.4484 13.625C29.3906 15.4172 27.8874 16.9781 26.7312 18.3078C26.4999 17.4406 26.2109 16.5734 25.9796 15.6484C25.6328 14.4922 25.2859 13.2203 26.3843 12.2953M26.6156 23.3375C26.7312 23.5687 26.2687 24.0312 26.1531 24.2625C25.9796 24.6094 25.864 24.9562 25.7484 25.3609C25.5749 26.1125 25.6328 26.9219 25.864 27.6734C25.9218 27.9047 26.2687 27.9625 26.4421 27.7312C26.5578 27.5 26.3843 26.9797 26.3843 26.6906C26.3843 25.939 26.5578 25.2453 27.0203 24.6094C27.7718 27.2109 28.5234 29.7547 29.2749 32.3562C26.789 32.7031 24.3031 31.3156 23.2624 29.1765C22.6265 27.8469 22.5687 26.2859 23.2046 24.9562C23.8406 23.5687 25.0546 22.5281 26.0953 21.4875C26.2109 22.0656 26.3265 22.7015 26.6156 23.3375" fill="#333333"/>
</g>
<path d="M55 27.5C55 42.6878 42.6878 55 27.5 55C12.3122 55 0 42.6878 0 27.5C0 12.3122 12.3122 0 27.5 0C42.6878 0 55 12.3122 55 27.5Z" fill="#957E7E" fill-opacity="0.24"/>
<defs>
<clipPath id="clip0_480_2976">
<rect width="37" height="37" fill="white" transform="translate(8 9)"/>
</clipPath>
</defs>
</svg>
