<svg width="50" height="50" viewBox="0 0 50 50" fill="none" xmlns="http://www.w3.org/2000/svg">
<path d="M35.6715 11.3333L34.1852 12.7777C38.1868 15.4444 40.7593 19.9444 40.7593 24.9999C40.7593 30.0555 38.1296 34.4999 34.1852 37.1666L35.6715 38.611C40.0733 35.5555 42.8744 30.611 42.8744 24.9999C42.8744 19.3888 40.0161 14.3888 35.6715 11.3333Z" fill="#42ADE2"/>
<path d="M36.3003 24.9999C36.3003 28.8332 34.1852 32.2221 30.9839 34.0554L32.5274 35.5554C36.0717 33.3332 38.4155 29.4443 38.4155 24.9999C38.4155 20.5554 36.0717 16.6666 32.4702 14.4443L30.9268 15.9443C34.128 17.7777 36.3003 21.1666 36.3003 24.9999Z" fill="#42ADE2"/>
<path d="M31.8985 25C31.8985 27.6667 30.1263 30 27.6682 30.8333L29.2689 32.3889C32.07 31.0555 34.0136 28.2222 34.0136 25C34.0136 21.7222 32.07 18.9444 29.2689 17.5555L27.6682 19.1111C30.1263 20 31.8985 22.2778 31.8985 25" fill="#42ADE2"/>
<path d="M12.6336 32.2222H8.46051C7.26003 32.2222 6.28821 31.3333 6.28821 30.2777V19.7222C6.28821 18.611 7.26003 17.7777 8.46051 17.7777H12.6336V32.2222Z" fill="#8B979E"/>
<path d="M23.3237 8.44447C24.0668 7.72225 12.6337 17.7778 12.6337 17.7778V32.2222C12.6337 32.2222 18.5217 36.6111 23.3237 41.5556V8.44447V8.44447Z" fill="#B0BDC6"/>
<path d="M25.153 21.389V28.6667C27.3825 28.6667 29.1546 27.0556 29.1546 25.0556C29.1546 23.0001 27.3825 21.389 25.153 21.389ZM25.153 41.9445C25.153 42.389 24.7529 42.7778 24.2384 42.7778C23.7239 42.7778 23.3237 42.389 23.3237 41.9445V8.05562C23.3237 7.61118 23.7239 7.22229 24.2384 7.22229C24.7529 7.22229 25.153 7.61118 25.153 8.05562V41.9445Z" fill="#333333"/>
<path d="M12.6336 29.5557H8.46051C7.26003 29.5557 6.28821 29.0001 6.28821 28.3335V21.6668C6.28821 21.0001 7.26003 20.4446 8.46051 20.4446H12.6336V29.5557Z" fill="#8B979E"/>
<path d="M12.6336 29.5557H8.46051C7.26003 29.5557 6.28821 29.0001 6.28821 28.3335V21.6668C6.28821 21.0001 7.26003 20.4446 8.46051 20.4446H12.6336V29.5557Z" fill="#B0BDC6"/>
<path d="M23.3237 14.6112L12.6337 20.4445V29.5557L23.3237 35.389V14.6112Z" fill="#DFE9EF"/>
<path d="M23.3237 14.6112H25.153V35.4445H23.3237V14.6112Z" fill="#8B979E"/>
<path d="M8.46045 17.7777H12.6336V32.2222H8.46045V17.7777Z" fill="#333333"/>
<circle cx="25" cy="25" r="25" fill="#957E7E" fill-opacity="0.24"/>
</svg>
