<svg width="50" height="50" viewBox="0 0 50 50" fill="none" xmlns="http://www.w3.org/2000/svg">
<path d="M18.3438 3.13649C18.2031 2.6404 17.75 2.97243 17.3672 3.06618C15.0078 3.65212 13.5938 1.65212 11.7188 0.722431C10.9219 0.3279 10.3906 0.0349314 9.47657 0.136494C8.61719 0.23415 7.71094 0.730244 7.53125 1.57009C7.52735 1.59353 7.53516 1.62087 7.53125 1.64821L7.49219 1.65993L7.52735 1.83181C7.52735 1.93728 7.50391 2.03884 7.52735 2.15602C7.5625 2.39431 7.66797 2.61306 7.7461 2.83181L9.92579 12.9334C9.66016 12.8787 9.38282 12.8396 9.07422 12.8201C7.78125 12.7302 6.64454 13.1599 5.7461 13.8631C3.35157 15.7224 2.89454 19.5076 6.21875 20.5662C9.08985 21.4802 12.6758 18.8435 12.3594 15.7263C12.3242 15.3787 12.2539 15.0818 12.1641 14.8045L10.2813 6.12087C11.7109 5.62087 13.2969 6.6404 14.7891 6.40602C16.1641 6.18727 17.1797 5.28884 18.0234 4.22634C18.2813 3.90212 18.4609 3.55446 18.3438 3.13649V3.13649Z" fill="#FF8A3D"/>
<path d="M30.4179 27.3049C29.2304 26.6447 28.0039 25.7268 26.8281 24.5979C25.9296 23.7346 25.1523 22.8283 24.5234 21.9338C23.8906 21.0393 23.4023 20.1525 23.082 19.2697C23.0234 19.1096 22.9882 18.9416 22.9453 18.7775L2.42183 43.7268C1.91011 44.2619 2.88277 46.0432 4.60933 47.6994C6.32808 49.3557 8.14449 50.2658 8.66011 49.7307V49.7268L32.7929 28.2541C32.5859 28.2072 32.3867 28.1604 32.1835 28.094C31.6015 27.9025 31.0156 27.6369 30.4179 27.3049ZM26.9062 7.94552C26.529 8.3929 26.1844 8.86677 25.875 9.36348C25.0039 10.7541 24.4414 12.594 24.5078 14.6291C24.5312 15.258 24.6132 15.9104 24.7656 16.5666V16.5744C25.2382 18.6369 26.3828 20.801 28.5078 22.8479H28.5117C30.6367 24.8947 32.8437 25.9572 34.9218 26.344C34.9257 26.344 34.9296 26.344 34.9335 26.3479C35.0039 26.3596 35.0664 26.3791 35.1367 26.3869C35.7304 26.4885 36.3164 26.5315 36.8906 26.5275C38.9218 26.5119 40.7343 25.8752 42.0898 24.9572C42.5664 24.633 43.0273 24.2697 43.4648 23.8713C42.3085 23.2033 38.8398 21.0393 34.3789 16.7502C29.9062 12.4533 27.6132 9.07052 26.9062 7.94552V7.94552ZM44.0234 6.72286C39.0625 1.94942 33.2734 2.80489 29.2656 5.73848C29.3242 5.8088 29.3828 5.88302 29.4296 5.96505L29.4453 5.98848L29.5078 6.09786C29.5703 6.19552 29.664 6.34786 29.7968 6.55098C30.196 7.15013 30.6141 7.73637 31.0507 8.3088C32.2031 9.82442 34.0039 11.9729 36.5937 14.4611C41.6015 19.2815 45.2343 21.2229 45.3554 21.2854C45.4375 21.3283 45.5117 21.3791 45.582 21.4338C48.3554 17.3127 48.9882 11.4924 44.0234 6.72286V6.72286Z" fill="#78A3AD"/>
</svg>
