<svg xmlns="http://www.w3.org/2000/svg" width="23" height="15" fill="none" viewBox="0 0 23 15">
  <path fill="#8482E9" d="M4.007 3.77H6.09a1.118 1.118 0 0 1 1.257 1.043 1 1 0 0 1-.583.93 1.16 1.16 0 0 1 .764 1.063 1.215 1.215 0 0 1-1.39 1.132h-2.13V3.77Zm1.882 1.681c.333 0 .57-.194.57-.465 0-.27-.237-.451-.57-.451h-.993v.916h.993Zm.139 1.723a.52.52 0 1 0 0-1.021H4.896v1.041l1.132-.02Zm3.076-2.598v.834h2.084v.805H9.104v.917h2.313v.805H8.208V3.771h3.209v.805H9.104Zm4.07 0h-1.299v-.805h3.472v.805H14.07v3.361h-.895v-3.36Zm5.271 2.702h-1.862l-.263.66h-1l1.694-4.167h1l1.701 4.166h-1.007l-.263-.66Zm-.313-.778-.618-1.52-.618 1.52h1.236Z"/>
  <path fill="#8482E9" d="M4.597 14.833a.582.582 0 0 1-.264-.055.695.695 0 0 1-.43-.64v-2.777H1.125a.695.695 0 0 1-.694-.694V.944A.694.694 0 0 1 1.125.25h20.833a.695.695 0 0 1 .695.694v9.723a.695.695 0 0 1-.695.694H8.361l-3.27 3.27a.695.695 0 0 1-.494.202ZM1.82 9.973h2.778a.695.695 0 0 1 .695.694v1.798l2.291-2.291a.694.694 0 0 1 .486-.202h13.195V1.64H1.819v8.333Z"/>
</svg>
