<svg xmlns="http://www.w3.org/2000/svg" width="25" height="20" fill="none" viewBox="0 0 25 20">
  <path fill="#000" d="M1.563 2.949c1.382-.565 3.365-1.174 5.293-1.363 2.078-.205 3.84.096 4.863 1.148v14.875c-1.461-.81-3.313-.92-5.02-.753-1.844.183-3.704.704-5.136 1.238V2.949Zm11.718-.215c1.022-1.052 2.785-1.353 4.863-1.148 1.928.19 3.91.798 5.294 1.363v15.145c-1.435-.534-3.293-1.056-5.136-1.236-1.71-.17-3.56-.06-5.02.75V2.735Zm-.781-1.38C10.96.061 8.73-.131 6.698.067 4.333.301 1.945 1.093.458 1.754a.776.776 0 0 0-.334.281.75.75 0 0 0-.124.413v16.79a.75.75 0 0 0 .358.64.794.794 0 0 0 .747.053c1.378-.61 3.598-1.344 5.75-1.556 2.201-.217 4.047.133 5.036 1.338A.78.78 0 0 0 12.5 20a.797.797 0 0 0 .61-.286c.988-1.206 2.834-1.555 5.034-1.338 2.153.212 4.375.946 5.751 1.556a.798.798 0 0 0 .747-.052.75.75 0 0 0 .358-.641V2.447a.75.75 0 0 0-.124-.413.776.776 0 0 0-.334-.281C23.055 1.093 20.667.3 18.302.067c-2.032-.2-4.263-.006-5.802 1.287Z"/>
</svg>
