<svg width="100" height="100" viewBox="0 0 100 100" fill="none" xmlns="http://www.w3.org/2000/svg">
<path d="M72.2222 8.33333C72.2222 6.1232 73.1002 4.00358 74.663 2.44078C76.2258 0.877974 78.3454 0 80.5555 0H91.6667C93.8768 0 95.9964 0.877974 97.5592 2.44078C99.122 4.00358 100 6.1232 100 8.33333V91.6667C100 93.8768 99.122 95.9964 97.5592 97.5592C95.9964 99.122 93.8768 100 91.6667 100H80.5555C78.3454 100 76.2258 99.122 74.663 97.5592C73.1002 95.9964 72.2222 93.8768 72.2222 91.6667V8.33333ZM36.1111 41.6667C36.1111 39.4565 36.9891 37.3369 38.5519 35.7741C40.1147 34.2113 42.2343 33.3333 44.4444 33.3333H55.5556C57.7657 33.3333 59.8853 34.2113 61.4481 35.7741C63.0109 37.3369 63.8889 39.4565 63.8889 41.6667V91.6667C63.8889 93.8768 63.0109 95.9964 61.4481 97.5592C59.8853 99.122 57.7657 100 55.5556 100H44.4444C42.2343 100 40.1147 99.122 38.5519 97.5592C36.9891 95.9964 36.1111 93.8768 36.1111 91.6667V41.6667ZM8.33333 66.6667C6.1232 66.6667 4.00358 67.5446 2.44078 69.1074C0.877974 70.6702 0 72.7899 0 75V91.6667C0 93.8768 0.877974 95.9964 2.44078 97.5592C4.00358 99.122 6.1232 100 8.33333 100H19.4444C21.6546 100 23.7742 99.122 25.337 97.5592C26.8998 95.9964 27.7778 93.8768 27.7778 91.6667V75C27.7778 72.7899 26.8998 70.6702 25.337 69.1074C23.7742 67.5446 21.6546 66.6667 19.4444 66.6667H8.33333Z" fill="#666666"/>
</svg>
