<svg width="229" height="229" viewBox="0 0 229 229" fill="none" xmlns="http://www.w3.org/2000/svg">
<path d="M208.6 127.8C221.946 113.38 229.189 94.352 228.81 74.7075C228.43 55.0631 220.457 36.329 206.564 22.4357C192.671 8.54237 173.937 0.569569 154.292 0.189982C134.648 -0.189606 115.62 7.05352 101.2 20.3997L100.3 21.2997L99.4 22.1997C85.6813 36.3533 78.0067 55.2887 78 74.9997C78 77.1997 78.1 79.3997 78.3 81.5997L4.4 182.4C1.53504 186.225 0.158297 190.961 0.526246 195.726C0.894196 200.491 2.98175 204.96 6.4 208.3L20.7 222.6C24.051 225.999 28.5171 228.073 33.2762 228.441C38.0353 228.808 42.7669 227.444 46.6 224.6L147.4 150.7C149.6 150.9 151.8 151 154 151C173.711 150.993 192.646 143.318 206.8 129.6L207.7 128.7L208.6 127.8ZM206 74.9997C206.026 84.6531 203.322 94.117 198.2 102.3L126.7 30.7997C134.883 25.6781 144.347 22.9741 154 22.9997C167.791 22.9997 181.018 28.4783 190.77 38.2302C200.521 47.9821 206 61.2085 206 74.9997V74.9997ZM102 74.9997C101.974 65.3464 104.678 55.8825 109.8 47.6997L181.3 119.2C173.117 124.321 163.653 127.025 154 127C140.209 127 126.982 121.521 117.23 111.769C107.479 102.017 102 88.791 102 74.9997V74.9997ZM35.2 203.2L25.8 193.8L86.8 110.5C93.9838 123.98 105.019 135.016 118.5 142.2L35.2 203.2Z" fill="white"/>
</svg>
