<svg width="100" height="100" viewBox="0 0 100 100" fill="none" xmlns="http://www.w3.org/2000/svg">
<path d="M60.9044 66.7959C53.4165 72.7781 43.9222 75.6661 34.3715 74.8668C24.8207 74.0675 15.9385 69.6416 9.54904 62.4981C3.15956 55.3546 -0.252165 46.0356 0.0145363 36.4552C0.281238 26.8748 4.20613 17.7601 10.9831 10.9831C17.7601 4.20613 26.8748 0.281238 36.4552 0.0145363C46.0356 -0.252165 55.3546 3.15956 62.4981 9.54904C69.6416 15.9385 74.0675 24.8207 74.8668 34.3715C75.6661 43.9222 72.7781 53.4165 66.7959 60.9044L98.7781 92.8783C99.5605 93.6607 100 94.7218 100 95.8282C100 96.9346 99.5605 97.9958 98.7781 98.7781C97.9958 99.5605 96.9346 100 95.8282 100C94.7218 100 93.6607 99.5605 92.8783 98.7781L60.9128 66.7959H60.9044ZM66.6626 37.4969C66.6626 33.6668 65.9082 29.8742 64.4425 26.3357C62.9768 22.7972 60.8284 19.582 58.1201 16.8737C55.4119 14.1654 52.1967 12.0171 48.6581 10.5514C45.1196 9.08565 41.327 8.33125 37.4969 8.33125C33.6668 8.33125 29.8742 9.08565 26.3357 10.5514C22.7972 12.0171 19.582 14.1654 16.8737 16.8737C14.1654 19.582 12.0171 22.7972 10.5514 26.3357C9.08565 29.8742 8.33125 33.6668 8.33125 37.4969C8.33126 45.2321 11.4041 52.6505 16.8737 58.1201C22.3433 63.5898 29.7617 66.6626 37.4969 66.6626C45.2321 66.6626 52.6505 63.5898 58.1201 58.1201C63.5898 52.6505 66.6626 45.2321 66.6626 37.4969V37.4969Z" fill="white"/>
</svg>
