<svg width="256" height="259" viewBox="0 0 256 259" fill="none" xmlns="http://www.w3.org/2000/svg">
    <defs>
        <linearGradient id="paint0_linear_1271_9657" x1="199.67" y1="90.9278" x2="153.091" y2="184.792" gradientUnits="userSpaceOnUse">
        <stop stop-color="#CC9300"/>
        <stop offset="0.48" stop-color="#EA433A"/>
        <stop offset="1" stop-color="#B327BF"/>
        </linearGradient>
        <linearGradient id="paint1_linear_1271_9657" x1="110.381" y1="13.0336" x2="66.2167" y2="99.6559" gradientUnits="userSpaceOnUse">
        <stop stop-color="#CC9300"/>
        <stop offset="0.26" stop-color="#EA433A"/>
        <stop offset="0.48" stop-color="#B327BF"/>
        <stop offset="0.76" stop-color="#6666FF"/>
        <stop offset="1" stop-color="#00BF9A"/>
        </linearGradient>
        <linearGradient id="paint2_linear_1271_9657" x1="80.9331" y1="223.547" x2="152.099" y2="149.723" gradientUnits="userSpaceOnUse">
        <stop stop-color="#B327BF"/>
        <stop offset="0.48" stop-color="#6666FF"/>
        <stop offset="1" stop-color="#00C09A"/>
        </linearGradient>
        <clipPath id="clip0_1271_9657">
        <rect width="256" height="259" fill="white"/>
        </clipPath>
        </defs>
    <g clip-path="url(#clip0_1271_9657)">
<path d="M122.798 254.854C89.621 260.301 76.746 258.32 63.376 253.864C50.209 249.4 38.777 240.912 30.694 229.6L29.209 228.114C21.781 217.715 16.334 205.831 11.382 175.129L3.459 123.63C-1.988 89.9582 -0.502997 77.0832 4.449 63.7132C9.06844 50.6249 17.3119 39.1188 28.219 30.5352L30.199 29.0502C40.598 21.6222 52.482 16.1752 82.689 11.2232L133.196 3.30021C166.374 -2.14679 179.248 -0.165793 192.618 4.29021C205.785 8.75466 217.218 17.2425 225.301 28.5552L226.786 30.5352C234.214 40.9352 239.661 52.8192 244.613 83.5202L252.536 134.524C257.983 168.197 256.497 181.071 251.546 194.441C247.088 207.613 238.814 219.162 227.776 227.619L225.796 229.104C215.396 236.532 203.512 241.979 173.306 246.931L122.797 254.854H122.798Z" fill="black"/>
<path d="M179.299 94.8594C158.76 94.8594 142.111 111.509 142.111 132.047C142.111 152.586 158.761 169.236 179.299 169.236C199.837 169.236 216.487 152.586 216.487 132.047C216.487 111.509 199.837 94.8594 179.299 94.8594V94.8594ZM179.299 106.842C193.219 106.842 204.504 118.127 204.504 132.047C204.504 145.967 193.219 157.252 179.299 157.252C165.379 157.252 154.094 145.967 154.094 132.047C154.094 118.127 165.379 106.842 179.299 106.842V106.842Z" fill="url(#paint0_linear_1271_9657)"/>
<path d="M109.678 47.987L53.8028 57.0168C52.2277 57.2713 50.8182 58.1412 49.8845 59.4349C48.9507 60.7287 48.5691 62.3404 48.8236 63.9155L57.8534 119.791C58.108 121.366 58.9778 122.775 60.2715 123.709C61.5653 124.643 63.177 125.024 64.7521 124.77L120.627 115.74C122.202 115.485 123.612 114.616 124.546 113.322C125.479 112.028 125.861 110.416 125.606 108.841L116.577 52.9662C116.322 51.3911 115.452 49.9816 114.158 49.0478C112.865 48.1141 111.253 47.7325 109.678 47.987ZM105.657 60.8248L112.768 104.821L68.7704 111.931L61.6603 67.9351L105.657 60.825L105.657 60.8248Z" fill="url(#paint1_linear_1271_9657)"/>
<path d="M99.322 144.909L75.552 212.254C74.04 216.54 77.665 220.884 82.152 220.164L149.993 209.27C154.495 208.547 156.572 203.26 153.766 199.667L109.695 143.216C106.782 139.485 100.897 140.446 99.322 144.909V144.909ZM106.982 159.213L138.08 199.046L90.21 206.731L106.982 159.213V159.213Z" fill="url(#paint2_linear_1271_9657)"/>
</g>
</svg>
