<svg xmlns="http://www.w3.org/2000/svg" width="40" height="40" fill="none" viewBox="0 0 40 40">
  <path fill="#000" d="M39.17 19.679 22.122 1.637 20.98.427A1.352 1.352 0 0 0 20 0c-.367 0-.719.154-.98.428L.83 19.678a3.003 3.003 0 0 0-.62.986A3.14 3.14 0 0 0 0 21.829c.018 1.644 1.31 2.957 2.864 2.957h1.875V40H35.26V24.785h1.915c.755 0 1.465-.313 1.999-.878.263-.278.471-.608.613-.971.141-.363.214-.753.212-1.146 0-.794-.296-1.546-.83-2.111Zm-16.7 16.957h-4.94v-9.53h4.94v9.53Zm9.615-15.215v15.215h-6.79v-10.65c0-1.033-.79-1.87-1.765-1.87h-7.06c-.975 0-1.764.837-1.764 1.87v10.65h-6.79V21.421H3.68l16.324-17.27 1.02 1.079 15.3 16.191h-4.24Z"/>
</svg>
