<svg xmlns="http://www.w3.org/2000/svg" width="27" height="27" fill="none" viewBox="0 0 27 27">
  <path stroke="#858585" stroke-linecap="round" stroke-linejoin="round" d="M25.697 11.28 14.602 1.424A1.66 1.66 0 0 0 13.499 1c-.403 0-.794.15-1.102.424L1.303 11.28a.908.908 0 0 0-.274.457.947.947 0 0 0 .023.54.9.9 0 0 0 .313.43.826.826 0 0 0 .49.162H4.79v12.42c0 .188.071.37.198.503a.66.66 0 0 0 .478.208h5.606v-4.419a2.738 2.738 0 0 1 .644-1.826 2.478 2.478 0 0 1 1.654-.872c.33-.02.659.033.969.153.31.12.592.305.832.544.24.24.43.527.56.846.13.32.197.663.197 1.01V26h5.607a.66.66 0 0 0 .478-.208.732.732 0 0 0 .198-.504V12.87h2.934a.826.826 0 0 0 .49-.163.896.896 0 0 0 .313-.43.947.947 0 0 0 .023-.54.908.908 0 0 0-.274-.457h0Z"/>
  <path stroke="#858585" stroke-linecap="round" stroke-linejoin="round" d="M13 17c1.657 0 3-1.567 3-3.5S14.657 10 13 10s-3 1.567-3 3.5 1.343 3.5 3 3.5Z"/>
</svg>
