<svg xmlns="http://www.w3.org/2000/svg" width="63" height="63" fill="none" viewBox="0 0 63 63">
  <path fill="#000" d="M55.61 19.605c0 .728-.276 1.426-.766 1.941a2.553 2.553 0 0 1-1.849.804c-.693 0-1.358-.29-1.848-.804a2.816 2.816 0 0 1-.766-1.941c0-.728.275-1.426.766-1.941a2.552 2.552 0 0 1 1.848-.804c.694 0 1.358.29 1.849.804.49.515.765 1.213.765 1.941Z"/>
  <path stroke="#000" stroke-linecap="round" stroke-width="1.5" d="M55.61 19.605V5.88c0-.485.183-.95.51-1.294.327-.343.77-.536 1.232-.536H62m-6.39 15.555c0 .728-.276 1.426-.766 1.941a2.553 2.553 0 0 1-1.849.804c-.693 0-1.358-.29-1.848-.804a2.816 2.816 0 0 1-.766-1.941c0-.728.275-1.426.766-1.941a2.552 2.552 0 0 1 1.848-.804c.694 0 1.358.29 1.849.804.49.515.765 1.213.765 1.941v0Z"/>
  <path stroke="#000" stroke-linecap="round" stroke-linejoin="round" stroke-width="1.5" d="M41.667 46.75c-1.541 0-3.019-.643-4.108-1.787a6.258 6.258 0 0 1-1.702-4.313c0-1.618.612-3.17 1.702-4.313 1.09-1.144 2.567-1.787 4.108-1.787 1.54 0 3.018.643 4.108 1.787a6.258 6.258 0 0 1 1.701 4.313c0 1.618-.612 3.17-1.701 4.313-1.09 1.144-2.568 1.787-4.108 1.787v0Z"/>
  <path stroke="#000" stroke-linecap="round" stroke-linejoin="round" stroke-width="1.5" d="M58.95 34.55C57.495 49.962 45.109 62 30.048 62 14.005 62 1 48.345 1 31.5S14.005 1 30.048 1a27.785 27.785 0 0 1 11.619 2.538"/>
  <path fill="#000" stroke="#000" stroke-linecap="round" stroke-linejoin="round" stroke-width="1.5" d="M19.881 22.35c-.385 0-.755-.16-1.027-.447a1.565 1.565 0 0 1-.425-1.078c0-.404.153-.792.425-1.078a1.418 1.418 0 0 1 1.027-.447c.385 0 .755.16 1.027.447.272.286.425.674.425 1.078 0 .405-.153.792-.425 1.078a1.418 1.418 0 0 1-1.027.447Zm20.333 0c-.385 0-.754-.16-1.027-.447a1.565 1.565 0 0 1-.425-1.078c0-.404.153-.792.425-1.078a1.418 1.418 0 0 1 1.027-.447c.386 0 .755.16 1.027.447.273.286.426.674.426 1.078 0 .405-.153.792-.426 1.078a1.418 1.418 0 0 1-1.027.447Z"/>
</svg>
