<svg width="352" height="512" viewBox="0 0 352 512" fill="none" xmlns="http://www.w3.org/2000/svg">
<path d="M176 352C229.02 352 272 309.02 272 256V96C272 42.98 229.02 0 176 0C122.98 0 80 42.98 80 96V256C80 309.02 122.98 352 176 352ZM336 192H320C311.16 192 304 199.16 304 208V256C304 330.8 239.51 390.82 163.21 383.38C96.71 376.89 48 317.11 48 250.3V208C48 199.16 40.84 192 32 192H16C7.16 192 0 199.16 0 208V248.16C0 337.8 63.97 417.71 152 429.85V464H96C87.16 464 80 471.16 80 480V496C80 504.84 87.16 512 96 512H256C264.84 512 272 504.84 272 496V480C272 471.16 264.84 464 256 464H200V430.23C285.71 418.47 352 344.9 352 256V208C352 199.16 344.84 192 336 192Z" fill="black"/>
</svg>
