<?xml version="1.0" standalone="no"?>
<!DOCTYPE svg PUBLIC "-//W3C//DTD SVG 20010904//EN"
 "http://www.w3.org/TR/2001/REC-SVG-20010904/DTD/svg10.dtd">
<svg version="1.0" xmlns="http://www.w3.org/2000/svg"
 width="512.000000pt" height="512.000000pt" viewBox="0 0 512.000000 512.000000"
 preserveAspectRatio="xMidYMid meet">

<g transform="translate(0.000000,512.000000) scale(0.100000,-0.100000)"
fill="#000000" stroke="none">
<path d="M3695 5109 c-147 -21 -332 -98 -455 -189 -36 -27 -138 -123 -226
-212 -176 -181 -232 -261 -290 -416 -48 -128 -66 -229 -67 -367 l0 -120 -56
-1 c-34 0 -75 -9 -104 -22 -60 -27 -164 -125 -188 -177 -25 -54 -24 -126 2
-177 l21 -41 -830 -831 c-800 -802 -831 -834 -866 -906 -90 -185 -83 -385 19
-555 28 -46 34 -64 26 -75 -34 -49 -74 -126 -91 -174 -88 -258 0 -555 213
-713 205 -152 447 -174 677 -62 84 41 92 49 600 554 469 466 521 515 580 543
256 119 537 20 657 -234 32 -67 37 -87 41 -174 4 -80 1 -110 -16 -166 -31
-103 -69 -153 -243 -330 -173 -175 -182 -192 -134 -239 47 -48 65 -39 233 128
167 165 206 212 252 305 40 82 60 169 60 273 0 305 -208 563 -502 623 -149 31
-277 14 -418 -55 -84 -41 -92 -49 -600 -553 -551 -548 -549 -546 -685 -581
-184 -47 -387 27 -504 183 -119 158 -126 391 -16 559 l15 22 57 -35 c165 -99
370 -106 551 -18 73 36 98 58 500 458 371 370 422 425 422 451 -1 59 -55 95
-106 69 -16 -8 -163 -149 -326 -312 l-298 -297 -300 300 -300 300 717 717 718
718 300 -300 300 -300 -302 -302 c-166 -167 -307 -315 -312 -330 -20 -53 15
-98 75 -98 24 0 81 52 339 310 l311 311 45 -20 c91 -42 190 -13 275 82 64 71
94 137 94 210 l0 57 114 0 c232 0 440 67 624 202 80 58 328 310 385 389 165
233 228 531 171 810 -108 531 -617 885 -1159 808z m363 -169 c164 -39 303
-121 428 -252 59 -62 73 -84 87 -134 64 -233 43 -480 -58 -689 -54 -110 -44
-109 -134 -22 -69 66 -86 77 -116 77 -46 0 -75 -29 -75 -75 0 -31 11 -47 85
-123 l84 -87 -112 -112 -111 -113 -93 91 c-87 86 -95 91 -125 85 -41 -8 -68
-39 -68 -78 0 -24 16 -47 81 -113 l80 -82 -53 -30 c-141 -79 -290 -117 -460
-118 l-118 0 -274 274 -275 275 -12 70 c-26 157 3 365 70 509 49 104 34 108
193 -50 157 -157 182 -171 231 -133 21 16 27 30 27 58 0 34 -11 48 -151 188
-130 130 -150 154 -141 170 6 11 56 64 112 118 l101 100 157 -157 c128 -127
162 -157 185 -157 38 0 77 41 77 81 0 27 -20 52 -146 180 l-147 148 74 36
c193 93 388 114 597 65z m-1408 -1290 c27 -8 118 -93 383 -358 192 -191 355
-359 363 -374 18 -34 18 -91 0 -127 -19 -37 -101 -111 -123 -111 -10 0 -200
182 -425 407 -297 297 -408 414 -408 430 0 31 66 102 115 124 47 22 50 22 95
9z m-1287 -2383 l131 -139 -49 -44 c-28 -24 -79 -58 -115 -76 -62 -32 -70 -33
-180 -33 -109 0 -119 2 -183 32 -263 125 -324 460 -125 679 l51 55 169 -168
c93 -92 228 -230 301 -306z"/>
<path d="M1192 4729 l-484 -160 -14 -34 c-11 -28 -14 -108 -14 -415 l0 -380
-70 0 c-126 0 -243 -53 -337 -153 -67 -71 -96 -135 -101 -220 -6 -92 12 -148
64 -206 133 -148 403 -125 569 50 130 136 151 303 54 425 l-29 37 2 389 3 388
390 130 c215 72 396 130 403 130 9 0 12 -59 12 -260 l0 -260 -57 0 c-274 -1
-505 -255 -440 -481 70 -238 429 -267 629 -50 133 144 150 312 44 438 l-25 30
-3 360 c-3 339 -4 362 -22 382 -13 14 -30 21 -55 20 -20 0 -253 -73 -519 -160z
m450 -699 c111 -31 119 -169 15 -273 -82 -82 -215 -117 -301 -79 -94 42 -101
148 -16 245 83 94 199 135 302 107z m-947 -454 c41 -17 75 -68 75 -112 0 -16
-12 -53 -26 -82 -76 -152 -298 -220 -397 -121 -27 28 -29 34 -25 89 5 68 36
121 100 173 73 59 199 83 273 53z"/>
<path d="M2058 2452 c-175 -175 -188 -190 -188 -224 0 -28 6 -42 26 -57 53
-41 64 -34 257 157 98 97 185 190 194 206 27 51 -11 106 -74 106 -22 0 -61
-34 -215 -188z"/>
<path d="M4198 2487 c-13 -13 -65 -90 -113 -171 -49 -82 -98 -152 -109 -157
-12 -5 -86 -25 -166 -44 -175 -43 -195 -51 -220 -83 -43 -54 -29 -83 132 -274
l100 -120 -12 -192 c-7 -105 -10 -204 -6 -219 8 -35 47 -60 94 -59 22 1 100
28 194 66 86 37 163 66 171 66 8 0 86 -30 172 -66 176 -73 221 -80 260 -44 35
33 38 64 21 264 l-15 179 107 129 c59 71 115 141 124 156 25 37 23 97 -2 122
-28 28 -46 34 -235 81 l-161 40 -92 154 c-51 85 -104 163 -119 174 -36 29 -93
28 -125 -2z m245 -449 c12 -9 88 -33 170 -54 81 -20 147 -38 147 -39 0 -2 -42
-54 -94 -116 -119 -142 -121 -151 -106 -333 6 -76 9 -140 6 -143 -3 -3 -62 18
-132 47 -161 66 -187 65 -359 -8 -66 -28 -120 -50 -121 -49 -1 1 3 52 8 112 5
61 8 140 6 176 -4 73 -2 71 -145 242 l-62 75 147 36 c81 20 158 45 172 55 14
10 60 77 104 149 l79 132 78 -133 c44 -72 89 -140 102 -149z"/>
</g>
</svg>
