<svg width="100" height="100" viewBox="0 0 100 100" fill="none" xmlns="http://www.w3.org/2000/svg">
<g clip-path="url(#clip0_923_5681)">
<path d="M64.6917 47.5373C60.3083 51.0456 31.6042 74.029 24.9583 79.354L13.7208 68.1165L45.6708 28.5165L64.6917 47.5373ZM86.8125 6.42481C78.25 -2.1377 64.3625 -2.1377 55.8 6.42481C50.1542 12.0748 49.675 18.2665 49.4 20.4623L72.775 43.8373C74.7917 43.6123 81.1167 43.1331 86.8125 37.4373C95.3792 28.8748 95.3792 14.9873 86.8125 6.42481ZM45.8375 81.1748C36.2875 81.1748 31.925 87.1206 25.7708 90.9873C21.4125 93.7206 17.2875 92.3331 15.3042 89.879C14.5833 88.9998 12.525 85.8331 16.0292 82.204L15.5083 81.6831L10.8167 77.1373C5.1 83.0373 6.1125 90.0873 9.65417 94.4581C13.7167 99.4748 21.8875 102.008 29.6333 97.1457C36.2375 92.9998 39.1625 88.4456 45.8375 88.4456C50.1542 88.4456 54.0875 90.379 60.3583 99.9998L66.4458 96.0331C60.6417 87.1165 54.9125 81.1748 45.8375 81.1748Z" fill="#FF8A3D"/>
</g>
<defs>
<clipPath id="clip0_923_5681">
<rect width="100" height="100" fill="white"/>
</clipPath>
</defs>
</svg>
