<svg xmlns="http://www.w3.org/2000/svg" width="70" height="71" fill="none" viewBox="0 0 70 71">
  <ellipse cx="34.923" cy="35.579" fill="#DED9D9" fill-opacity=".24" rx="34.327" ry="34.762"/>
  <path fill="#000" d="M33.978 12.5C48.694 22.15 56 29.14 56 34.207c0 4.902-2.791 8.87-8.157 11.772-1.484.805-3.138-.762-2.332-2.208 1.386-2.49.93-5.28-1.569-8.599-2.635-3.499-6.434-6.045-11.455-7.648a1.7 1.7 0 0 1-.846-.598 1.605 1.605 0 0 1-.322-.963V13.858a1.6 1.6 0 0 1 .245-.847 1.68 1.68 0 0 1 .662-.604 1.753 1.753 0 0 1 1.752.094Zm-6.914 52.741C21.038 65.241 16 61.486 16 56.617c0-4.87 5.038-8.625 11.064-8.625 6.025 0 11.064 3.755 11.064 8.625 0 4.869-5.039 8.624-11.064 8.624Z"/>
  <path fill="#000" d="M34.723 20.064c.903 0 1.77.347 2.407.963.639.616.998 1.452.998 2.323v32.856a3.23 3.23 0 0 1-.998 2.323 3.468 3.468 0 0 1-2.407.963 3.468 3.468 0 0 1-2.407-.962 3.229 3.229 0 0 1-.997-2.324V23.35c0-.871.359-1.707.997-2.323a3.467 3.467 0 0 1 2.407-.963Z"/>
</svg>
