<svg xmlns="http://www.w3.org/2000/svg" width="69" height="70" fill="none" viewBox="0 0 69 70">
  <path fill="#222" d="M30.61 18.166a.813.813 0 0 0-1.24.102 14.61 14.61 0 0 0-2.62 8.352c-.005.522.023 1.045.08 1.564l-15.2 20.728a3.251 3.251 0 0 0 .326 4.226l2.906 2.906a3.25 3.25 0 0 0 4.226.325l20.727-15.2c.52.059 1.043.086 1.565.082a14.61 14.61 0 0 0 8.352-2.622.813.813 0 0 0 .102-1.24L30.61 18.167Zm-.264 21.805-4.064 4.064a1.666 1.666 0 0 1-2.317 0 1.646 1.646 0 0 1 0-2.317l4.064-4.064a1.647 1.647 0 0 1 2.317 2.317Zm23.044-5a.813.813 0 0 1-1.24.102L32.927 15.85a.814.814 0 0 1 .101-1.24A14.63 14.63 0 0 1 53.39 34.972Z"/>
  <ellipse cx="34.327" cy="34.762" fill="#DED9D9" fill-opacity=".24" rx="34.327" ry="34.762"/>
</svg>
