<svg width="100" height="100" viewBox="0 0 100 100" fill="none" xmlns="http://www.w3.org/2000/svg">
<path d="M54.1667 33.3333H20.8333V25H54.1667V33.3333ZM54.1667 50H20.8333V41.6667H54.1667V50ZM88.2167 100L57.4375 69.2208C51.6542 72.8625 44.8375 75 37.5 75C16.7875 75 0 58.2125 0 37.5C0 16.7875 16.7875 0 37.5 0C58.2125 0 75 16.7875 75 37.5C75 44.8375 72.8583 51.6583 69.2208 57.4375L100 88.2167L88.2167 100ZM37.5 66.6667C53.5792 66.6667 66.6667 53.5833 66.6667 37.5C66.6667 21.4167 53.5792 8.33333 37.5 8.33333C21.4208 8.33333 8.33333 21.4167 8.33333 37.5C8.33333 53.5833 21.4208 66.6667 37.5 66.6667Z" fill="#FF8A3D"/>
</svg>
