<?xml version="1.0" standalone="no"?>
<!DOCTYPE svg PUBLIC "-//W3C//DTD SVG 20010904//EN"
 "http://www.w3.org/TR/2001/REC-SVG-20010904/DTD/svg10.dtd">
<svg version="1.0" xmlns="http://www.w3.org/2000/svg"
 width="512.000000pt" height="512.000000pt" viewBox="0 0 512.000000 512.000000"
 preserveAspectRatio="xMidYMid meet">

<g transform="translate(0.000000,512.000000) scale(0.100000,-0.100000)"
fill="#000000" stroke="none">
<path d="M1140 5113 c-277 -46 -455 -318 -385 -588 61 -233 287 -382 526 -347
43 6 104 23 134 38 70 32 168 122 204 186 l28 49 6 -54 c7 -69 35 -123 86
-170 62 -56 103 -69 192 -65 114 7 124 17 188 188 60 160 59 168 -8 243 -105
117 -283 118 -388 4 l-39 -42 0 85 c1 181 -100 347 -257 426 -81 42 -202 61
-287 47z"/>
<path d="M4185 4869 c-346 -79 -393 -92 -412 -115 -23 -25 -23 -28 -23 -318
l0 -294 -92 -4 c-104 -5 -157 -25 -201 -78 -107 -126 10 -280 211 -280 105 1
182 43 223 122 17 34 19 61 19 308 0 218 3 272 14 276 7 3 137 33 290 68 l276
62 0 -153 0 -153 -74 0 c-83 0 -125 -12 -178 -49 -89 -63 -101 -159 -30 -234
53 -56 97 -72 202 -72 86 0 99 3 143 28 26 15 60 47 75 69 l27 42 3 402 3 402
-23 25 c-13 14 -32 28 -43 30 -11 3 -195 -35 -410 -84z"/>
<path d="M2486 4590 c-41 -13 -90 -48 -114 -84 -11 -17 -79 -188 -151 -381
-71 -192 -132 -357 -136 -366 -5 -13 -49 -6 -330 59 -179 42 -324 77 -322 78
1 1 108 -2 237 -6 129 -4 237 -6 239 -4 7 7 -41 74 -76 105 -51 44 -116 71
-187 76 -49 4 -123 -9 -370 -61 -171 -37 -330 -76 -355 -88 -61 -30 -118 -89
-149 -157 -46 -99 -44 -113 137 -966 l164 -770 -22 -378 -22 -377 -271 -452
c-149 -248 -277 -467 -284 -487 -60 -167 83 -348 258 -328 63 8 115 33 156 77
33 36 591 953 617 1015 20 49 23 80 45 480 11 198 22 387 26 421 l5 61 97 21
c53 11 100 18 104 14 4 -4 67 -154 141 -333 l135 -326 9 -624 c8 -608 9 -625
30 -664 29 -56 69 -94 128 -121 61 -29 118 -30 188 -4 62 23 108 67 136 130
20 43 21 63 20 455 -1 226 -4 529 -8 675 l-6 265 -143 345 -142 346 -90 429
c-50 237 -94 439 -99 450 -6 15 -115 68 -374 185 -201 91 -364 166 -363 168 2
1 189 -40 415 -93 227 -52 435 -95 462 -95 73 0 151 46 184 110 7 14 90 233
184 487 135 364 171 472 171 510 -1 142 -138 243 -274 203z"/>
<path d="M2910 4248 c-7 -24 -45 -132 -86 -241 l-74 -199 261 -1521 c143 -836
265 -1529 270 -1538 38 -71 150 -59 180 18 7 19 -57 414 -266 1632 -151 884
-275 1610 -275 1614 0 4 7 7 16 7 24 0 72 38 89 70 34 66 6 153 -59 184 -19 9
-36 16 -38 16 -3 0 -11 -19 -18 -42z"/>
</g>
</svg>
