<svg width="375" height="812" viewBox="0 0 375 812" fill="none" xmlns="http://www.w3.org/2000/svg">
<g clip-path="url(#clip0_216_579)">
<rect width="375" height="812" fill="#111111"/>
<path d="M0 319.722L375 -10V275.279L0 605V319.722Z" fill="url(#paint0_linear_216_579)"/>
<g opacity="0.45">
<circle cx="150.761" cy="203.088" r="4.97506" transform="rotate(-13.7903 150.761 203.088)" stroke="#FF8A3D" stroke-width="3.31671" stroke-linecap="round" stroke-linejoin="round"/>
<path d="M155.593 201.902L150.454 180.965" stroke="#FF8A3D" stroke-width="3.31671" stroke-linecap="round" stroke-linejoin="round"/>
<path d="M168.99 173L150.454 180.965" stroke="#FF8A3D" stroke-width="3.31671" stroke-linecap="round"/>
<path d="M170.571 179.442L152.035 187.407" stroke="#FF8A3D" stroke-width="3.31671" stroke-linecap="round"/>
<circle cx="169.298" cy="195.123" r="4.97506" transform="rotate(-13.7903 169.298 195.123)" stroke="#FF8A3D" stroke-width="3.31671" stroke-linecap="round" stroke-linejoin="round"/>
<path d="M174.129 193.937L168.99 173" stroke="#FF8A3D" stroke-width="3.31671" stroke-linecap="round" stroke-linejoin="round"/>
</g>
<g opacity="0.3">
<circle cx="299.965" cy="107.357" r="4.97506" transform="rotate(12.977 299.965 107.357)" stroke="#FF8A3D" stroke-width="3.31671" stroke-linecap="round" stroke-linejoin="round"/>
<path d="M304.813 108.474L309.655 87.4664" stroke="#FF8A3D" stroke-width="3.31671" stroke-linecap="round" stroke-linejoin="round"/>
<path d="M329.792 88.7034L309.655 87.4666" stroke="#FF8A3D" stroke-width="3.31671" stroke-linecap="round"/>
<path d="M328.302 95.1673L308.165 93.9305" stroke="#FF8A3D" stroke-width="3.31671" stroke-linecap="round"/>
<circle cx="320.102" cy="108.594" r="4.97506" transform="rotate(12.977 320.102 108.594)" stroke="#FF8A3D" stroke-width="3.31671" stroke-linecap="round" stroke-linejoin="round"/>
<path d="M324.95 109.711L329.792 88.7032" stroke="#FF8A3D" stroke-width="3.31671" stroke-linecap="round" stroke-linejoin="round"/>
</g>
<g opacity="0.4">
<circle cx="116.794" cy="272.544" r="4.16778" transform="rotate(34.4337 116.794 272.544)" stroke="#FF8A3D" stroke-width="2.77852" stroke-linecap="round" stroke-linejoin="round"/>
<path d="M120.232 274.901L132.015 257.713" stroke="#FF8A3D" stroke-width="2.77852" stroke-linecap="round" stroke-linejoin="round"/>
<path d="M132.015 257.713L138.105 263.573L134.963 268.156L128.873 262.297L132.015 257.713Z" stroke="#FF8A3D" stroke-width="2.77852" stroke-linecap="round" stroke-linejoin="round"/>
</g>
<g opacity="0.4">
<circle cx="248.176" cy="162.674" r="4.54288" transform="rotate(6.45376 248.176 162.674)" stroke="#FF8A3D" stroke-width="3" stroke-linecap="round" stroke-linejoin="round"/>
<path d="M252.691 163.185L255.244 140.614" stroke="#FF8A3D" stroke-width="3" stroke-linecap="round" stroke-linejoin="round"/>
<path d="M255.244 140.614L264.102 143.14L263.421 149.159L254.563 146.633L255.244 140.614Z" stroke="#FF8A3D" stroke-width="3" stroke-linecap="round" stroke-linejoin="round"/>
</g>
<g opacity="0.4">
<circle cx="326.793" cy="44.9298" r="3.41801" transform="rotate(-31.2721 326.793 44.9298)" stroke="#FF8A3D" stroke-width="2.77852" stroke-linecap="round" stroke-linejoin="round"/>
<path d="M329.714 43.1555L320.843 28.5485" stroke="#FF8A3D" stroke-width="2.77852" stroke-linecap="round" stroke-linejoin="round"/>
<path d="M320.843 28.5485L327.277 25.9737L329.643 29.8689L323.209 32.4437L320.843 28.5485Z" stroke="#FF8A3D" stroke-width="2.77852" stroke-linecap="round" stroke-linejoin="round"/>
</g>
<g opacity="0.4">
<circle cx="366.826" cy="142.678" r="2.93248" transform="rotate(22.3121 366.826 142.678)" stroke="#FF8A3D" stroke-width="2.38383" stroke-linecap="round" stroke-linejoin="round"/>
<path d="M369.539 143.791L375.106 130.227" stroke="#FF8A3D" stroke-width="2.38383" stroke-linecap="round" stroke-linejoin="round"/>
<path d="M375.106 130.227L380.161 133.358L378.676 136.975L373.622 133.844L375.106 130.227Z" stroke="#FF8A3D" stroke-width="2.38383" stroke-linecap="round" stroke-linejoin="round"/>
</g>
<path d="M130.99 690.797H127.299V675.035H130.99V690.797ZM108.842 676.529H111.889V680.25H113.617V676.529H116.635V689.596H108.842V676.529ZM111.596 691.939H130.932V701.695H127.211V694.928H111.596V691.939ZM113.617 686.695V683.121H111.889V686.695H113.617ZM117.924 676.529H120.971V680.25H122.611V676.529H125.688V689.596H117.924V676.529ZM122.611 686.695V683.121H120.971V686.695H122.611ZM143.793 681.07C143.783 682.701 144.013 684.283 144.481 685.816C144.95 687.34 145.658 688.707 146.605 689.918C147.553 691.129 148.715 692.066 150.092 692.73L147.836 695.719C146.449 695.025 145.263 694.059 144.276 692.818C143.29 691.568 142.514 690.113 141.947 688.453C141.342 690.24 140.517 691.803 139.472 693.141C138.427 694.469 137.172 695.494 135.707 696.217L133.393 693.199C134.848 692.535 136.073 691.573 137.069 690.313C138.065 689.044 138.808 687.613 139.296 686.021C139.794 684.42 140.043 682.77 140.043 681.07V677.086H143.793V681.07ZM151.264 675.035H155.014V685.318H158.939V688.482H155.014V701.695H151.264V675.035ZM182.26 701.754H178.539V675.035H182.26V701.754ZM161.312 677.262H173.998V687.545H165.209V692.438C167.357 692.418 169.33 692.345 171.127 692.218C172.924 692.091 174.76 691.871 176.635 691.559L176.957 694.576C174.906 694.938 172.86 695.187 170.819 695.323C168.778 695.45 166.42 695.514 163.744 695.514H161.342V684.586H170.189V680.279H161.312V677.262ZM213.9 680.016H217.504V683.092H213.9V688.219H210.15V675.035H213.9V680.016ZM193.832 676.207H197.582V684.366C201.107 684.317 204.555 683.971 207.924 683.326L208.363 686.373C206.312 686.783 204.281 687.071 202.27 687.237C200.258 687.394 198.207 687.467 196.117 687.457H193.832V676.207ZM196.205 689.303H213.9V696.656H199.984V698.414H214.662V701.402H196.264V693.844H210.121V692.232H196.205V689.303ZM240.033 685.494H243.578V688.57H240.033V701.695H236.283V675.035H240.033V685.494ZM218.148 693.961C219.33 692.682 220.268 691.373 220.961 690.035C221.654 688.697 222.157 687.296 222.47 685.831C222.792 684.356 222.992 682.682 223.07 680.807H219.32V677.76H226.645C226.635 680.484 226.488 682.867 226.205 684.908C225.922 686.939 225.375 688.883 224.564 690.738C223.764 692.594 222.602 694.361 221.078 696.041L218.148 693.961ZM225.678 695.689C226.85 694.254 227.772 692.77 228.446 691.236C229.13 689.703 229.623 688.106 229.926 686.446C230.238 684.776 230.429 682.896 230.497 680.807H227.523V677.76H234.027C234.018 680.65 233.881 683.209 233.617 685.436C233.363 687.652 232.841 689.806 232.05 691.896C231.269 693.976 230.131 695.934 228.637 697.77L225.678 695.689ZM249.584 680.484H255.707V677.145H259.457V689.42H254.564V693.463C256.869 693.346 258.891 693.17 260.629 692.936L260.893 695.66C259.174 695.963 257.387 696.192 255.531 696.349C253.676 696.495 251.952 696.588 250.36 696.627C248.778 696.656 246.918 696.676 244.779 696.686L244.281 693.639C247.084 693.639 249.271 693.624 250.844 693.595V689.42H245.922V677.145H249.584V680.484ZM255.707 686.49V683.326H249.584V686.49H255.707ZM262.035 675.035H265.785V685.699H269.418V688.805H265.785V701.695H262.035V675.035ZM81.0244 715.588C81.0244 717.893 80.5508 719.968 79.6035 721.813C78.6562 723.649 77.2695 725.222 75.4434 726.53C73.627 727.829 71.415 728.84 68.8076 729.562L67.3428 726.662C70.2041 725.891 72.4551 724.807 74.0957 723.41C75.7363 722.014 76.7129 720.402 77.0254 718.576H68.7783V715.588H81.0244ZM71.2979 730.588H89.6084V740.637H85.8877V733.576H71.2979V730.588ZM81.2881 720.51H85.8877V714.064H89.6084V729.533H85.8877V723.586H81.2881V720.51ZM115.536 729.855H111.815V723.557H107.655V720.539H111.815V714.035H115.536V729.855ZM92.8896 726.926C94.2861 726.457 95.4629 725.788 96.4199 724.919C97.377 724.05 98.0947 723.073 98.5732 721.989C99.0518 720.905 99.3057 719.787 99.335 718.635H93.9736V715.646H108.446V718.635H103.144C103.173 719.709 103.412 720.744 103.861 721.74C104.311 722.727 104.989 723.615 105.897 724.406C106.815 725.197 107.938 725.812 109.267 726.252L107.421 729.182C105.995 728.723 104.765 728.039 103.729 727.131C102.704 726.213 101.894 725.139 101.298 723.908C100.692 725.305 99.8477 726.521 98.7637 727.556C97.6797 728.581 96.3662 729.357 94.8232 729.885L92.8896 726.926ZM97.2549 735.598C97.2549 734.533 97.6211 733.615 98.3535 732.844C99.0957 732.062 100.155 731.467 101.532 731.057C102.909 730.646 104.54 730.441 106.425 730.441C108.319 730.441 109.955 730.646 111.332 731.057C112.709 731.467 113.769 732.058 114.511 732.829C115.253 733.601 115.624 734.523 115.624 735.598C115.624 736.672 115.253 737.59 114.511 738.352C113.769 739.123 112.709 739.709 111.332 740.109C109.955 740.52 108.319 740.725 106.425 740.725C104.54 740.725 102.909 740.52 101.532 740.109C100.155 739.709 99.0957 739.123 98.3535 738.352C97.6211 737.58 97.2549 736.662 97.2549 735.598ZM100.976 735.598C100.976 736.35 101.439 736.921 102.367 737.312C103.295 737.692 104.647 737.883 106.425 737.883C108.212 737.883 109.569 737.692 110.497 737.312C111.425 736.931 111.894 736.359 111.903 735.598C111.894 734.846 111.43 734.279 110.512 733.898C109.604 733.508 108.275 733.312 106.527 733.312C102.826 733.312 100.976 734.074 100.976 735.598ZM131.854 721.066H118.964V718.107H123.593V714.768H127.284V718.107H131.854V721.066ZM119.579 728.596C119.579 727.375 119.833 726.286 120.341 725.329C120.849 724.372 121.547 723.625 122.436 723.088C123.334 722.541 124.345 722.268 125.468 722.268C126.591 722.268 127.597 722.541 128.485 723.088C129.374 723.625 130.067 724.372 130.565 725.329C131.073 726.286 131.327 727.375 131.327 728.596C131.327 729.816 131.073 730.91 130.565 731.877C130.067 732.844 129.374 733.601 128.485 734.147C127.597 734.685 126.591 734.953 125.468 734.953C124.345 734.953 123.334 734.685 122.436 734.147C121.547 733.601 120.849 732.844 120.341 731.877C119.833 730.91 119.579 729.816 119.579 728.596ZM122.86 728.596C122.86 729.602 123.095 730.388 123.563 730.954C124.042 731.511 124.677 731.789 125.468 731.789C126.229 731.789 126.845 731.506 127.313 730.939C127.792 730.373 128.036 729.592 128.046 728.596C128.046 727.941 127.934 727.37 127.709 726.882C127.484 726.394 127.177 726.022 126.786 725.769C126.405 725.505 125.966 725.373 125.468 725.373C124.687 725.373 124.057 725.661 123.578 726.237C123.1 726.813 122.86 727.6 122.86 728.596ZM132.851 714.562H136.337V724.875H138.505V714.035H142.05V740.695H138.505V727.863H136.337V739.553H132.851V714.562ZM158.632 717.668H169.325V715.002H173.046V725.9H165.839V728.156H176.151V731.145H151.835V728.156H162.089V725.9H154.94V715.002H158.632V717.668ZM154.765 732.668H158.515V737.238H173.397V740.227H154.765V732.668ZM169.325 722.912V720.539H158.632V722.912H169.325ZM200.058 718.488H194.755C194.765 719.572 194.989 720.622 195.429 721.638C195.878 722.644 196.562 723.552 197.479 724.362C198.397 725.173 199.53 725.803 200.878 726.252L199.032 729.123C197.606 728.674 196.376 728 195.341 727.102C194.306 726.193 193.49 725.119 192.895 723.879C192.279 725.256 191.43 726.447 190.346 727.453C189.262 728.449 187.958 729.191 186.435 729.68L184.53 726.721C185.937 726.271 187.118 725.617 188.075 724.758C189.032 723.898 189.745 722.927 190.214 721.843C190.692 720.749 190.937 719.631 190.946 718.488H185.585V715.529H200.058V718.488ZM188.837 731.086H207.147V740.695H203.427V734.074H188.837V731.086ZM199.296 720.451H203.427V714.035H207.147V729.914H203.427V723.498H199.296V720.451ZM227.216 731.145C227.216 732.277 227.47 733.356 227.978 734.382C228.485 735.407 229.252 736.271 230.277 736.975C231.332 736.232 232.123 735.339 232.65 734.294C233.188 733.249 233.456 732.199 233.456 731.145V730.236H237.147V731.145C237.128 732.619 237.533 733.933 238.363 735.085C239.193 736.228 240.458 737.062 242.157 737.59L240.341 740.314C239.101 739.895 238.051 739.294 237.191 738.513C236.342 737.741 235.678 736.823 235.199 735.759C234.74 736.843 234.105 737.8 233.295 738.63C232.494 739.46 231.522 740.1 230.38 740.549C229.179 740.109 228.168 739.484 227.348 738.674C226.527 737.873 225.893 736.936 225.443 735.861C224.955 736.887 224.291 737.78 223.451 738.542C222.611 739.304 221.601 739.895 220.419 740.314L218.573 737.59C219.696 737.209 220.629 736.682 221.371 736.008C222.123 735.334 222.675 734.582 223.026 733.752C223.388 732.912 223.573 732.043 223.583 731.145V730.236H227.216V731.145ZM217.929 721.828C217.929 720.588 218.246 719.484 218.881 718.518C219.516 717.541 220.385 716.779 221.488 716.232C222.602 715.686 223.847 715.412 225.224 715.412C226.591 715.412 227.826 715.686 228.93 716.232C230.043 716.779 230.917 717.541 231.552 718.518C232.196 719.484 232.519 720.588 232.519 721.828C232.519 723.049 232.196 724.143 231.552 725.109C230.917 726.076 230.043 726.833 228.93 727.38C227.826 727.917 226.591 728.186 225.224 728.186C223.856 728.186 222.616 727.917 221.503 727.38C220.39 726.833 219.516 726.076 218.881 725.109C218.246 724.143 217.929 723.049 217.929 721.828ZM221.591 721.828C221.581 722.482 221.728 723.059 222.03 723.557C222.343 724.045 222.772 724.421 223.319 724.685C223.876 724.948 224.511 725.08 225.224 725.08C225.917 725.08 226.532 724.948 227.069 724.685C227.616 724.421 228.046 724.045 228.358 723.557C228.671 723.059 228.827 722.482 228.827 721.828C228.827 721.154 228.671 720.573 228.358 720.085C228.046 719.587 227.616 719.206 227.069 718.942C226.532 718.679 225.917 718.547 225.224 718.547C224.511 718.547 223.876 718.679 223.319 718.942C222.772 719.206 222.343 719.587 222.03 720.085C221.728 720.573 221.581 721.154 221.591 721.828ZM236.093 714.064H239.843V729.123H236.093V714.064ZM268.261 727.189H264.481V740.637H260.731V714.035H264.481V724.143H268.261V727.189ZM244.296 716.584H248.017V731.042C251.796 730.974 255.438 730.588 258.944 729.885L259.325 732.99C257.245 733.41 255.155 733.708 253.056 733.884C250.956 734.05 248.808 734.133 246.61 734.133H244.296V716.584ZM293.778 737.59H269.374V734.514H274.823V727.98C273.769 727.346 272.953 726.564 272.377 725.637C271.801 724.699 271.513 723.654 271.513 722.502C271.513 721.086 271.942 719.836 272.802 718.752C273.661 717.668 274.848 716.828 276.361 716.232C277.885 715.627 279.608 715.324 281.532 715.324C283.446 715.324 285.165 715.627 286.688 716.232C288.212 716.828 289.408 717.668 290.277 718.752C291.146 719.836 291.581 721.086 291.581 722.502C291.571 723.635 291.288 724.66 290.731 725.578C290.175 726.496 289.384 727.272 288.358 727.907V734.514H293.778V737.59ZM275.204 722.502C275.204 723.361 275.463 724.108 275.98 724.743C276.508 725.378 277.245 725.866 278.192 726.208C279.149 726.55 280.263 726.721 281.532 726.721C282.782 726.721 283.886 726.55 284.843 726.208C285.8 725.866 286.547 725.378 287.084 724.743C287.621 724.108 287.89 723.361 287.89 722.502C287.89 721.623 287.621 720.866 287.084 720.231C286.557 719.597 285.814 719.113 284.857 718.781C283.9 718.439 282.792 718.273 281.532 718.283C280.263 718.283 279.149 718.449 278.192 718.781C277.245 719.113 276.508 719.597 275.98 720.231C275.463 720.866 275.204 721.623 275.204 722.502ZM284.579 734.514V729.328C283.603 729.523 282.587 729.621 281.532 729.621C280.507 729.621 279.501 729.528 278.515 729.343V734.514H284.579ZM299.96 731.32C299.96 730.148 300.062 729.201 300.268 728.479C300.482 727.746 300.78 727.165 301.161 726.735C301.542 726.296 302.06 725.871 302.714 725.461C303.427 724.992 303.979 724.519 304.369 724.04C304.76 723.562 304.95 723.01 304.94 722.385C304.94 721.906 304.828 721.486 304.604 721.125C304.379 720.754 304.071 720.471 303.681 720.275C303.3 720.07 302.87 719.963 302.392 719.953C301.923 719.963 301.488 720.07 301.088 720.275C300.688 720.48 300.36 720.783 300.106 721.184C299.853 721.574 299.716 722.043 299.696 722.59H295.536C295.556 721.262 295.873 720.144 296.488 719.235C297.104 718.317 297.924 717.634 298.949 717.185C299.984 716.726 301.142 716.496 302.421 716.496C303.788 716.496 304.994 716.726 306.039 717.185C307.094 717.644 307.914 718.308 308.5 719.177C309.096 720.036 309.394 721.057 309.394 722.238C309.394 723.391 309.12 724.377 308.573 725.197C308.036 726.008 307.255 726.721 306.229 727.336C305.653 727.678 305.194 728.024 304.853 728.376C304.511 728.728 304.252 729.138 304.076 729.606C303.91 730.075 303.827 730.646 303.827 731.32V731.643H299.96V731.32ZM299.521 735.803C299.511 735.363 299.613 734.958 299.828 734.587C300.053 734.206 300.355 733.908 300.736 733.693C301.117 733.479 301.532 733.371 301.981 733.371C302.411 733.371 302.812 733.479 303.183 733.693C303.554 733.908 303.852 734.206 304.076 734.587C304.301 734.958 304.413 735.363 304.413 735.803C304.413 736.252 304.301 736.667 304.076 737.048C303.852 737.419 303.554 737.717 303.183 737.941C302.812 738.156 302.411 738.264 301.981 738.264C301.532 738.264 301.117 738.156 300.736 737.941C300.355 737.717 300.053 737.419 299.828 737.048C299.613 736.667 299.511 736.252 299.521 735.803Z" fill="#EDEDED"/>
<path d="M134.347 339.859C132.492 339.859 130.655 340.224 128.942 340.935C127.228 341.645 125.671 342.686 124.359 343.999C123.047 345.311 122.007 346.869 121.297 348.584C120.587 350.299 120.222 352.137 120.222 353.993L113 420.5L103 404.5L90 482L77 381.5L63.5 457L38.5 303L14.7895 512.5L-5.99994 418.5" stroke="#FF8A3D" stroke-width="6.81664" stroke-linecap="round" stroke-linejoin="round"/>
<path d="M138.596 354.39C137.404 349.793 138.099 343.026 138.596 340.217C152.111 310.822 172.771 335.12 181.412 350.942C195.559 350.176 197.421 358.221 199.283 355.539C200.772 353.394 204.619 352.092 206.356 351.709C205.984 350.176 204.495 347.878 207.473 340.983C210.452 334.088 215.292 337.535 216.037 338.301C216.781 339.067 214.92 342.132 216.037 346.729C217.153 351.325 219.015 354.39 218.27 357.455C217.526 360.519 209.335 365.499 207.473 369.33C205.612 373.16 200.772 375.075 195.187 375.075C190.719 375.075 180.419 379.672 175.827 381.971C174.834 383.248 172.178 388.176 169.498 397.676C166.147 409.551 160.562 436.366 161.307 456.668C161.645 465.883 163.057 472.494 164.324 479.652C169.908 479.652 181.412 458.584 197.049 453.221C212.686 447.858 232.418 490.761 222.366 502.253C214.324 511.446 180.295 536.473 164.285 547.838C161.183 548.859 153.042 551.055 145.298 551.668C135.618 552.434 131.15 557.414 119.98 540.559C108.811 523.705 119.236 449.773 124.076 432.535C128.916 415.297 133.011 383.12 133.011 379.672C133.011 376.225 135.245 373.926 136.362 371.628C137.479 369.33 140.085 360.136 138.596 354.39Z" fill="#FDEAC7"/>
<path d="M164.324 479.652C169.908 479.652 181.412 458.584 197.049 453.221C212.686 447.858 232.418 490.761 222.366 502.253C214.324 511.446 180.295 536.473 164.285 547.838C161.183 548.859 153.042 551.055 145.298 551.668C135.618 552.434 131.15 557.414 119.98 540.559C108.811 523.705 119.236 449.773 124.076 432.535C128.916 415.297 133.011 383.12 133.011 379.672C133.011 376.225 135.245 373.926 136.362 371.628C137.479 369.33 140.085 360.136 138.596 354.39C137.404 349.793 138.099 343.026 138.596 340.217C152.111 310.822 172.771 335.12 181.412 350.942C195.559 350.176 197.421 358.221 199.283 355.539C200.772 353.394 204.619 352.092 206.356 351.709C205.984 350.176 204.495 347.878 207.473 340.983C210.452 334.088 215.292 337.535 216.037 338.301C216.781 339.067 214.92 342.132 216.037 346.729C217.153 351.325 219.015 354.39 218.27 357.455C217.526 360.519 209.335 365.499 207.473 369.33C205.612 373.16 200.772 375.075 195.187 375.075C190.719 375.075 180.419 379.672 175.827 381.971C174.834 383.248 172.178 388.176 169.498 397.676C166.147 409.551 160.562 436.366 161.307 456.668C162.052 476.971 168.009 484.632 166.147 513.362" stroke="#8C3800" stroke-width="1.5" stroke-linecap="round" stroke-linejoin="round"/>
<path d="M273.744 332.514C267.73 326.633 262.599 330.607 259.456 333.154C264.437 335.366 274.469 343.01 274.747 355.881C277.89 351.78 283.238 341.796 273.744 332.514Z" fill="#5A1818" stroke="#8C3800" stroke-width="1.5" stroke-linecap="round" stroke-linejoin="round"/>
<path d="M298.176 375.811C294.081 378.109 289.985 375.811 288.869 375.044C285.766 378.109 276.582 383.932 264.668 382.706C249.776 381.173 233.394 381.173 219.619 406.073C208.599 425.992 191.448 448.082 184.25 456.637V460.468C199.887 465.575 230.757 482.226 221.524 507.968C212.29 533.71 239 591 226.708 626H374.5V361.637C371.894 368.149 335.78 383.089 322.004 384.238C310.984 385.157 303.265 378.131 300.783 374.503C299.73 375.009 298.837 375.44 298.176 375.811Z" fill="#FF8A3D" stroke="#8C3800" stroke-width="1.5" stroke-linecap="round" stroke-linejoin="round"/>
<path d="M243.819 306.476C244.564 301.496 244.192 299.347 240.469 298.198C238.292 297.526 235.982 291.356 234.412 285.94C233.834 283.946 233.356 282.054 233.022 280.577C257.223 259.125 283.433 267.629 295.943 266.403C290.979 264.871 284.401 262.573 279.561 246.101C288.745 254.018 298.177 262.956 308.229 269.851C312.022 272.453 313.316 277.88 313.685 281.593C313.343 274.563 313.02 263.379 313.814 260.657C316.42 256.061 319.398 254.145 320.888 254.145C322.377 254.145 336.897 249.166 338.014 266.403C338.126 268.139 338.197 269.798 338.225 271.383C343.243 287.983 351.268 324.859 343.226 339.569C347.681 335.352 356.601 327.91 364.916 323.48C365.629 328.843 368.469 340.565 374.128 344.549H374.5V361.403C371.894 367.916 335.78 382.855 322.005 384.004C310.984 384.924 303.265 377.897 300.783 374.269C299.731 374.775 298.837 375.206 298.177 375.577C294.081 377.875 289.986 375.577 288.869 374.811C287.752 374.045 285.518 368.682 284.401 366.766C283.508 365.234 278.568 362.553 276.21 361.403H273.232C271.743 361.403 272.487 358.339 273.232 357.956C273.977 357.573 286.122 344.549 273.977 332.674C268.051 326.88 262.983 330.652 259.829 333.2C258.697 334.114 257.812 334.871 257.223 334.972C255.436 335.278 253.996 333.823 254.244 332.674C254.616 329.098 253.648 322.867 249.776 323.48C244.936 324.246 242.18 321.538 241.586 320.032C240.469 317.202 243.586 308.037 243.819 306.476Z" fill="url(#paint1_linear_216_579)"/>
<path d="M328.706 320.032C330.195 326.545 326.248 348.376 319.771 357.956C313.814 366.766 306.254 371.636 300.783 374.269M327.589 300.113C335.29 293.912 338.474 285.543 338.225 271.383M338.225 271.383C338.197 269.798 338.126 268.139 338.014 266.403C336.897 249.166 322.377 254.145 320.888 254.145C319.398 254.145 316.42 256.061 313.814 260.657C312.92 263.722 313.441 277.512 313.814 284.024C313.814 280.832 312.99 273.116 308.229 269.851C298.177 262.956 288.745 254.018 279.561 246.101C284.401 262.573 290.979 264.871 295.943 266.403C283.433 267.629 257.223 259.125 233.022 280.577C233.356 282.054 233.834 283.946 234.412 285.94C235.982 291.356 238.292 297.526 240.469 298.198C244.192 299.347 244.564 301.496 243.819 306.476C243.586 308.037 240.469 317.202 241.586 320.032C242.18 321.538 244.936 324.246 249.776 323.48C253.648 322.867 254.616 329.098 254.244 332.674C253.996 333.823 255.436 335.278 257.223 334.972C257.812 334.871 258.697 334.114 259.829 333.2C262.983 330.652 268.051 326.88 273.977 332.674C286.122 344.549 273.977 357.573 273.232 357.956C272.487 358.339 271.743 361.403 273.232 361.403C274.423 361.403 275.714 361.403 276.21 361.403C278.568 362.553 283.508 365.234 284.401 366.766C285.518 368.682 287.752 374.045 288.869 374.811C289.986 375.577 294.081 377.875 298.177 375.577C298.837 375.206 299.731 374.775 300.783 374.269M338.225 271.383C343.243 287.983 351.268 324.859 343.226 339.569C347.681 335.352 356.601 327.91 364.916 323.48C365.629 328.843 368.469 340.565 374.128 344.549H374.5V361.403C371.894 367.916 335.78 382.855 322.005 384.004C310.984 384.924 303.265 377.897 300.783 374.269" stroke="#8C3800" stroke-width="1.5" stroke-linecap="round" stroke-linejoin="round"/>
<path d="M296.128 266.404C283.618 267.629 257.407 259.125 233.207 280.577C233.541 282.054 234.019 283.946 234.597 285.94C225.943 283.386 212.06 271.154 225.761 242.654C239.462 214.154 254.801 201.921 260.758 199.367C262.247 198.729 265.598 197.069 267.087 195.537C268.949 193.621 303.574 164.508 332.614 183.279C342.666 178.937 365.079 174.698 374.313 192.472V320.033C371.54 320.465 368.367 321.74 365.101 323.48C356.786 327.91 347.866 335.352 343.411 339.569C351.453 324.859 343.428 287.983 338.41 271.383C338.382 269.798 338.311 268.139 338.198 266.404C337.082 249.166 322.561 254.145 321.072 254.145C319.583 254.145 316.605 256.061 313.998 260.658C313.205 263.379 313.527 274.563 313.87 281.593C313.964 282.54 313.998 283.376 313.998 284.025C313.957 283.297 313.913 282.478 313.87 281.593C313.501 277.88 312.207 272.453 308.414 269.851C298.361 262.956 288.93 254.018 279.746 246.101C284.586 262.573 291.163 264.871 296.128 266.404Z" fill="#232323" stroke="#232323" stroke-width="1.5" stroke-linecap="round" stroke-linejoin="round"/>
<path d="M252.382 299.197C253.574 298.585 252.879 297.154 252.382 296.516C254.572 296.016 262.195 290.757 264.182 288.24C264.22 288.189 264.258 288.139 264.296 288.089C264.261 288.138 264.222 288.188 264.182 288.24C260.008 293.704 253.612 299.071 252.382 299.197Z" fill="black"/>
<path d="M243.819 293.835C247.294 292.813 255.51 287.935 260.573 276.597M252.382 296.516C252.879 297.154 253.574 298.585 252.382 299.197C253.623 299.07 260.127 293.605 264.296 288.089C262.509 290.54 254.616 296.005 252.382 296.516Z" stroke="#8C3800" stroke-width="1.5" stroke-linecap="round" stroke-linejoin="round"/>
<ellipse rx="10.4104" ry="4.72805" transform="matrix(0.842248 -0.53909 0.517404 0.855742 271.415 297.535)" fill="#FFE8E8"/>
<path d="M201.452 325.859L201.601 353.532L139.749 348.685C137.394 348.5 135.573 346.542 135.56 344.179L135.517 336.193C135.505 333.838 137.294 331.863 139.639 331.644L201.452 325.859Z" fill="#5C371F" stroke="#FF8A3D" stroke-width="6.81664" stroke-linecap="round" stroke-linejoin="round"/>
<ellipse rx="24.5057" ry="24.2599" transform="matrix(0.00535592 0.999986 -0.999985 0.00546498 216.404 339.729)" fill="#5C371F" stroke="#FF8A3D" stroke-width="6.81664" stroke-linecap="round" stroke-linejoin="round"/>
<line x1="216.492" y1="371.449" x2="216.492" y2="308.269" stroke="#FF8A3D" stroke-width="6.81664" stroke-linecap="round" stroke-linejoin="round"/>
<path d="M147.531 326.81C151.999 323.873 161.307 317.999 162.796 317.999C164.658 317.999 166.147 316.85 167.636 318.765C169.498 318.254 173.519 317.233 174.71 317.233C176.199 317.233 180.295 316.85 181.412 318.765C181.525 318.959 181.642 319.15 181.761 319.336C183.134 318.891 186.326 317.999 188.113 317.999C189.831 317.999 192.869 318.452 194.351 321.447C194.754 320.743 196.006 319.336 197.793 319.336C200.027 319.336 202.633 321.064 203.006 322.979C203.378 324.894 205.612 327.193 205.612 329.108C205.612 331.023 204.495 339.451 203.378 341.749C201.946 344.696 199.655 344.047 197.793 343.664C195.932 343.281 194.946 340.217 195.058 338.301C194.695 342.947 193.429 351.326 189.603 351.326C184.762 351.326 184.463 347.495 183.496 345.58C182.211 349.973 179.929 354.548 176.572 352.475C170.987 349.027 172.618 340.61 172.849 340.222C172.358 340.904 171.555 341.253 170.242 340.983C166.519 340.217 164.285 337.152 163.913 331.023C162.828 330.372 160.953 329.084 160.015 327.959C158.832 328.086 156.095 328.035 154.605 326.81H147.531Z" fill="#FDEAC7"/>
<path d="M167.636 318.765C166.147 316.85 164.658 317.999 162.796 317.999C161.307 317.999 151.999 323.873 147.531 326.81H154.605C156.095 328.035 158.832 328.086 160.015 327.959M167.636 318.765C169.125 320.681 173.593 324.894 173.593 326.81C173.593 328.725 173.593 332.172 173.593 334.854C173.593 336.59 173.749 338.969 172.849 340.222M167.636 318.765C169.498 318.254 173.519 317.233 174.71 317.233C176.199 317.233 180.295 316.85 181.412 318.765C181.525 318.959 181.642 319.15 181.761 319.336M159.445 326.81C159.445 327.142 159.665 327.539 160.015 327.959M160.015 327.959C160.953 329.084 162.828 330.372 163.913 331.023C164.285 337.152 166.519 340.217 170.242 340.983C171.555 341.253 172.358 340.904 172.849 340.222M172.849 340.222C172.618 340.61 170.987 349.027 176.572 352.475C179.929 354.548 182.211 349.973 183.496 345.58M181.761 319.336C182.815 320.991 184.018 322.368 184.018 323.745C184.018 325.277 184.762 337.152 184.762 339.068C184.762 339.831 184.348 342.666 183.496 345.58M181.761 319.336C183.134 318.891 186.326 317.999 188.113 317.999C189.831 317.999 192.869 318.452 194.351 321.447M183.496 345.58C184.463 347.495 184.762 351.326 189.603 351.326C193.429 351.326 194.695 342.947 195.058 338.301M194.351 321.447C194.796 322.347 195.101 323.477 195.187 324.894C195.559 331.023 195.187 333.322 195.187 335.62C195.187 336.101 195.154 337.07 195.058 338.301M194.351 321.447C194.754 320.743 196.006 319.336 197.793 319.336C200.027 319.336 202.633 321.064 203.006 322.979C203.378 324.894 205.612 327.193 205.612 329.108C205.612 331.023 204.495 339.451 203.378 341.749C201.946 344.696 199.655 344.047 197.793 343.664C195.932 343.281 194.946 340.217 195.058 338.301" stroke="#8C3800" stroke-width="1.5" stroke-linecap="round" stroke-linejoin="round"/>
<path d="M385.243 474.638C384.877 472.309 384.133 468.319 383.743 467.327C340.778 472.671 279.113 465.626 247.956 460.926L246.543 468.694C331.994 484.23 385.7 477.55 385.243 474.638Z" fill="#232323"/>
<path d="M387.592 488.484C387.226 486.155 386.483 482.165 386.093 481.173C343.128 486.517 275.767 478.962 244.609 474.262L243.197 482.031C328.647 497.567 388.049 491.396 387.592 488.484Z" fill="#232323"/>
<path d="M388.518 502.203C388.728 499.855 388.121 495.948 387.731 494.956C344.766 500.3 271.646 492.948 240.488 488.247L239.075 496.016C324.526 511.552 388.264 505.051 388.518 502.203Z" fill="#232323"/>
<path d="M247.5 446C246.7 450.8 231.5 484.333 224 500.5C236.5 473 243 434.5 245 432.5C247 430.5 248.5 440 247.5 446Z" fill="#DF6819"/>
<path d="M217.27 358.692C216.526 361.757 208.335 366.737 206.473 370.567L172 355.738C172.8 354.138 177.941 352.7 180.412 352.18C194.559 351.414 196.421 359.459 198.283 356.777C199.772 354.632 203.619 353.33 205.356 352.947C204.984 351.414 203.495 349.116 206.473 342.221C209.452 335.326 214.292 338.773 215.036 339.539C215.781 340.305 213.92 343.37 215.036 347.967C216.153 352.563 218.015 355.628 217.27 358.692Z" fill="#FDEAC7"/>
<path d="M206.473 370.567C208.335 366.737 216.526 361.757 217.27 358.692C218.015 355.628 216.153 352.563 215.036 347.967C213.92 343.37 215.781 340.305 215.036 339.539C214.292 338.773 209.452 335.326 206.473 342.221C203.495 349.116 204.984 351.414 205.356 352.947C203.619 353.33 199.772 354.632 198.283 356.777C196.421 359.459 194.559 351.414 180.412 352.18C177.941 352.7 173.5 354.5 172 355.738" stroke="#8C3800" stroke-width="1.5" stroke-linecap="round" stroke-linejoin="round"/>
<path d="M166.5 513.5C168.1 505.1 166.167 487.5 165 480C166.5 479.333 170.2 476.7 173 473.5C176.6 483.5 170.167 504.667 166.5 513.5Z" fill="#FFC683"/>
</g>
<defs>
<linearGradient id="paint0_linear_216_579" x1="592" y1="-67" x2="-42.5" y2="496" gradientUnits="userSpaceOnUse">
<stop stop-color="#FF8A3D"/>
<stop offset="0.910353" stop-color="#FF8A3D" stop-opacity="0"/>
</linearGradient>
<linearGradient id="paint1_linear_216_579" x1="283.284" y1="200.367" x2="304.945" y2="383.947" gradientUnits="userSpaceOnUse">
<stop offset="0.0416667" stop-color="#FF4C24"/>
<stop offset="0.871542" stop-color="#FDEAC7"/>
</linearGradient>
<clipPath id="clip0_216_579">
<rect width="375" height="812" fill="white"/>
</clipPath>
</defs>
</svg>
