<svg width="375" height="812" viewBox="0 0 375 812" fill="none" xmlns="http://www.w3.org/2000/svg">
<rect width="375" height="812" fill="#111111"/>
<path d="M49.7461 655L57.0996 633.789H62.7539L70.0781 655H65.3613L63.7646 650.107H56.0889L54.4922 655H49.7461ZM62.6514 646.68L60 638.564H59.8535L57.2021 646.68H62.6514ZM76.875 655H72.4805V633.789H76.875V655ZM100.488 641.26H104.268V644.336H100.488V657.637H96.7383V631.035H100.488V641.26ZM79.1602 650.166C82.334 648.574 84.7754 646.689 86.4844 644.512C88.1934 642.334 89.2236 639.766 89.5752 636.807H80.6836V633.76H93.3691C93.3496 638.008 92.3926 641.758 90.498 645.01C88.6133 648.262 85.5371 650.938 81.2695 653.037L79.1602 650.166ZM136.611 650.049H126.27V657.725H122.578V650.049H112.295V647.002H136.611V650.049ZM113.525 642.637C115.283 642.441 116.812 642.056 118.11 641.479C119.419 640.903 120.439 640.229 121.172 639.458C121.914 638.677 122.363 637.871 122.52 637.041H114.492V634.111H122.578V631.064H126.27V634.111H134.385V637.041H126.387C126.533 637.852 126.968 638.652 127.69 639.443C128.423 640.225 129.438 640.903 130.737 641.479C132.036 642.056 133.564 642.441 135.322 642.637L133.975 645.566C131.777 645.322 129.863 644.775 128.232 643.926C126.611 643.076 125.352 642.026 124.453 640.776C123.555 642.036 122.285 643.086 120.645 643.926C119.014 644.766 117.09 645.312 114.873 645.566L113.525 642.637ZM148.037 637.305C148.047 638.34 148.281 639.341 148.74 640.308C149.199 641.265 149.897 642.129 150.835 642.9C151.772 643.672 152.939 644.268 154.336 644.688L152.549 647.588C151.094 647.168 149.834 646.528 148.77 645.669C147.705 644.8 146.865 643.77 146.25 642.578C145.635 643.867 144.79 644.98 143.716 645.918C142.651 646.855 141.367 647.559 139.863 648.027L138.047 645.098C139.443 644.678 140.61 644.067 141.548 643.267C142.485 642.466 143.179 641.553 143.628 640.527C144.087 639.502 144.316 638.428 144.316 637.305V637.1H138.955V634.17H144.316V631.211H148.096V634.17H153.428V637.1H148.037V637.305ZM142.998 649.141H146.748V654.238H161.338V657.227H142.998V649.141ZM152.549 638.828H156.973V631.064H160.693V650.84H156.973V641.846H152.549V638.828ZM177.012 638.066H164.121V635.107H168.75V631.768H172.441V635.107H177.012V638.066ZM164.736 645.596C164.736 644.375 164.99 643.286 165.498 642.329C166.006 641.372 166.704 640.625 167.593 640.088C168.491 639.541 169.502 639.268 170.625 639.268C171.748 639.268 172.754 639.541 173.643 640.088C174.531 640.625 175.225 641.372 175.723 642.329C176.23 643.286 176.484 644.375 176.484 645.596C176.484 646.816 176.23 647.91 175.723 648.877C175.225 649.844 174.531 650.601 173.643 651.147C172.754 651.685 171.748 651.953 170.625 651.953C169.502 651.953 168.491 651.685 167.593 651.147C166.704 650.601 166.006 649.844 165.498 648.877C164.99 647.91 164.736 646.816 164.736 645.596ZM168.018 645.596C168.018 646.602 168.252 647.388 168.721 647.954C169.199 648.511 169.834 648.789 170.625 648.789C171.387 648.789 172.002 648.506 172.471 647.939C172.949 647.373 173.193 646.592 173.203 645.596C173.203 644.941 173.091 644.37 172.866 643.882C172.642 643.394 172.334 643.022 171.943 642.769C171.562 642.505 171.123 642.373 170.625 642.373C169.844 642.373 169.214 642.661 168.735 643.237C168.257 643.813 168.018 644.6 168.018 645.596ZM178.008 631.562H181.494V641.875H183.662V631.035H187.207V657.695H183.662V644.863H181.494V656.553H178.008V631.562ZM214.395 648.73H204.023V657.695H200.332V648.73H190.078V645.742H214.395V648.73ZM191.279 641.26C193.008 641.045 194.507 640.645 195.776 640.059C197.056 639.473 198.052 638.77 198.765 637.949C199.487 637.129 199.917 636.27 200.054 635.371H192.275V632.441H212.227V635.371H204.448C204.575 636.27 204.995 637.129 205.708 637.949C206.421 638.77 207.417 639.473 208.696 640.059C209.976 640.645 211.494 641.045 213.252 641.26L211.904 644.189C209.6 643.877 207.617 643.257 205.957 642.329C204.307 641.392 203.071 640.225 202.251 638.828C201.421 640.225 200.186 641.392 198.545 642.329C196.904 643.257 194.941 643.877 192.656 644.189L191.279 641.26ZM237.656 641.23H219.023V631.973H222.744V638.301H237.656V641.23ZM215.977 644.102H240.381V647.031H215.977V644.102ZM218.789 649.199H222.539V654.121H237.832V657.109H218.789V649.199ZM270.586 645.537H262.91V651.66H273.252V654.648H248.848V651.66H259.131V645.537H251.572V633.086H255.41V642.52H270.586V645.537ZM285.645 643.896H279.111V648.672C280.547 648.652 281.865 648.604 283.066 648.525C284.277 648.447 285.518 648.311 286.787 648.115L287.051 651.104C285.439 651.377 283.896 651.558 282.422 651.646C280.947 651.733 279.268 651.777 277.383 651.777H275.537V640.908H282.041V636.631H275.508V633.613H285.645V643.896ZM288.281 631.475H291.709V641.113H294.287V631.035H297.832V657.695H294.287V644.131H291.709V656.406H288.281V631.475ZM325.078 645.771H300.674V642.988H325.078V645.771ZM303.457 647.09H322.148V653.389H307.207V654.912H322.939V657.461H303.486V651.016H318.457V649.668H303.457V647.09ZM303.662 631.504H322.119V637.773H307.441V639.209H322.588V641.729H303.721V635.4H318.369V634.053H303.662V631.504ZM140.024 676.1H143.628V679.176H140.024V685.592H136.274V670.035H140.024V676.1ZM119.663 671.588H123.384V674.986H128.833V671.588H132.583V684.273H119.663V671.588ZM122.593 686.793H140.171V689.752H126.313V693.414H140.669V696.344H122.593V686.793ZM128.833 681.344V677.887H123.384V681.344H128.833ZM151.978 671.91C153.335 671.91 154.541 672.301 155.596 673.082C156.66 673.854 157.495 674.957 158.101 676.393C158.706 677.828 159.009 679.498 159.009 681.402C159.009 683.316 158.706 684.996 158.101 686.441C157.495 687.877 156.66 688.985 155.596 689.767C154.541 690.538 153.335 690.924 151.978 690.924C150.62 690.924 149.404 690.538 148.33 689.767C147.266 688.985 146.436 687.877 145.84 686.441C145.244 684.996 144.946 683.316 144.946 681.402C144.946 679.498 145.244 677.828 145.84 676.393C146.436 674.957 147.266 673.854 148.33 673.082C149.404 672.301 150.62 671.91 151.978 671.91ZM148.55 681.402C148.55 682.701 148.691 683.814 148.975 684.742C149.258 685.66 149.658 686.358 150.176 686.837C150.693 687.306 151.294 687.535 151.978 687.525C152.671 687.535 153.276 687.306 153.794 686.837C154.312 686.358 154.712 685.66 154.995 684.742C155.288 683.814 155.435 682.701 155.435 681.402C155.435 680.104 155.288 678.995 154.995 678.077C154.712 677.159 154.312 676.466 153.794 675.997C153.276 675.519 152.671 675.279 151.978 675.279C151.294 675.279 150.693 675.519 150.176 675.997C149.658 676.466 149.258 677.164 148.975 678.092C148.691 679.01 148.55 680.113 148.55 681.402ZM162.085 670.035H165.835V680.084H169.761V683.189H165.835V696.695H162.085V670.035ZM195.132 693.59H170.728V690.543H181.011V685.621H173.306V671.734H177.056V675.865H188.687V671.734H192.407V685.621H184.731V690.543H195.132V693.59ZM188.687 682.633V678.854H177.056V682.633H188.687ZM205.21 676.744C205.2 679.127 205.576 681.3 206.338 683.263C207.1 685.226 208.335 686.754 210.044 687.848L208.022 690.748C205.884 689.459 204.346 687.315 203.408 684.317C202.91 685.89 202.251 687.276 201.431 688.478C200.61 689.679 199.614 690.631 198.442 691.334L196.157 688.58C198.022 687.428 199.39 685.812 200.259 683.731C201.138 681.651 201.577 679.381 201.577 676.92V672.32H205.21V676.744ZM207.231 679.029H210.688V670.416H214.175V695.465H210.688V682.076H207.231V679.029ZM216.196 670.035H219.771V696.695H216.196V670.035ZM246.987 693.59H222.583V690.514H228.032V683.98C226.978 683.346 226.162 682.564 225.586 681.637C225.01 680.699 224.722 679.654 224.722 678.502C224.722 677.086 225.151 675.836 226.011 674.752C226.87 673.668 228.057 672.828 229.57 672.232C231.094 671.627 232.817 671.324 234.741 671.324C236.655 671.324 238.374 671.627 239.897 672.232C241.421 672.828 242.617 673.668 243.486 674.752C244.355 675.836 244.79 677.086 244.79 678.502C244.78 679.635 244.497 680.66 243.94 681.578C243.384 682.496 242.593 683.272 241.567 683.907V690.514H246.987V693.59ZM228.413 678.502C228.413 679.361 228.672 680.108 229.189 680.743C229.717 681.378 230.454 681.866 231.401 682.208C232.358 682.55 233.472 682.721 234.741 682.721C235.991 682.721 237.095 682.55 238.052 682.208C239.009 681.866 239.756 681.378 240.293 680.743C240.83 680.108 241.099 679.361 241.099 678.502C241.099 677.623 240.83 676.866 240.293 676.231C239.766 675.597 239.023 675.113 238.066 674.781C237.109 674.439 236.001 674.273 234.741 674.283C233.472 674.283 232.358 674.449 231.401 674.781C230.454 675.113 229.717 675.597 229.189 676.231C228.672 676.866 228.413 677.623 228.413 678.502ZM237.788 690.514V685.328C236.812 685.523 235.796 685.621 234.741 685.621C233.716 685.621 232.71 685.528 231.724 685.343V690.514H237.788ZM254.194 687.643H250.444L250.063 672.789H254.575L254.194 687.643ZM249.888 691.803C249.878 691.363 249.98 690.958 250.195 690.587C250.42 690.206 250.723 689.908 251.104 689.693C251.484 689.479 251.899 689.371 252.349 689.371C252.778 689.371 253.179 689.479 253.55 689.693C253.921 689.908 254.219 690.206 254.443 690.587C254.668 690.958 254.78 691.363 254.78 691.803C254.78 692.252 254.668 692.667 254.443 693.048C254.219 693.419 253.921 693.717 253.55 693.941C253.179 694.156 252.778 694.264 252.349 694.264C251.899 694.264 251.484 694.156 251.104 693.941C250.723 693.717 250.42 693.419 250.195 693.048C249.98 692.667 249.878 692.252 249.888 691.803Z" fill="#EDEDED"/>
<path d="M101.879 729.029C101.874 729.745 102.002 730.453 102.262 731.155C102.521 731.857 102.886 732.486 103.355 733.042C103.825 733.593 104.358 734.015 104.955 734.307L104.148 735.346C103.492 734.999 102.911 734.505 102.405 733.862C101.904 733.215 101.517 732.477 101.243 731.647C100.965 732.532 100.564 733.32 100.04 734.013C99.5205 734.701 98.9167 735.223 98.2285 735.578L97.4219 734.525C98.0371 734.229 98.584 733.792 99.0625 733.213C99.541 732.634 99.9124 731.978 100.177 731.244C100.446 730.51 100.58 729.772 100.58 729.029V726.938H101.879V729.029ZM105.871 725.912H107.17V730.793H109.139V731.9H107.17V738.162H105.871V725.912ZM120.896 732.939H109.727V731.887H112.406V730.239C111.923 730.043 111.554 729.793 111.299 729.487C111.048 729.182 110.925 728.829 110.93 728.428C110.93 727.949 111.105 727.537 111.456 727.19C111.812 726.844 112.317 726.582 112.974 726.404C113.634 726.222 114.411 726.131 115.305 726.131C116.198 726.131 116.973 726.222 117.629 726.404C118.285 726.582 118.791 726.844 119.146 727.19C119.502 727.537 119.68 727.949 119.68 728.428C119.675 728.829 119.545 729.184 119.29 729.494C119.035 729.799 118.668 730.05 118.189 730.246V731.887H120.896V732.939ZM111.053 735.947C111.053 735.482 111.221 735.088 111.559 734.765C111.896 734.441 112.381 734.195 113.015 734.026C113.653 733.858 114.416 733.773 115.305 733.773C116.18 733.773 116.934 733.858 117.567 734.026C118.201 734.195 118.686 734.443 119.023 734.771C119.361 735.095 119.529 735.487 119.529 735.947C119.529 736.412 119.361 736.809 119.023 737.137C118.686 737.465 118.201 737.713 117.567 737.882C116.938 738.05 116.184 738.135 115.305 738.135C114.416 738.135 113.653 738.05 113.015 737.882C112.381 737.713 111.896 737.465 111.559 737.137C111.221 736.813 111.053 736.417 111.053 735.947ZM112.27 728.428C112.265 728.833 112.529 729.148 113.062 729.371C113.596 729.594 114.343 729.708 115.305 729.713C116.262 729.708 117.007 729.594 117.54 729.371C118.078 729.148 118.344 728.833 118.34 728.428C118.34 728.159 118.219 727.926 117.978 727.73C117.736 727.535 117.387 727.386 116.932 727.286C116.476 727.181 115.934 727.129 115.305 727.129C114.348 727.133 113.6 727.25 113.062 727.478C112.529 727.701 112.265 728.018 112.27 728.428ZM112.365 735.947C112.361 736.33 112.616 736.626 113.131 736.836C113.646 737.041 114.37 737.141 115.305 737.137C116.23 737.146 116.948 737.046 117.458 736.836C117.973 736.626 118.23 736.33 118.23 735.947C118.23 735.574 117.973 735.284 117.458 735.079C116.948 734.874 116.23 734.771 115.305 734.771C114.366 734.771 113.639 734.874 113.124 735.079C112.614 735.284 112.361 735.574 112.365 735.947ZM116.904 731.887V730.581C116.412 730.659 115.879 730.697 115.305 730.697C114.758 730.697 114.229 730.661 113.719 730.588V731.887H116.904ZM126.092 729.521C126.092 730.164 126.224 730.816 126.488 731.477C126.753 732.133 127.122 732.73 127.596 733.268C128.074 733.801 128.617 734.211 129.223 734.498L128.484 735.51C127.81 735.186 127.208 734.703 126.68 734.061C126.151 733.413 125.745 732.684 125.463 731.873C125.18 732.753 124.763 733.546 124.212 734.252C123.665 734.954 123.048 735.478 122.359 735.824L121.594 734.799C122.2 734.507 122.747 734.079 123.234 733.514C123.727 732.944 124.112 732.308 124.39 731.606C124.668 730.9 124.807 730.205 124.807 729.521V728.223H122.045V727.143H128.758V728.223H126.092V729.521ZM130.07 725.912H131.369V730.766H133.338V731.859H131.369V738.162H130.07V725.912ZM147.871 738.162H146.613V725.912H147.871V738.162ZM137.781 727.375H142.43V728.441H139.053V734.197C139.9 734.188 140.618 734.161 141.206 734.115C141.799 734.065 142.398 733.974 143.004 733.842L143.113 734.936C142.443 735.068 141.773 735.159 141.104 735.209C140.438 735.255 139.6 735.277 138.588 735.277H137.781V727.375ZM141.596 730.52H144.111V726.172H145.342V737.547H144.111V731.6H141.596V730.52ZM159.588 738.189H158.289V725.912H159.588V738.189ZM149.867 731.121C149.867 730.264 150.002 729.512 150.271 728.865C150.539 728.214 150.913 727.712 151.392 727.361C151.875 727.006 152.424 726.828 153.039 726.828C153.645 726.828 154.188 727.006 154.666 727.361C155.145 727.712 155.518 728.214 155.787 728.865C156.061 729.512 156.197 730.264 156.197 731.121C156.197 731.987 156.061 732.746 155.787 733.397C155.518 734.049 155.145 734.55 154.666 734.901C154.188 735.252 153.645 735.428 153.039 735.428C152.424 735.428 151.875 735.252 151.392 734.901C150.913 734.55 150.539 734.049 150.271 733.397C150.002 732.746 149.867 731.987 149.867 731.121ZM151.125 731.121C151.125 731.759 151.205 732.315 151.364 732.789C151.524 733.263 151.747 733.628 152.034 733.883C152.326 734.138 152.661 734.266 153.039 734.266C153.413 734.266 153.743 734.138 154.03 733.883C154.317 733.628 154.541 733.263 154.7 732.789C154.86 732.315 154.939 731.759 154.939 731.121C154.939 730.492 154.86 729.943 154.7 729.474C154.541 729 154.317 728.635 154.03 728.38C153.743 728.12 153.413 727.99 153.039 727.99C152.661 727.99 152.326 728.12 152.034 728.38C151.747 728.635 151.524 729 151.364 729.474C151.205 729.943 151.125 730.492 151.125 731.121ZM171.756 738.189H170.471V731.504H168.037V730.438H170.471V725.912H171.756V738.189ZM162.104 727.006H167.832V728.059H163.416V730.438H167.312V731.477H163.416V734.211C164.514 734.211 165.444 734.188 166.205 734.143C166.971 734.092 167.741 734.001 168.516 733.869L168.652 734.922C167.796 735.059 166.948 735.154 166.109 735.209C165.271 735.259 164.255 735.286 163.061 735.291H162.104V727.006ZM184.84 732.529H173.629V731.531H184.84V732.529ZM174.955 733.391H183.459V736.084H176.268V737.096H183.842V738.012H174.969V735.223H182.174V734.32H174.955V733.391ZM175.037 726.227H183.432V728.879H176.35V729.809H183.637V730.725H175.064V728.018H182.133V727.143H175.037V726.227ZM198.703 730.656H200.672V731.75H198.703V738.162H197.404V725.912H198.703V730.656ZM189.625 726.938H190.91V730.082H194.15V726.938H195.436V735.25H189.625V726.938ZM194.15 734.184V731.107H190.91V734.184H194.15ZM210.885 729.002H212.662V730.068H210.885V733.418H209.586V725.912H210.885V729.002ZM201.793 726.746H207.48V727.785H203.092V729.166H207.248V730.191H203.092V731.6C204.268 731.6 205.231 731.577 205.983 731.531C206.74 731.486 207.494 731.399 208.246 731.271L208.383 732.311C207.631 732.447 206.874 732.538 206.113 732.584C205.357 732.63 204.375 732.652 203.167 732.652H202.75H201.793V726.746ZM202.832 735.92C202.832 735.455 202.996 735.056 203.324 734.724C203.657 734.386 204.131 734.131 204.746 733.958C205.366 733.78 206.1 733.691 206.947 733.691C207.786 733.691 208.51 733.78 209.121 733.958C209.736 734.131 210.206 734.386 210.529 734.724C210.857 735.056 211.021 735.455 211.021 735.92C211.021 736.385 210.857 736.784 210.529 737.116C210.206 737.453 209.736 737.706 209.121 737.875C208.51 738.048 207.786 738.135 206.947 738.135C206.1 738.135 205.366 738.048 204.746 737.875C204.131 737.706 203.657 737.453 203.324 737.116C202.996 736.784 202.832 736.385 202.832 735.92ZM204.131 735.92C204.126 736.312 204.37 736.615 204.862 736.829C205.359 737.039 206.054 737.141 206.947 737.137C207.822 737.146 208.506 737.043 208.998 736.829C209.49 736.61 209.736 736.307 209.736 735.92C209.736 735.537 209.49 735.241 208.998 735.031C208.51 734.817 207.827 734.708 206.947 734.703C206.049 734.708 205.354 734.815 204.862 735.024C204.37 735.234 204.126 735.533 204.131 735.92ZM218.938 726.65C219.79 726.65 220.56 726.794 221.248 727.081C221.936 727.364 222.476 727.765 222.868 728.284C223.265 728.799 223.463 729.394 223.463 730.068C223.463 730.743 223.265 731.34 222.868 731.859C222.476 732.379 221.936 732.78 221.248 733.062C220.56 733.345 219.79 733.486 218.938 733.486C218.085 733.486 217.315 733.345 216.627 733.062C215.943 732.78 215.406 732.379 215.014 731.859C214.622 731.34 214.426 730.743 214.426 730.068C214.426 729.398 214.622 728.804 215.014 728.284C215.406 727.765 215.943 727.364 216.627 727.081C217.315 726.794 218.085 726.65 218.938 726.65ZM213.359 735.496H224.57V736.576H213.359V735.496ZM215.67 730.068C215.67 730.538 215.809 730.95 216.087 731.306C216.369 731.661 216.759 731.937 217.256 732.133C217.753 732.324 218.313 732.42 218.938 732.42C219.562 732.42 220.12 732.324 220.612 732.133C221.109 731.937 221.499 731.661 221.781 731.306C222.064 730.95 222.205 730.538 222.205 730.068C222.205 729.604 222.064 729.191 221.781 728.831C221.499 728.471 221.109 728.193 220.612 727.997C220.116 727.801 219.557 727.703 218.938 727.703C218.313 727.703 217.753 727.801 217.256 727.997C216.759 728.193 216.369 728.471 216.087 728.831C215.809 729.191 215.67 729.604 215.67 730.068ZM236.67 736.699H225.459V735.605H230.395V733.459H226.826V729.562H234.018V727.84H226.799V726.773H235.303V730.602H228.111V732.393H235.59V733.459H231.68V735.605H236.67V736.699ZM252.174 733.363H247.307V735.619H246.021V733.363H240.963V732.324H252.174V733.363ZM242.357 734.553H243.643V736.85H250.93V737.902H242.357V734.553ZM242.439 726.295H243.725V727.785H249.398V726.295H250.697V731.244H242.439V726.295ZM249.398 730.205V728.756H243.725V730.205H249.398ZM257.396 727.867C257.396 728.41 257.515 728.931 257.752 729.433C257.989 729.934 258.328 730.378 258.771 730.766C259.217 731.148 259.743 731.44 260.35 731.641L259.639 732.68C258.973 732.438 258.395 732.083 257.902 731.613C257.415 731.144 257.036 730.595 256.768 729.966C256.494 730.654 256.1 731.256 255.585 731.771C255.075 732.281 254.466 732.671 253.76 732.939L253.062 731.887C253.691 731.668 254.234 731.354 254.689 730.943C255.145 730.533 255.492 730.059 255.729 729.521C255.97 728.979 256.093 728.405 256.098 727.799V726.541H257.396V727.867ZM254.99 733.814H263.289V738.162H261.99V734.84H254.99V733.814ZM259.406 728.387H261.99V725.912H263.289V733.172H261.99V729.453H259.406V728.387ZM274.801 729.863H276.578V730.943H274.801V735.086H273.502V725.926H274.801V729.863ZM265.189 727.348H268.197V725.912H269.496V727.348H272.49V728.4H265.189V727.348ZM265.859 731.299C265.859 730.839 265.982 730.433 266.229 730.082C266.479 729.731 266.83 729.462 267.281 729.275C267.732 729.084 268.252 728.988 268.84 728.988C269.423 728.988 269.938 729.084 270.385 729.275C270.836 729.462 271.185 729.731 271.431 730.082C271.681 730.433 271.807 730.839 271.807 731.299C271.807 731.755 271.681 732.156 271.431 732.502C271.185 732.848 270.836 733.117 270.385 733.309C269.938 733.5 269.423 733.596 268.84 733.596C268.252 733.596 267.732 733.5 267.281 733.309C266.83 733.117 266.479 732.848 266.229 732.502C265.982 732.156 265.859 731.755 265.859 731.299ZM267.035 734.361H268.334V736.85H275.32V737.902H267.035V734.361ZM267.117 731.299C267.113 731.559 267.181 731.786 267.322 731.982C267.464 732.174 267.662 732.322 267.917 732.427C268.177 732.532 268.478 732.584 268.819 732.584C269.348 732.584 269.774 732.47 270.098 732.242C270.421 732.014 270.585 731.7 270.59 731.299C270.585 730.898 270.424 730.581 270.104 730.349C269.785 730.112 269.364 729.991 268.84 729.986C268.493 729.986 268.188 730.041 267.924 730.15C267.664 730.255 267.464 730.408 267.322 730.608C267.181 730.804 267.113 731.035 267.117 731.299ZM101.216 750.016H102.979V751.082H101.216V754.145H99.9033V746.912H101.216V750.016ZM92.0967 747.814H97.5654V748.867H93.3818V752.203C94.6579 752.194 95.6787 752.164 96.4443 752.114C97.21 752.06 97.9619 751.957 98.7002 751.807L98.8232 752.859C98.0394 753.019 97.235 753.126 96.4102 753.181C95.5898 753.231 94.4756 753.256 93.0674 753.256H92.0967V747.814ZM93.1357 756.756C93.1357 756.264 93.3021 755.84 93.6348 755.484C93.9674 755.124 94.4414 754.851 95.0566 754.664C95.6764 754.473 96.4079 754.377 97.251 754.377C98.085 754.377 98.805 754.473 99.4111 754.664C100.022 754.851 100.491 755.124 100.819 755.484C101.147 755.84 101.312 756.264 101.312 756.756C101.312 757.253 101.147 757.679 100.819 758.034C100.491 758.394 100.022 758.668 99.4111 758.854C98.8005 759.041 98.0804 759.135 97.251 759.135C96.4079 759.135 95.6764 759.041 95.0566 758.854C94.4414 758.668 93.9674 758.394 93.6348 758.034C93.3021 757.679 93.1357 757.253 93.1357 756.756ZM94.4209 756.756C94.4209 757.034 94.5303 757.273 94.749 757.474C94.9723 757.674 95.2936 757.829 95.7129 757.938C96.1367 758.043 96.638 758.096 97.2168 758.096C97.8001 758.096 98.306 758.043 98.7344 757.938C99.1628 757.834 99.4909 757.681 99.7188 757.48C99.9512 757.28 100.067 757.038 100.067 756.756C100.067 756.478 99.9535 756.241 99.7256 756.045C99.5023 755.844 99.181 755.692 98.7617 755.587C98.347 755.482 97.8548 755.43 97.2852 755.43C96.3828 755.43 95.6787 755.546 95.1729 755.778C94.667 756.006 94.4163 756.332 94.4209 756.756ZM113.835 755.895H112.536V746.926H113.835V755.895ZM103.745 753.133C104.374 752.9 104.919 752.563 105.379 752.121C105.839 751.679 106.19 751.171 106.432 750.597C106.678 750.022 106.803 749.428 106.808 748.812V747.596H108.134V748.812C108.134 749.41 108.255 749.979 108.496 750.521C108.738 751.064 109.086 751.542 109.542 751.957C109.998 752.372 110.535 752.686 111.155 752.9L110.485 753.939C109.784 753.68 109.175 753.301 108.66 752.805C108.15 752.303 107.756 751.718 107.478 751.048C107.204 751.768 106.805 752.399 106.281 752.941C105.762 753.479 105.149 753.885 104.442 754.158L103.745 753.133ZM105.823 755.047H107.136V757.85H114.204V758.902H105.823V755.047ZM119.769 747.787C120.407 747.787 120.979 747.91 121.484 748.156C121.99 748.398 122.387 748.742 122.674 749.188C122.961 749.631 123.104 750.134 123.104 750.699C123.104 751.264 122.961 751.77 122.674 752.217C122.387 752.659 121.99 753.005 121.484 753.256C120.979 753.502 120.407 753.625 119.769 753.625C119.131 753.625 118.556 753.502 118.046 753.256C117.54 753.005 117.144 752.659 116.856 752.217C116.574 751.77 116.433 751.264 116.433 750.699C116.433 750.134 116.574 749.631 116.856 749.188C117.144 748.746 117.54 748.402 118.046 748.156C118.556 747.91 119.131 747.787 119.769 747.787ZM115.845 755.471C117.385 755.471 118.807 755.446 120.11 755.396C121.414 755.345 122.658 755.234 123.843 755.061L123.938 756.004C122.717 756.241 121.475 756.391 120.213 756.455C118.955 756.519 117.554 756.551 116.009 756.551L115.845 755.471ZM117.718 750.699C117.713 751.055 117.798 751.369 117.971 751.643C118.148 751.911 118.392 752.121 118.702 752.271C119.017 752.417 119.372 752.49 119.769 752.49C120.165 752.49 120.518 752.417 120.828 752.271C121.143 752.121 121.389 751.911 121.566 751.643C121.744 751.369 121.833 751.055 121.833 750.699C121.833 750.348 121.744 750.038 121.566 749.77C121.389 749.496 121.143 749.284 120.828 749.134C120.514 748.983 120.16 748.908 119.769 748.908C119.372 748.908 119.017 748.983 118.702 749.134C118.392 749.284 118.148 749.496 117.971 749.77C117.798 750.038 117.713 750.348 117.718 750.699ZM124.608 746.912H125.907V759.189H124.608V746.912ZM136.024 749.277C136.024 749.66 136.141 750.022 136.373 750.364C136.605 750.706 136.938 751.005 137.371 751.26C137.809 751.51 138.321 751.697 138.909 751.82L138.376 752.832C137.679 752.673 137.075 752.424 136.564 752.087C136.054 751.75 135.662 751.346 135.389 750.877C135.12 751.392 134.726 751.834 134.206 752.203C133.691 752.568 133.076 752.832 132.36 752.996L131.813 751.984C132.406 751.857 132.921 751.659 133.358 751.39C133.796 751.121 134.131 750.804 134.363 750.439C134.6 750.075 134.721 749.688 134.726 749.277H132.087V748.252H134.726V746.939H136.024V748.252H138.649V749.277H136.024ZM131.28 753.748C132.853 753.748 134.295 753.728 135.607 753.687C136.92 753.641 138.166 753.543 139.347 753.393L139.442 754.336C138.399 754.509 137.264 754.632 136.038 754.705V758.793H134.739V754.773C133.841 754.81 132.748 754.828 131.458 754.828L131.28 753.748ZM140.194 746.926H141.479V759.162H140.194V746.926ZM154.755 750.002H153.019V751.547H154.755V752.613H153.019V754.773H151.72V746.912H153.019V748.936H154.755V750.002ZM143.407 748.225H146.415V746.816H147.714V748.225H150.708V749.25H143.407V748.225ZM144.077 751.998C144.077 751.565 144.2 751.185 144.446 750.856C144.692 750.524 145.041 750.266 145.492 750.084C145.943 749.902 146.465 749.811 147.058 749.811C147.641 749.811 148.156 749.902 148.603 750.084C149.054 750.266 149.402 750.524 149.648 750.856C149.899 751.185 150.024 751.565 150.024 751.998C150.024 752.431 149.899 752.812 149.648 753.14C149.402 753.463 149.054 753.714 148.603 753.892C148.156 754.069 147.641 754.158 147.058 754.158C146.47 754.158 145.948 754.069 145.492 753.892C145.041 753.714 144.692 753.463 144.446 753.14C144.2 752.812 144.077 752.431 144.077 751.998ZM145.048 757.016C145.043 756.569 145.203 756.186 145.526 755.867C145.85 755.544 146.317 755.298 146.928 755.129C147.543 754.956 148.27 754.869 149.108 754.869C149.938 754.869 150.656 754.956 151.262 755.129C151.872 755.298 152.34 755.544 152.663 755.867C152.991 756.186 153.155 756.569 153.155 757.016C153.155 757.458 152.991 757.838 152.663 758.157C152.34 758.476 151.872 758.718 151.262 758.882C150.656 759.05 149.938 759.135 149.108 759.135C148.27 759.135 147.545 759.05 146.935 758.882C146.324 758.718 145.854 758.476 145.526 758.157C145.203 757.838 145.043 757.458 145.048 757.016ZM145.335 751.998C145.33 752.235 145.399 752.442 145.54 752.62C145.681 752.798 145.882 752.935 146.142 753.03C146.406 753.126 146.711 753.174 147.058 753.174C147.582 753.174 148.003 753.069 148.322 752.859C148.641 752.645 148.803 752.358 148.808 751.998C148.803 751.752 148.728 751.538 148.582 751.355C148.436 751.173 148.231 751.032 147.967 750.932C147.707 750.831 147.404 750.781 147.058 750.781C146.711 750.781 146.408 750.831 146.148 750.932C145.889 751.032 145.686 751.173 145.54 751.355C145.399 751.538 145.33 751.752 145.335 751.998ZM146.333 757.016C146.328 757.376 146.57 757.656 147.058 757.856C147.545 758.052 148.229 758.15 149.108 758.15C149.979 758.15 150.656 758.052 151.139 757.856C151.622 757.656 151.866 757.376 151.87 757.016C151.866 756.646 151.622 756.364 151.139 756.168C150.66 755.972 149.983 755.872 149.108 755.867C148.22 755.872 147.534 755.972 147.051 756.168C146.568 756.364 146.328 756.646 146.333 757.016ZM165.72 759.189H164.421V752.381H161.892V751.314H164.421V746.912H165.72V759.189ZM155.356 755.771C155.972 755.48 156.521 755.049 157.004 754.479C157.492 753.905 157.872 753.258 158.146 752.538C158.419 751.813 158.556 751.087 158.556 750.357V749.209H155.849V748.143H162.589V749.209H159.868V750.357C159.868 751.046 160.003 751.734 160.271 752.422C160.545 753.11 160.923 753.728 161.406 754.274C161.889 754.817 162.438 755.225 163.054 755.498L162.274 756.537C161.582 756.2 160.969 755.699 160.436 755.033C159.907 754.368 159.504 753.609 159.226 752.757C158.948 753.659 158.54 754.468 158.002 755.184C157.464 755.895 156.847 756.428 156.149 756.783L155.356 755.771ZM174.087 747.719C174.087 748.17 174.041 748.612 173.95 749.045H176.507V746.926H177.806V754.213H176.507V752.682H173.417V751.629H176.507V750.084H173.622C173.212 751.036 172.549 751.852 171.633 752.531C170.717 753.21 169.593 753.73 168.263 754.09L167.771 753.064C168.737 752.805 169.573 752.463 170.279 752.039C170.99 751.615 171.551 751.128 171.961 750.576C172.371 750.02 172.615 749.419 172.692 748.771H168.413V747.719H174.087ZM169.507 754.746H177.806V759.135H176.507V755.771H169.507V754.746ZM193.05 753.447H189.345V756.564H194.321V757.631H183.11V756.564H188.046V753.447H184.45V747.924H185.763V752.381H193.05V753.447ZM200.214 752.627H196.851V755.211C197.58 755.206 198.266 755.184 198.908 755.143C199.551 755.097 200.218 755.02 200.911 754.91L201.021 755.949C200.246 756.086 199.512 756.177 198.819 756.223C198.131 756.268 197.334 756.296 196.427 756.305H195.593V751.561H198.956V749.264H195.579V748.197H200.214V752.627ZM201.704 747.158H202.894V751.684H204.479V746.912H205.724V759.162H204.479V752.736H202.894V758.533H201.704V747.158ZM218.507 753.529H207.296V752.531H218.507V753.529ZM208.622 754.391H217.126V757.084H209.935V758.096H217.509V759.012H208.636V756.223H215.841V755.32H208.622V754.391ZM208.704 747.227H217.099V749.879H210.017V750.809H217.304V751.725H208.731V749.018H215.8V748.143H208.704V747.227ZM233.341 759.162H232.097V746.912H233.341V759.162ZM222.649 755.785C223.21 755.448 223.686 754.992 224.078 754.418C224.475 753.844 224.771 753.206 224.967 752.504C225.167 751.798 225.27 751.073 225.274 750.33V749.346H223.019V748.293H228.624V749.346H226.519V750.33C226.519 751.041 226.614 751.731 226.806 752.401C227.002 753.071 227.291 753.677 227.674 754.22C228.061 754.762 228.533 755.193 229.089 755.512L228.31 756.469C227.74 756.132 227.252 755.667 226.847 755.074C226.446 754.482 226.133 753.805 225.91 753.044C225.687 753.869 225.366 754.603 224.946 755.245C224.527 755.888 224.026 756.391 223.442 756.756L222.649 755.785ZM227.722 751.246H229.622V747.172H230.853V758.547H229.622V752.312H227.722V751.246ZM240.45 754.609C241.33 754.609 242.095 754.701 242.747 754.883C243.399 755.061 243.9 755.32 244.251 755.662C244.606 756.004 244.784 756.41 244.784 756.879C244.784 757.348 244.606 757.752 244.251 758.089C243.9 758.431 243.399 758.69 242.747 758.868C242.095 759.046 241.33 759.135 240.45 759.135C239.58 759.135 238.819 759.046 238.167 758.868C237.52 758.69 237.021 758.431 236.67 758.089C236.319 757.752 236.144 757.348 236.144 756.879C236.144 756.41 236.319 756.004 236.67 755.662C237.021 755.32 237.52 755.061 238.167 754.883C238.814 754.701 239.575 754.609 240.45 754.609ZM234.94 752.545H239.411V750.248H240.683V752.545H246.083V753.598H234.94V752.545ZM236.239 747.514H244.688V748.539V748.901C244.688 749.43 244.666 749.92 244.62 750.371C244.579 750.818 244.488 751.292 244.347 751.793L243.075 751.656C243.221 751.1 243.312 750.601 243.349 750.159C243.385 749.713 243.403 749.177 243.403 748.553H236.239V747.514ZM237.442 756.879C237.438 757.139 237.556 757.364 237.798 757.556C238.044 757.743 238.393 757.886 238.844 757.986C239.299 758.087 239.835 758.137 240.45 758.137C241.075 758.137 241.615 758.087 242.07 757.986C242.526 757.886 242.877 757.743 243.123 757.556C243.369 757.364 243.494 757.139 243.499 756.879C243.494 756.615 243.369 756.387 243.123 756.195C242.877 755.999 242.526 755.851 242.07 755.751C241.615 755.646 241.075 755.594 240.45 755.594C239.835 755.594 239.299 755.646 238.844 755.751C238.393 755.851 238.044 755.999 237.798 756.195C237.556 756.387 237.438 756.615 237.442 756.879ZM256.651 749.988H258.429V751.082H256.651V754.049H255.353V746.912H256.651V749.988ZM247.04 748.115H250.048V746.803H251.347V748.115H254.341V749.154H247.04V748.115ZM247.71 751.807C247.71 751.378 247.833 751.002 248.079 750.679C248.325 750.351 248.674 750.1 249.125 749.927C249.581 749.749 250.103 749.66 250.69 749.66C251.274 749.66 251.789 749.749 252.235 749.927C252.687 750.1 253.035 750.351 253.281 750.679C253.532 751.002 253.657 751.378 253.657 751.807C253.657 752.235 253.532 752.613 253.281 752.941C253.035 753.265 252.687 753.516 252.235 753.693C251.789 753.871 251.274 753.958 250.69 753.953C250.103 753.958 249.581 753.873 249.125 753.7C248.674 753.522 248.325 753.27 248.079 752.941C247.833 752.613 247.71 752.235 247.71 751.807ZM248.817 754.555H250.103V755.744H255.353V754.555H256.651V759.012H248.817V754.555ZM248.968 751.807C248.963 752.048 249.032 752.258 249.173 752.436C249.314 752.613 249.515 752.752 249.774 752.853C250.039 752.948 250.344 752.996 250.69 752.996C251.215 752.992 251.636 752.884 251.955 752.675C252.274 752.461 252.436 752.171 252.44 751.807C252.436 751.574 252.361 751.369 252.215 751.191C252.069 751.014 251.866 750.877 251.606 750.781C251.347 750.681 251.048 750.631 250.711 750.631C250.365 750.631 250.059 750.679 249.795 750.774C249.531 750.87 249.326 751.007 249.18 751.185C249.034 751.362 248.963 751.57 248.968 751.807ZM255.353 757.973V756.756H250.103V757.973H255.353ZM269.298 759.162H267.999V746.912H269.298V759.162ZM259.878 748.102H261.163V754.924C263.104 754.915 264.982 754.728 266.796 754.363L266.974 755.457C265.935 755.671 264.918 755.824 263.925 755.915C262.931 756.006 261.924 756.049 260.903 756.045H259.878V748.102ZM280.769 751.656H282.737V752.723H280.769V759.189H279.47V746.912H280.769V751.656ZM271.745 748.088H277.474V749.141H273.044V755.061C274.129 755.056 275.081 755.024 275.901 754.965C276.722 754.906 277.551 754.801 278.39 754.65L278.554 755.744C277.688 755.899 276.838 756.004 276.004 756.059C275.174 756.113 274.188 756.141 273.044 756.141H272.729H271.745V748.088Z" fill="#EDEDED" fill-opacity="0.8"/>
<rect x="132.5" y="256.5" width="110" height="110" rx="21" stroke="#FF8A3D" stroke-width="6" stroke-linecap="round" stroke-linejoin="round"/>
<path d="M199 189V256.5M176 226.5V256.5M222.5 256.5V232C222.5 229 224 223 230 223C236 223 244.5 223 248 223M243.5 277H284C287.333 277.167 294 276.1 294 270.5C294 264.9 294 258.833 294 256.5M243.5 300H266M243.5 323.5H301C303.667 323.5 309 324.8 309 330V349M243.5 347H267.5C269.833 347.167 274.5 348.6 274.5 353V368.5M222 367V389.5C222.167 392.833 224 399.5 230 399.5H252M205 367V467.5M179.5 367V393.5M151.5 367V399.5C151.667 402.833 150.3 409.5 143.5 409.5H133.5M132 347H99.5C96.8333 347 91.5 348.6 91.5 355V381M132 323.5H64M132 300H89.5M132 276H103.5C100.167 275.667 93.5 272.8 93.5 264V250.5M151.5 256.5V226.5C151.667 223.333 150 217 142 217H113.5" stroke="#FF8A3D" stroke-width="6" stroke-linecap="round" stroke-linejoin="round"/>
<circle cx="199" cy="189.5" r="8.5" fill="#111111" stroke="#FF8A3D" stroke-width="6"/>
<circle cx="205" cy="467.5" r="8.5" fill="#111111" stroke="#FF8A3D" stroke-width="6"/>
<circle cx="179.5" cy="401.5" r="8.5" fill="#111111" stroke="#FF8A3D" stroke-width="6"/>
<circle cx="257.5" cy="222.5" r="8.5" fill="#111111" stroke="#FF8A3D" stroke-width="6"/>
<circle cx="91.5" cy="390.5" r="8.5" fill="#111111" stroke="#FF8A3D" stroke-width="6"/>
<circle cx="273.5" cy="300.5" r="8.5" fill="#111111" stroke="#FF8A3D" stroke-width="6"/>
<circle cx="294" cy="250" r="9" fill="#FF8A3D"/>
<circle cx="309" cy="349" r="9" fill="#FF8A3D"/>
<circle cx="274.5" cy="375" r="6" stroke="#FF8A3D" stroke-width="6"/>
<circle cx="58" cy="324" r="6" stroke="#FF8A3D" stroke-width="6"/>
<circle cx="260" cy="399" r="6" stroke="#FF8A3D" stroke-width="6"/>
<circle cx="104" cy="217.5" r="9" fill="#FF8A3D"/>
<circle cx="93.5" cy="247" r="9" fill="#FF8A3D"/>
<circle cx="175.5" cy="224" r="9" fill="#FF8A3D"/>
<circle cx="82" cy="299" r="9" fill="#FF8A3D"/>
<circle cx="128" cy="409" r="9" fill="#FF8A3D"/>
<path d="M150.7 341L170.622 284.438H183.122L203.122 341H192.262L187.536 327.016H166.247L161.559 341H150.7ZM184.802 318.812L177.106 296H176.637L168.981 318.812H184.802Z" fill="#FF8A3D"/>
<path d="M219.997 341H209.841V284.438H219.997V341Z" fill="#FF8A3D"/>
<path opacity="0.1" d="M163.942 102.883H178.366V95.0215H185.886V121.955H156.423V95.0215H163.942V102.883ZM162.644 126.398H203.044V142.6H170.231V147.521H204.958V153.537H162.712V137.062H195.456V132.346H162.644V126.398ZM178.366 115.939V108.625H163.942V115.939H178.366ZM195.456 92.2871H203.044V104.797H211.657V110.949H203.044V123.938H195.456V92.2871ZM263.2 116.008H272.702V122.365H263.2V154.152H255.681V92.2871H263.2V116.008ZM217.263 97.6875H245.7V120.998H224.919V133.303C230.16 133.257 234.785 133.098 238.796 132.824C242.806 132.528 246.862 132.027 250.964 131.32L251.647 137.473C247.113 138.293 242.613 138.851 238.146 139.147C233.703 139.444 228.474 139.592 222.458 139.592H217.399V114.914H238.112V103.84H217.263V97.6875ZM325.476 127.355H282.136V97.6875H324.997V103.84H289.655V121.271H325.476V127.355ZM275.3 139.934H331.765V146.223H275.3V139.934Z" fill="#FF8A3D"/>
<path opacity="0.1" d="M59.5195 443.889H54.0508V418.205H59.5195V443.889ZM23.2891 422.502H34.0312V417.912H39.5V422.502H50.1445V426.799H23.2891V422.502ZM25.7793 436.027C25.7793 434.465 26.2269 433.098 27.1221 431.926C28.0173 430.754 29.2949 429.851 30.9551 429.216C32.6152 428.581 34.5521 428.264 36.7656 428.264C38.9629 428.264 40.8835 428.581 42.5273 429.216C44.1875 429.851 45.4733 430.754 46.3848 431.926C47.2962 433.098 47.752 434.465 47.752 436.027C47.752 437.557 47.2962 438.9 46.3848 440.056C45.4733 441.211 44.1875 442.106 42.5273 442.741C40.8672 443.376 38.9466 443.693 36.7656 443.693C34.5684 443.693 32.6396 443.376 30.9795 442.741C29.3193 442.106 28.0335 441.211 27.1221 440.056C26.2269 438.9 25.7793 437.557 25.7793 436.027ZM30.3203 445.744H35.6914V449.553H54.0996V445.744H59.5195V461.809H30.3203V445.744ZM30.9551 436.027C30.9551 437.183 31.4596 438.078 32.4688 438.713C33.4941 439.331 34.8939 439.641 36.668 439.641C38.5072 439.641 39.9476 439.331 40.9893 438.713C42.0309 438.094 42.5599 437.199 42.5762 436.027C42.5599 434.855 42.0309 433.944 40.9893 433.293C39.9639 432.642 38.556 432.316 36.7656 432.316C34.959 432.316 33.5348 432.642 32.4932 433.293C31.4678 433.944 30.9551 434.855 30.9551 436.027ZM54.0996 457.512V453.703H35.6914V457.512H54.0996ZM100.779 429.094H106.932V433.586H100.779V443.986H95.3594V418.205H100.779V429.094ZM66.0137 422.307H76.4141V417.863H81.834V422.307H92.1855V426.652H66.0137V422.307ZM68.2598 435.93C68.2598 434.383 68.7155 433.024 69.627 431.853C70.5384 430.681 71.8079 429.777 73.4355 429.143C75.0794 428.492 76.9674 428.166 79.0996 428.166C81.1992 428.166 83.0628 428.492 84.6904 429.143C86.3343 429.777 87.612 430.681 88.5234 431.853C89.4349 433.024 89.8906 434.383 89.8906 435.93C89.8906 437.476 89.4349 438.835 88.5234 440.007C87.612 441.179 86.3343 442.09 84.6904 442.741C83.0628 443.376 81.1992 443.693 79.0996 443.693C76.9674 443.693 75.0794 443.376 73.4355 442.741C71.8079 442.106 70.5384 441.203 69.627 440.031C68.7155 438.843 68.2598 437.476 68.2598 435.93ZM72.2637 445.744H77.6348V449.553H95.3594V445.744H100.779V461.809H72.2637V445.744ZM73.5332 435.93C73.5169 437.102 74.0133 438.021 75.0225 438.688C76.0479 439.356 77.4069 439.689 79.0996 439.689C80.7923 439.689 82.1514 439.356 83.1768 438.688C84.2021 438.021 84.7148 437.102 84.7148 435.93C84.7148 434.774 84.2021 433.863 83.1768 433.195C82.1514 432.512 80.7923 432.17 79.0996 432.17C77.4069 432.17 76.0479 432.512 75.0225 433.195C74.0133 433.863 73.5169 434.774 73.5332 435.93ZM95.3594 457.512V453.752H77.6348V457.512H95.3594Z" fill="#FF8A3D"/>
<path opacity="0.24" d="M169.824 496.719H180.449C182.572 496.719 184.375 497.096 185.859 497.852C187.357 498.594 188.483 499.642 189.238 500.996C190.007 502.35 190.397 503.932 190.41 505.742C190.397 507.669 189.954 509.329 189.082 510.723C188.223 512.103 186.966 513.125 185.312 513.789L191.426 525H185.762L180.215 514.648H174.902V525H169.824V496.719ZM179.668 510.391C183.366 510.404 185.215 508.854 185.215 505.742C185.215 504.206 184.759 503.027 183.848 502.207C182.936 501.387 181.543 500.977 179.668 500.977H174.902V510.391H179.668ZM202.969 525.391C201.094 525.391 199.453 525.052 198.047 524.375C196.654 523.685 195.579 522.741 194.824 521.543C194.069 520.345 193.691 518.997 193.691 517.5C193.691 516.432 193.906 515.469 194.336 514.609C194.766 513.75 195.358 512.962 196.113 512.246C196.868 511.517 197.832 510.749 199.004 509.941C198.079 508.796 197.363 507.702 196.855 506.66C196.361 505.618 196.113 504.518 196.113 503.359C196.113 502.018 196.419 500.82 197.031 499.766C197.643 498.698 198.509 497.865 199.629 497.266C200.749 496.667 202.038 496.367 203.496 496.367C204.928 496.367 206.191 496.654 207.285 497.227C208.379 497.799 209.219 498.574 209.805 499.551C210.391 500.514 210.684 501.576 210.684 502.734C210.684 504.049 210.365 505.241 209.727 506.309C209.089 507.363 208.158 508.333 206.934 509.219L205.137 510.547L210.312 516.621C211.107 515.111 211.504 513.464 211.504 511.68H215.801C215.788 513.516 215.56 515.137 215.117 516.543C214.674 517.949 214.082 519.154 213.34 520.156L217.48 525H212.09L210.273 522.93C209.297 523.75 208.164 524.368 206.875 524.785C205.599 525.189 204.297 525.391 202.969 525.391ZM198.574 517.266C198.574 518.008 198.763 518.691 199.141 519.316C199.531 519.928 200.072 520.417 200.762 520.781C201.465 521.146 202.272 521.328 203.184 521.328C203.926 521.328 204.674 521.198 205.43 520.938C206.185 520.677 206.895 520.306 207.559 519.824L201.68 513.066L201.23 513.398C200.332 514.049 199.661 514.72 199.219 515.41C198.789 516.1 198.574 516.719 198.574 517.266ZM200.527 503.438C200.54 504.036 200.716 504.655 201.055 505.293C201.406 505.931 201.914 506.667 202.578 507.5L204.199 506.406C204.967 505.911 205.534 505.397 205.898 504.863C206.276 504.316 206.465 503.698 206.465 503.008C206.465 502.591 206.341 502.188 206.094 501.797C205.859 501.393 205.521 501.074 205.078 500.84C204.648 500.592 204.147 500.469 203.574 500.469C203.001 500.469 202.48 500.605 202.012 500.879C201.556 501.152 201.198 501.517 200.938 501.973C200.677 502.428 200.54 502.917 200.527 503.438ZM220.176 496.719H230.996C232.988 496.719 234.668 497.031 236.035 497.656C237.415 498.281 238.444 499.147 239.121 500.254C239.811 501.361 240.163 502.63 240.176 504.062C240.163 505.703 239.701 507.031 238.789 508.047C237.891 509.049 236.699 509.727 235.215 510.078V510.352C236.243 510.404 237.22 510.716 238.145 511.289C239.082 511.862 239.837 512.669 240.41 513.711C240.983 514.74 241.27 515.938 241.27 517.305C241.27 518.802 240.905 520.13 240.176 521.289C239.46 522.448 238.379 523.359 236.934 524.023C235.488 524.674 233.717 525 231.621 525H220.176V496.719ZM230.84 520.742C232.624 520.742 233.945 520.404 234.805 519.727C235.664 519.036 236.1 518.099 236.113 516.914C236.1 516.068 235.885 515.306 235.469 514.629C235.052 513.952 234.453 513.418 233.672 513.027C232.891 512.624 231.986 512.422 230.957 512.422H225.254V520.742H230.84ZM230.371 508.75C231.27 508.75 232.07 508.587 232.773 508.262C233.49 507.923 234.056 507.448 234.473 506.836C234.889 506.224 235.098 505.508 235.098 504.688C235.085 503.568 234.681 502.663 233.887 501.973C233.092 501.283 231.96 500.938 230.488 500.938H225.254V508.75H230.371Z" fill="#FF8A3D"/>
<path opacity="0.1" d="M272.26 178.057C273.451 178.057 274.525 178.374 275.482 179.009C276.439 179.644 277.216 180.547 277.812 181.719H284.008V176.123H287.23V202.637H284.008V192.617H278.046C277.47 193.945 276.679 194.971 275.673 195.693C274.667 196.416 273.529 196.777 272.26 196.777C270.932 196.777 269.75 196.396 268.715 195.635C267.689 194.863 266.889 193.77 266.312 192.354C265.746 190.938 265.463 189.287 265.463 187.402C265.463 185.527 265.746 183.887 266.312 182.48C266.889 181.064 267.694 179.976 268.729 179.214C269.765 178.442 270.941 178.057 272.26 178.057ZM268.598 187.402C268.598 188.74 268.749 189.893 269.052 190.859C269.354 191.826 269.779 192.563 270.326 193.071C270.883 193.579 271.527 193.838 272.26 193.848C272.992 193.838 273.637 193.579 274.193 193.071C274.75 192.563 275.18 191.826 275.482 190.859C275.795 189.893 275.951 188.74 275.951 187.402C275.951 186.074 275.795 184.927 275.482 183.96C275.18 182.993 274.75 182.256 274.193 181.748C273.637 181.24 272.992 180.986 272.26 180.986C271.527 180.986 270.883 181.245 270.326 181.763C269.779 182.271 269.354 183.008 269.052 183.975C268.749 184.932 268.598 186.074 268.598 187.402ZM278.734 184.385C278.93 185.332 279.027 186.338 279.027 187.402C279.027 188.311 278.954 189.17 278.808 189.98H284.008V184.385H278.734ZM313.012 191.123H309.73V176.152H313.012V191.123ZM290.951 188.018C292.338 187.578 293.52 186.934 294.496 186.084C295.482 185.225 296.225 184.248 296.723 183.154C297.221 182.051 297.465 180.908 297.455 179.727V177.148H300.824V179.727C300.814 180.869 301.059 181.958 301.557 182.993C302.055 184.019 302.782 184.932 303.739 185.732C304.706 186.533 305.863 187.148 307.211 187.578L305.629 190.068C304.125 189.6 302.826 188.901 301.732 187.974C300.639 187.036 299.784 185.923 299.169 184.634C298.563 186.03 297.699 187.246 296.576 188.281C295.453 189.307 294.115 190.078 292.562 190.596L290.951 188.018ZM295.434 192.441H313.012V202.285H295.434V192.441ZM309.818 199.648V195.02H298.656V199.648H309.818ZM339.086 202.637H335.834V188.164H330.736V185.498H335.834V176.123H339.086V202.637ZM316.527 195.02C317.904 194.365 319.101 193.418 320.116 192.178C321.132 190.938 321.913 189.531 322.46 187.959C323.007 186.387 323.285 184.785 323.295 183.154V181.396H317.611V178.73H332.289V181.396H326.605V183.154C326.605 184.697 326.874 186.221 327.411 187.725C327.948 189.229 328.725 190.571 329.74 191.753C330.766 192.935 331.967 193.828 333.344 194.434L331.41 197.041C329.906 196.328 328.607 195.283 327.514 193.906C326.42 192.529 325.575 190.938 324.979 189.131C324.384 191.045 323.529 192.739 322.416 194.214C321.303 195.688 319.994 196.807 318.49 197.568L316.527 195.02ZM356.898 177.822C356.898 178.779 356.811 179.697 356.635 180.576H361.732V176.152H364.984V191.885H361.732V188.809H355.375V186.172H361.732V183.184H355.829C354.94 185.234 353.524 186.982 351.581 188.428C349.638 189.873 347.24 190.977 344.389 191.738L343.158 189.131C345.17 188.604 346.908 187.915 348.373 187.065C349.848 186.206 351.005 185.22 351.845 184.106C352.694 182.993 353.212 181.787 353.397 180.488H344.594V177.822H356.898ZM346.938 192.998H364.984V202.52H361.732V195.576H346.938V192.998Z" fill="#FF8A3D"/>
<path opacity="0.15" d="M60.9414 177.93H63.4219V179.727H60.9414V184.043H58.7734V174.102H60.9414V177.93ZM47.7773 174.961H49.9648V181.182C52.4193 181.149 54.8281 180.905 57.1914 180.449L57.4453 182.227C56.0781 182.5 54.7207 182.692 53.373 182.803C52.0319 182.913 50.6549 182.969 49.2422 182.969H47.7773V174.961ZM49.5156 184.902H60.9414V191.504H49.5156V184.902ZM58.8125 189.785V186.602H51.6445V189.785H58.8125ZM70.7656 176.621C70.7591 177.435 70.9121 178.206 71.2246 178.936C71.5436 179.658 72.0156 180.296 72.6406 180.85C73.2656 181.396 74.0273 181.81 74.9258 182.09L73.7539 183.789C72.8099 183.451 71.9993 182.972 71.3223 182.354C70.6452 181.735 70.1146 180.999 69.7305 180.146C69.3333 181.13 68.7637 181.982 68.0215 182.705C67.2793 183.421 66.3841 183.965 65.3359 184.336L64.1836 182.578C65.1341 182.266 65.9382 181.813 66.5957 181.221C67.2533 180.628 67.7448 179.948 68.0703 179.18C68.4023 178.405 68.5716 177.585 68.5781 176.719V175.039H70.7656V176.621ZM67.1133 188.34C67.1068 187.63 67.3444 187.021 67.8262 186.514C68.3079 185.999 68.998 185.609 69.8965 185.342C70.8014 185.075 71.8724 184.941 73.1094 184.941C74.3529 184.941 75.4271 185.075 76.332 185.342C77.237 185.609 77.9303 185.999 78.4121 186.514C78.9004 187.021 79.1445 187.63 79.1445 188.34C79.1445 189.049 78.9004 189.658 78.4121 190.166C77.9303 190.674 77.237 191.058 76.332 191.318C75.4271 191.585 74.3529 191.719 73.1094 191.719C71.8724 191.719 70.8014 191.585 69.8965 191.318C68.998 191.058 68.3079 190.674 67.8262 190.166C67.3444 189.658 67.1068 189.049 67.1133 188.34ZM69.2617 188.34C69.2552 188.874 69.5872 189.287 70.2578 189.58C70.9284 189.867 71.8789 190.013 73.1094 190.02C74.3464 190.013 75.3001 189.867 75.9707 189.58C76.6413 189.287 76.9766 188.874 76.9766 188.34C76.9766 187.786 76.6413 187.363 75.9707 187.07C75.3066 186.777 74.3529 186.628 73.1094 186.621C71.8724 186.628 70.9186 186.777 70.248 187.07C69.584 187.363 69.2552 187.786 69.2617 188.34ZM73.4023 177.5H76.918V174.082H79.0859V184.473H76.918V179.277H73.4023V177.5ZM96 177.402V177.607C95.9935 178.59 95.974 179.443 95.9414 180.166C95.9154 180.882 95.8535 181.715 95.7559 182.666C95.6582 183.61 95.5052 184.635 95.2969 185.742L93.1094 185.508C93.3242 184.447 93.4805 183.447 93.5781 182.51C93.6823 181.566 93.7441 180.736 93.7637 180.02C93.7897 179.303 93.806 178.444 93.8125 177.441H83.2656V175.703H96V177.402ZM81.5859 187.676H87.5234V181.543H89.6719V187.676H97.6797V189.453H81.5859V187.676ZM106.898 174.434C108.194 174.434 109.32 174.57 110.277 174.844C111.234 175.117 111.97 175.514 112.484 176.035C113.005 176.549 113.266 177.161 113.266 177.871C113.266 178.568 113.005 179.17 112.484 179.678C111.97 180.179 111.234 180.563 110.277 180.83C109.32 181.097 108.194 181.23 106.898 181.23C105.616 181.23 104.493 181.097 103.529 180.83C102.572 180.563 101.833 180.179 101.312 179.678C100.792 179.17 100.531 178.568 100.531 177.871C100.531 177.161 100.792 176.549 101.312 176.035C101.833 175.514 102.572 175.117 103.529 174.844C104.493 174.57 105.616 174.434 106.898 174.434ZM98.8711 182.422H114.965V184.18H98.8711V182.422ZM100.766 185.586H113.012V191.523H100.766V185.586ZM102.797 177.871C102.79 178.398 103.148 178.809 103.871 179.102C104.594 179.395 105.603 179.544 106.898 179.551C108.194 179.544 109.203 179.395 109.926 179.102C110.655 178.809 111.02 178.398 111.02 177.871C111.02 177.311 110.658 176.882 109.936 176.582C109.213 176.283 108.201 176.133 106.898 176.133C105.596 176.133 104.584 176.283 103.861 176.582C103.145 176.882 102.79 177.311 102.797 177.871ZM110.902 189.766V187.305H102.914V189.766H110.902Z" fill="#FF8A3D"/>
<path opacity="0.3" d="M44.6289 273.977H47.2461V275.793H44.6289V284.699H42.4609V267.082H44.6289V273.977ZM30.7031 279.875C32.8581 278.801 34.5182 277.508 35.6836 275.998C36.849 274.481 37.5391 272.72 37.7539 270.715H31.6602V268.918H39.9609C39.9479 274.712 37.2721 278.924 31.9336 281.555L30.7031 279.875ZM56.1133 267.355C57.4544 267.355 58.6003 267.473 59.5508 267.707C60.5013 267.941 61.2272 268.286 61.7285 268.742C62.2298 269.191 62.4805 269.738 62.4805 270.383C62.4805 271.034 62.2298 271.587 61.7285 272.043C61.2272 272.499 60.5013 272.844 59.5508 273.078C58.6003 273.306 57.4544 273.423 56.1133 273.43C54.7721 273.423 53.6263 273.306 52.6758 273.078C51.7253 272.844 50.9993 272.499 50.498 272.043C49.9967 271.587 49.7461 271.034 49.7461 270.383C49.7461 269.738 49.9967 269.191 50.498 268.742C50.9993 268.286 51.7253 267.945 52.6758 267.717C53.6263 267.482 54.7721 267.362 56.1133 267.355ZM48.0859 274.367H64.1797V276.105H48.0859V274.367ZM49.9805 277.297H62.168V281.613H52.1289V282.922H62.6562V284.582H50V280.07H60.0391V278.898H49.9805V277.297ZM52.0312 270.383C52.0247 270.865 52.3633 271.223 53.0469 271.457C53.7305 271.691 54.7526 271.809 56.1133 271.809C57.487 271.809 58.5156 271.691 59.1992 271.457C59.8893 271.223 60.2344 270.865 60.2344 270.383C60.2344 269.927 59.8828 269.576 59.1797 269.328C58.4831 269.081 57.4609 268.957 56.1133 268.957C54.7786 268.957 53.763 269.081 53.0664 269.328C52.3698 269.576 52.0247 269.927 52.0312 270.383Z" fill="#FF8A3D"/>
<path opacity="0.2" d="M297.997 407.582H296.028V391.674H297.997V407.582ZM285.622 392.975H287.573V396.947H291.423V392.975H293.356V403.838H285.622V392.975ZM291.423 402.238V398.477H287.573V402.238H291.423ZM307.56 392.57C308.69 392.57 309.704 392.749 310.601 393.106C311.503 393.464 312.209 393.968 312.719 394.618C313.229 395.269 313.483 396.016 313.483 396.859C313.483 397.639 313.275 398.333 312.859 398.942C312.443 399.552 311.86 400.044 311.11 400.419C310.36 400.788 309.499 401.022 308.526 401.122V404.031H314.854V405.631H300.335V404.031H306.593V401.122C305.626 401.022 304.771 400.788 304.026 400.419C303.282 400.044 302.702 399.552 302.286 398.942C301.876 398.333 301.671 397.639 301.671 396.859C301.671 396.016 301.923 395.269 302.427 394.618C302.937 393.968 303.637 393.464 304.527 393.106C305.424 392.749 306.435 392.57 307.56 392.57ZM303.587 396.859C303.587 397.422 303.754 397.911 304.088 398.327C304.422 398.737 304.891 399.054 305.494 399.276C306.098 399.493 306.786 399.602 307.56 399.602C308.345 399.602 309.039 399.493 309.643 399.276C310.252 399.054 310.724 398.737 311.058 398.327C311.397 397.911 311.567 397.422 311.567 396.859C311.567 396.314 311.397 395.837 311.058 395.427C310.718 395.017 310.243 394.703 309.634 394.486C309.03 394.264 308.339 394.152 307.56 394.152C306.786 394.152 306.098 394.264 305.494 394.486C304.896 394.703 304.428 395.017 304.088 395.427C303.754 395.837 303.587 396.314 303.587 396.859ZM328.759 397.721H317.755V392.254H319.688V396.174H328.759V397.721ZM315.874 399.566H330.394V401.113H315.874V399.566ZM317.614 402.52H319.565V405.613H328.864V407.195H317.614V402.52ZM348.253 394.768H350.468V396.385H348.253V399.584H346.302V391.674H348.253V394.768ZM336.405 392.377H338.374V397.404C340.606 397.375 342.769 397.158 344.86 396.754L345.089 398.354C343.847 398.605 342.625 398.781 341.424 398.881C340.223 398.98 338.989 399.027 337.724 399.021H336.405V392.377ZM337.864 400.27H348.253V404.488H339.833V405.789H348.745V407.371H337.882V402.994H346.284V401.816H337.864V400.27Z" fill="#FF8A3D"/>
</svg>
