<svg width="375" height="812" viewBox="0 0 375 812" fill="none" xmlns="http://www.w3.org/2000/svg">
<g clip-path="url(#clip0_212_555)">
<rect width="375" height="812" fill="#111111"/>
<path d="M51.2182 539.07C59.1672 522.841 66.3055 502.153 68.5136 495.943C107.928 464.809 151.592 482.556 169.533 494.701C169.533 497.35 175.008 512.85 177.078 518.784C185.69 542.3 191.431 594.272 193.225 615.249H42.5239C40.4539 596.618 41.2819 559.357 51.2182 539.07Z" fill="#232323" stroke="#232323" stroke-width="1.5"/>
<path d="M33.7882 465.72C32.5367 461.965 32.4182 446.832 32.5252 438.537C32.5368 437.638 32.8409 436.756 33.4858 436.129C39.2678 430.509 49.263 432.028 54.6298 433.852C55.3554 434.098 55.9689 434.585 56.4167 435.207L61.1329 441.757C62.306 443.387 62.0949 445.632 60.6155 446.989C50.8429 455.957 34.9997 469.354 33.7882 465.72Z" fill="#FFC683" stroke="#8C3800" stroke-width="1.5"/>
<path d="M139.31 350.21C134.01 349.217 130.616 344 133.1 326.612L114.055 315.847H91.2844L92.5264 322.471C95.1761 341.019 88.3863 350.348 84.6602 352.694C104.864 375.548 129.512 360.561 139.31 350.21Z" fill="#FDEAC7" stroke="#8C3800" stroke-width="1.5"/>
<path d="M87.7556 272.537C92.5022 268.461 95.8341 256.459 97.1205 249.837C96.4441 251.423 93.7871 255.053 86.519 261.802C78.2156 269.512 76.5944 281.117 76.8413 287.522C76.9879 288.299 77.0271 288.994 76.9967 289.541C76.9245 288.949 76.8701 288.271 76.8413 287.522C76.3216 284.771 74.4523 280.999 69.5445 279.191C61.6782 276.292 57.9289 292.049 64.3737 300.305C69.5445 306.929 73.896 306.515 78.4501 306.929C80.1061 312.229 88.4511 321.696 92.3152 324.732C93.8332 325.284 96.4553 329.12 94.7993 340.05C93.1432 350.98 83.8323 357.823 78.0361 354.764C54.1889 342.178 37.3895 346.399 33.5254 349.987C23.5891 332.184 44.2897 310.656 45.9458 305.687C47.6018 300.719 55.8821 299.891 55.054 266.77C54.3916 240.273 72.1666 229.233 81.1368 227.025C118.812 197.216 146.965 225.369 154.417 243.999C161.869 262.63 155.659 270.082 156.487 285.815C157.315 301.547 170.15 309.413 179.672 317.28C187.29 323.573 185.882 332.598 184.226 336.324C167.666 326.388 147.13 353.499 139.724 349.796C138.068 348.968 135.584 348.554 134.756 345.656L133.1 341.102L132.686 334.892L133.1 328.682L137.654 324.127C145.934 308.809 145.723 299.063 146.965 294.095C147.959 290.12 147.379 278.639 146.965 273.394C145.64 265.777 137.857 265.804 134.13 266.77C130.956 268.012 121.959 269.917 111.36 267.598C101.743 265.495 92.3078 269.594 87.7556 272.537C87.3535 272.882 86.9411 273.171 86.519 273.394C86.877 273.126 87.2909 272.838 87.7556 272.537Z" fill="#232323"/>
<path d="M97.2833 248.968C96.0413 255.868 92.1496 270.413 86.519 273.394C90.3831 270.496 100.761 265.28 111.36 267.598C121.959 269.917 130.956 268.012 134.13 266.77C137.857 265.804 145.64 265.777 146.965 273.394C147.379 278.639 147.959 290.12 146.965 294.095C145.723 299.063 145.934 308.809 137.654 324.127L133.1 328.682L132.686 334.892L133.1 341.102L134.756 345.656C135.584 348.554 138.068 348.968 139.724 349.796C147.13 353.499 167.666 326.388 184.226 336.324C185.882 332.598 187.29 323.573 179.672 317.28C170.15 309.413 157.315 301.547 156.487 285.815C155.659 270.082 161.869 262.63 154.417 243.999C146.965 225.369 118.812 197.216 81.1368 227.025C72.1666 229.233 54.3916 240.273 55.054 266.77C55.8821 299.891 47.6018 300.719 45.9458 305.687C44.2897 310.656 23.5891 332.184 33.5254 349.987C37.3895 346.399 54.1889 342.178 78.0361 354.764C83.8323 357.823 93.1432 350.98 94.7993 340.05C96.4553 329.12 93.8332 325.284 92.3152 324.732C88.4511 321.696 80.1061 312.229 78.4501 306.929C73.896 306.515 69.5445 306.929 64.3737 300.305C57.9289 292.049 61.6782 276.292 69.5445 279.191C75.8375 281.509 77.1347 287.057 76.9967 289.541C76.3067 283.883 77.2451 270.413 86.519 261.802C95.7929 253.191 97.5594 249.658 97.2833 248.968Z" stroke="#232323" stroke-width="1.5" stroke-linecap="round" stroke-linejoin="round"/>
<path d="M61.6404 288.299C62.9652 276.375 71.0246 278.363 74.8888 280.847C75.9038 282.369 76.6596 285.447 77.0817 287.734C75.5548 275.851 82.018 265.331 87.1441 261.388C91.4499 258.076 94.0714 256.282 94.7614 254.764C95.4238 260.726 90.1802 269.53 87.1441 272.566C89.3522 270.772 95.4054 266.196 102.463 266.77C112.648 267.598 123.328 268.426 129.124 267.598C134.921 266.77 141.545 264.7 146.513 269.668C150.487 273.643 150.101 286.229 149.411 292.025C149.411 303.341 144.195 327.547 123.328 333.84C102.462 340.133 84.8251 319.35 78.6149 308.171C71.1627 308.585 59.9843 303.203 61.6404 288.299Z" fill="#FDEAC7"/>
<path d="M77.0817 287.734C75.5548 275.851 82.018 265.331 87.1441 261.388C91.4499 258.076 94.0714 256.282 94.7614 254.764C95.4238 260.726 90.1802 269.53 87.1441 272.566C89.3522 270.772 95.4054 266.196 102.463 266.77C112.648 267.598 123.328 268.426 129.124 267.598C134.921 266.77 141.545 264.7 146.513 269.668C150.487 273.643 150.101 286.229 149.411 292.025C149.411 303.341 144.195 327.547 123.328 333.84C102.462 340.133 84.8251 319.35 78.6149 308.171C71.1627 308.585 59.9843 303.203 61.6404 288.299C62.9652 276.375 71.0246 278.363 74.8888 280.847C75.9038 282.369 76.6596 285.447 77.0817 287.734ZM77.0817 287.734C77.158 288.328 77.2547 288.93 77.3728 289.541C77.3083 289.057 77.2106 288.432 77.0817 287.734Z" stroke="#8C3800" stroke-width="1.5"/>
<path d="M114.634 286.229C114.634 289.201 112.966 291.611 110.908 291.611C108.85 291.611 107.182 289.201 107.182 286.229C107.182 283.256 108.85 280.847 110.908 280.847C112.966 280.847 114.634 283.256 114.634 286.229Z" fill="#8C3800"/>
<path d="M113.806 284.987C113.806 285.901 113.435 286.643 112.978 286.643C112.521 286.643 112.15 285.901 112.15 284.987C112.15 284.072 112.521 283.331 112.978 283.331C113.435 283.331 113.806 284.072 113.806 284.987Z" fill="white"/>
<path d="M140.303 284.987C140.303 287.731 138.82 289.955 136.991 289.955C135.162 289.955 133.679 287.731 133.679 284.987C133.679 282.243 135.162 280.019 136.991 280.019C138.82 280.019 140.303 282.243 140.303 284.987Z" fill="#8C3800"/>
<path d="M139.723 283.993C139.723 284.816 139.39 285.484 138.978 285.484C138.567 285.484 138.233 284.816 138.233 283.993C138.233 283.17 138.567 282.503 138.978 282.503C139.39 282.503 139.723 283.17 139.723 283.993Z" fill="white"/>
<path fill-rule="evenodd" clip-rule="evenodd" d="M111.519 270.351C111.828 270.688 111.805 271.212 111.468 271.521C109.357 273.455 106.265 274.915 103.329 275.955C100.377 277.001 97.4915 277.655 95.7207 277.938C95.2691 278.01 94.8445 277.703 94.7722 277.251C94.7 276.8 95.0075 276.375 95.459 276.303C97.1383 276.034 99.9252 275.404 102.776 274.394C105.643 273.378 108.485 272.009 110.349 270.3C110.686 269.991 111.21 270.014 111.519 270.351Z" fill="#8C3800"/>
<path fill-rule="evenodd" clip-rule="evenodd" d="M134.89 273.155C132.517 273.833 130.501 275.286 129.373 276.789C129.099 277.155 128.58 277.229 128.214 276.955C127.848 276.68 127.774 276.161 128.048 275.796C129.405 273.987 131.735 272.334 134.435 271.563C137.153 270.786 140.299 270.891 143.221 272.689C143.611 272.929 143.732 273.439 143.492 273.828C143.253 274.218 142.743 274.339 142.353 274.1C139.893 272.586 137.243 272.483 134.89 273.155Z" fill="#8C3800"/>
<path fill-rule="evenodd" clip-rule="evenodd" d="M128.518 294.774C128.829 294.439 129.353 294.419 129.688 294.73C130.706 295.675 132.004 297.285 132.396 299.015C132.597 299.905 132.567 300.871 132.083 301.778C131.602 302.68 130.729 303.417 129.451 303.964C129.03 304.145 128.544 303.95 128.364 303.529C128.183 303.109 128.378 302.622 128.798 302.442C129.839 301.996 130.367 301.477 130.622 300.998C130.875 300.524 130.917 299.984 130.78 299.381C130.496 298.123 129.476 296.793 128.561 295.944C128.226 295.633 128.207 295.109 128.518 294.774Z" fill="#8C3800"/>
<path fill-rule="evenodd" clip-rule="evenodd" d="M126.948 311.964C124.046 312.991 121.101 314.863 119.282 316.277C118.921 316.558 118.401 316.493 118.121 316.132C117.84 315.771 117.905 315.251 118.266 314.97C120.173 313.487 123.273 311.508 126.395 310.403C129.439 309.326 132.922 308.943 135.117 311.338C135.426 311.675 135.403 312.199 135.066 312.508C134.729 312.817 134.205 312.794 133.896 312.457C132.448 310.878 129.928 310.909 126.948 311.964Z" fill="#8C3800"/>
<ellipse cx="107.845" cy="297.63" rx="7.45223" ry="3.3121" fill="#FFB07C"/>
<ellipse cx="145.934" cy="296.802" rx="5.79618" ry="2.48408" fill="#FFB07C"/>
<path d="M63.9594 287.45C64.3734 283.968 66.3631 281.897 67.1509 281.588C67.5448 281.28 68.6281 280.786 69.8098 281.28C71.287 281.897 70.4007 283.131 69.2189 283.131C68.0372 283.131 66.6203 284.3 66.0295 287.694C65.4386 291.088 65.7436 292.452 66.4435 294.318C67.6855 297.631 65.4339 295.702 64.7874 294.732C63.9594 293.49 63.4931 291.372 63.9594 287.45Z" fill="#FFC683"/>
<path d="M84.1757 351.452C96.8721 357.938 124.749 366.357 134.685 348.14C134.919 346.388 134.748 343.924 133.485 342.807C133.193 342.647 132.926 342.493 132.686 342.344C132.991 342.446 133.256 342.604 133.485 342.807C136.713 344.572 142.826 346.925 145.864 348.14C150.004 349.796 167.806 347.312 182.297 363.045C196.787 378.777 210.934 410.242 214.59 411.898C206.123 416.807 189.079 426.014 181.68 427.762C181.792 432.557 181.178 436.911 179.399 440.051C173.768 449.987 171.808 459.096 172.774 462.408C174.154 469.998 176.501 488.573 174.844 492.217C173.188 495.86 168.082 500.635 164.494 503.809L133.1 509.191L95.8386 503.809C92.8025 503.395 76.2971 503.643 74.3099 502.981C71.8258 502.153 64.7876 494.701 64.3736 492.217C63.9596 489.733 65.9591 482.694 65.9591 481.866C65.9591 481.038 75.5519 435.911 73.0678 433.427C58.1634 430.115 24.5578 445.019 28.6979 440.051C32.8381 435.083 35.7361 401.134 37.3922 391.198C39.0483 381.261 41.9463 371.739 51.8826 367.185C59.8317 363.541 76.7234 355.178 84.1757 351.452Z" fill="#FF8A3D"/>
<path d="M179.399 428.045C184.698 428.376 205.067 417.418 214.59 411.898C210.934 410.242 196.787 378.777 182.297 363.045C167.806 347.312 150.004 349.796 145.864 348.14C142.551 346.815 135.584 344.138 132.686 342.344C134.673 343.006 134.961 346.07 134.685 348.14C124.749 366.357 96.8721 357.938 84.1757 351.452C76.7234 355.178 59.8317 363.541 51.8826 367.185C41.9463 371.739 39.0483 381.261 37.3922 391.198C35.7361 401.134 32.8381 435.083 28.6979 440.051C24.5578 445.019 58.1634 430.115 73.0678 433.427C75.5519 435.911 65.9591 481.038 65.9591 481.866C65.9591 482.694 63.9596 489.733 64.3736 492.217C64.7876 494.701 71.8258 502.153 74.3099 502.981C76.2972 503.643 92.8025 503.395 95.8386 503.809L133.1 509.191L164.494 503.809C168.082 500.635 173.188 495.86 174.844 492.217C176.501 488.573 174.154 469.998 172.774 462.408C171.808 459.096 173.768 449.987 179.399 440.051C185.029 430.115 178.985 408.034 175.258 398.236" stroke="#FF8A3D" stroke-width="1.5"/>
<path d="M68.102 378.18L71.803 367.98C72.513 366.023 74.6052 364.938 76.6137 365.484L81.7902 366.893C84.0179 367.5 85.2711 369.861 84.5251 372.046L81.4004 381.196C80.6858 383.289 78.4088 384.405 76.3171 383.687L69.6408 381.397C68.3185 380.944 67.6251 379.494 68.102 378.18Z" fill="#525252" stroke="#525252" stroke-width="1.5"/>
<path d="M140.511 455.368C130.906 458.349 110.84 458.266 106.148 457.852C102.422 457.662 95.3837 457.024 93.7277 457.024C92.0716 457.024 92.4856 459.094 100.352 459.922C108.218 460.75 117.74 464.062 123.951 466.546C130.161 469.03 145.106 474.828 150.861 473.584C162.513 471.066 171.258 466.918 172.431 459.096C173.3 453.301 176.451 444.715 176.157 445.433C172.431 454.541 164.11 455.368 161.212 455.368C158.314 455.368 152.517 451.642 140.511 455.368Z" fill="#DF6819"/>
<path d="M69.9415 377.732L73.7616 366.905C74.3666 365.191 76.0516 364.1 77.8635 364.25L82.3772 364.623C84.8974 364.832 86.5941 367.297 85.8885 369.726L83.1449 379.167C82.5889 381.081 80.7095 382.293 78.737 382.011L71.9448 381.039C70.3835 380.815 69.4167 379.22 69.9415 377.732Z" fill="#0A0A0A" stroke="#8C3800" stroke-width="1.5"/>
<path d="M175.549 382.155C172.9 384.473 174.445 395.541 175.549 400.785C176.101 402.579 177.288 406.085 177.62 405.754C178.034 405.34 178.862 396.231 180.104 390.021C181.346 383.811 178.862 379.257 175.549 382.155Z" fill="#DF6819"/>
<path d="M181.677 427.631C186.977 427.962 205.138 417.418 214.66 411.898C211.348 410.656 196.787 378.777 182.297 363.045C167.807 347.312 150.004 349.796 145.864 348.14C142.552 346.815 135.584 344.138 132.686 342.344C134.673 343.006 134.961 346.07 134.685 348.14C124.749 366.357 96.8723 357.938 84.1759 351.452C76.7237 355.178 59.832 363.541 51.8829 367.185C41.9466 371.739 39.0485 381.261 37.3925 391.198C35.7364 401.134 32.8383 435.083 28.6982 440.051C24.5581 445.019 58.5777 430.115 73.4821 433.427C75.9662 435.911 65.9594 481.038 65.9594 481.866C65.9594 482.694 63.5458 489.733 63.9598 492.217C64.3738 494.701 71.8261 502.981 74.3101 503.809C76.2974 504.471 91.9747 503.395 95.0108 503.809L133.1 509.605L164.494 503.809C168.083 500.635 173.189 495.86 174.845 492.217C176.501 488.573 174.155 469.998 172.775 462.408C171.809 459.096 173.768 449.987 179.399 440.051C185.029 430.115 178.985 408.034 175.259 398.236" stroke="#8C3800" stroke-width="1.5"/>
<path d="M90.3589 320.437C90.2914 317.672 90.2276 311.801 90.5129 310.442C90.8694 308.744 96.6049 301.9 97.2222 301.699C97.8394 301.497 103.285 296.556 104.52 296.154C105.754 295.751 108.134 297.461 106.676 299.97C105.218 302.48 101.291 305.796 100.674 305.997C100.056 306.198 99.6882 309.257 98.0304 311.154C96.3727 313.051 98.435 312.419 98.4435 319.423C99.2767 319.096 100.106 318.807 100.908 318.578C106.53 316.969 110.412 315.251 111.31 316.088C112.208 316.925 112.286 315.769 113.352 319.038C114.205 321.652 114.944 324.735 115.184 325.937C115.166 325.941 115.128 325.958 115.076 325.987C116.708 325.384 117.909 326.724 118.337 328.034C118.87 329.668 116.499 334.962 115.943 336.048C115.497 336.916 113.365 338.847 112.355 339.705C111.737 339.906 110.4 341.111 109.99 344.318C109.579 347.526 104.8 353.018 102.462 355.363C102.048 357.933 101.103 360.09 99.3127 361.137C98.5785 361.678 96.7582 363.914 95.3508 368.532C93.5915 374.305 90.8238 381.221 91.2845 383.331C91.7453 385.441 86.6299 388.555 78.6516 385.734C72.2689 383.477 72.592 377.163 73.5513 374.289C74.4527 372.865 76.2867 369.554 76.4119 367.705C76.5372 365.856 78.1818 363.361 78.9885 362.344C80.3091 359.879 83.0663 354.188 83.5301 351.144C84.1099 347.338 87.4518 332.461 86.9244 330.147C86.397 327.832 87.5158 324.981 87.9273 324.847C88.0543 324.806 88.803 324.346 89.9428 323.684C90.3833 323.359 90.3753 321.185 90.3589 320.437Z" fill="#FDEAC7"/>
<path d="M89.9428 323.684C90.3833 323.359 90.3753 321.185 90.3589 320.437C90.2914 317.672 90.2276 311.801 90.5129 310.442C90.8694 308.744 96.6049 301.9 97.2222 301.699C97.8394 301.497 103.285 296.556 104.52 296.154C105.754 295.751 108.134 297.461 106.676 299.97C105.218 302.48 101.291 305.796 100.674 305.997C100.056 306.198 99.6882 309.257 98.0304 311.154C96.3727 313.051 98.435 312.419 98.4435 319.423L99.4935 324.011M111.31 316.088C110.412 315.251 106.53 316.969 100.908 318.578C95.2857 320.186 88.3389 324.713 87.9273 324.847C87.5158 324.981 86.397 327.832 86.9244 330.147C87.4518 332.461 84.1099 347.338 83.5301 351.144C83.0663 354.188 80.3091 359.879 78.9885 362.344C78.1818 363.361 76.5372 365.856 76.4119 367.705C76.2867 369.554 74.4527 372.865 73.5513 374.289C72.592 377.163 72.2689 383.477 78.6516 385.734C86.6299 388.555 91.7453 385.441 91.2845 383.331C90.8238 381.221 93.5915 374.305 95.3508 368.532C96.7582 363.914 98.5785 361.678 99.3127 361.137C101.103 360.09 102.048 357.933 102.462 355.363M111.31 316.088C112.208 316.925 112.286 315.769 113.352 319.038C114.205 321.652 114.944 324.735 115.184 325.937C115.068 325.96 114.208 326.535 113.792 326.819C116.067 324.721 117.803 326.4 118.337 328.034C118.87 329.668 116.499 334.962 115.943 336.048C115.497 336.916 113.365 338.847 112.355 339.705C111.737 339.906 110.4 341.111 109.99 344.318C109.579 347.526 104.8 353.018 102.462 355.363M111.31 316.088L110.999 322.292C110.936 323.216 109.389 323.973 108.772 324.174M99.4935 324.011C102.711 323.64 109.826 323.443 112.543 325.63C115.94 328.364 114.355 329.785 114.404 332.029C114.453 334.274 113.763 334.951 113.068 336.308C112.511 337.393 111.666 338.121 111.321 338.46M99.4935 324.011L99.9976 329.045M99.9976 329.045C100.518 329.478 101.724 330.29 102.383 330.075C103.206 329.807 111.401 331.201 111.801 332.427C112.201 333.652 111.387 340.924 109.946 341.394C108.506 341.864 103.218 345.85 102.195 345.506M99.9976 329.045L101.235 336.326M101.235 336.326C102.077 336.75 103.556 337.605 104.883 338.074M101.235 336.326L97.4904 342.294C98.0352 342.569 99.8146 342.44 101.461 341.903M106.689 338.389C106.246 338.35 105.56 338.313 104.883 338.074M104.883 338.074C104.957 338.767 105.293 340.11 105.782 340.493M103.414 337.449C103.323 338.36 102.945 340.21 102.257 341.191M101.461 341.903C101.815 341.787 102.005 341.551 102.257 341.191M101.461 341.903C102.3 345.212 103.179 350.908 102.462 355.363M105.226 339.544C104.756 339.472 103.428 339.724 102.257 341.191" stroke="#FDEAC7" stroke-width="1.5" stroke-linejoin="round"/>
<path d="M98.4435 319.423C98.435 312.419 96.3727 313.051 98.0304 311.154C99.6882 309.257 100.056 306.198 100.674 305.997C101.291 305.796 105.218 302.48 106.676 299.97C108.134 297.461 105.754 295.751 104.52 296.154C103.285 296.556 97.8394 301.497 97.2222 301.699C96.6049 301.9 90.8694 308.744 90.5129 310.442C90.2276 311.801 90.2914 317.672 90.3589 320.437C90.3753 321.185 90.3833 323.359 89.9428 323.684M115.184 325.937C114.944 324.735 114.205 321.652 113.352 319.038C112.286 315.769 112.208 316.925 111.31 316.088C110.412 315.251 106.53 316.969 100.908 318.578C95.2857 320.186 88.3388 324.713 87.9273 324.847C87.5158 324.981 86.397 327.832 86.9244 330.147C87.4518 332.461 84.1099 347.338 83.5301 351.144C83.0663 354.188 80.3091 359.879 78.9885 362.344C78.1818 363.361 76.5372 365.856 76.4119 367.705C76.2867 369.554 74.4527 372.865 73.5513 374.289C72.592 377.163 72.2689 383.477 78.6516 385.734C86.6299 388.555 92.1593 385.027 91.6986 382.917C91.2378 380.807 93.5915 374.305 95.3508 368.532C96.7582 363.914 98.5785 361.678 99.3127 361.137C101.103 360.09 102.048 357.933 102.462 355.363M99.4935 324.011C102.711 323.64 109.826 323.443 112.543 325.63C115.94 328.364 114.355 329.785 114.404 332.029C114.453 334.274 113.763 334.951 113.068 336.308C112.511 337.393 111.666 338.121 111.321 338.46M99.9976 329.045C100.518 329.478 101.724 330.29 102.383 330.075C103.206 329.807 111.401 331.201 111.801 332.427C112.201 333.652 111.387 340.924 109.946 341.394C108.506 341.864 103.218 345.85 102.195 345.506M101.235 336.326C102.077 336.75 103.556 337.605 104.883 338.074M106.689 338.389C106.246 338.35 105.56 338.313 104.883 338.074M104.883 338.074C104.957 338.767 105.293 340.11 105.782 340.493M103.414 337.449C103.323 338.36 102.945 340.21 102.257 341.191M101.461 341.903C99.8146 342.44 98.0352 342.569 97.4904 342.294M101.461 341.903C101.815 341.787 102.005 341.551 102.257 341.191M101.461 341.903C102.3 345.212 103.179 350.908 102.462 355.363M105.226 339.544C104.756 339.472 103.428 339.724 102.257 341.191M102.462 355.363C104.8 353.018 109.579 347.526 109.99 344.318C110.4 341.111 111.737 339.906 112.355 339.705C113.365 338.847 115.497 336.916 115.943 336.048C116.499 334.962 118.87 329.668 118.337 328.034C117.803 326.4 116.067 324.721 113.792 326.819M108.772 324.174C109.389 323.973 110.936 323.216 110.999 322.292" stroke="#8C3800" stroke-width="1.5" stroke-linejoin="round"/>
<path d="M44.9416 432.185C51.5658 421.917 67.8503 386.781 75.1645 370.497C90.7314 366.522 92.6645 378.501 90.8704 385.401C80.9341 412.312 75.9925 446.261 74.3365 459.096C72.6804 471.93 63.1581 482.694 55.2919 489.319C47.4256 495.943 44.501 496.771 42.8449 496.357C41.1889 495.943 38.3174 496.357 37.4893 491.803C36.6613 487.248 32.1072 485.178 32.5212 471.516C32.9352 457.854 36.6613 445.019 44.9416 432.185Z" fill="#FDEAC7" stroke="#8C3800" stroke-width="1.5"/>
<path d="M89.3761 385.101C84.9215 375.732 76.1517 375.899 72.3235 377.154C71.9755 377.154 71.2795 378.827 70.9315 377.991C70.6531 377.321 70.5835 376.875 70.5835 376.736L74.3096 366.771C74.7236 365.943 75.9657 365.504 76.7937 365.529C88.8521 365.894 91.7759 370.326 93.8116 374.621C94.328 375.71 94.4136 376.955 94.0762 378.112C92.9614 381.937 91.3538 387.325 91.1161 387.611C90.7681 388.029 90.0721 388.029 90.0721 387.192C90.0721 386.523 89.6081 385.519 89.3761 385.101Z" fill="#535353" stroke="#535353" stroke-width="1.5"/>
<path d="M241.301 456.197C236.664 450.567 220.042 425.975 212.176 413.14C206.883 413.692 193.214 417.032 181.953 427.631C189.819 435.635 200.583 454.955 211.906 464.892C204.309 467.79 193.545 486.006 191.061 491.389C188.577 496.771 185.409 500.911 180.441 507.949C175.473 514.987 175.743 515.401 175.743 516.229C175.743 517.057 179.469 519.541 177.813 528.236C176.26 536.389 180.717 544.52 184.995 548.108C184.581 550.316 183.609 556.471 183.609 558.459C183.609 560.943 183.195 567.981 188.163 567.981C190.233 567.981 190.233 562.185 191.475 557.217C192.717 552.248 195.615 546.866 196.029 543.968C196.443 541.07 194.787 529.064 194.373 522.854C193.959 516.643 210.664 500.497 219.358 494.287C228.052 488.076 234.263 477.726 238.403 474.414C241.715 471.764 243.647 468.894 244.199 467.79C245.165 466.272 245.938 461.828 241.301 456.197Z" fill="#FDEAC7" stroke="#8C3800" stroke-width="1.5"/>
<path d="M178.642 524.251C178.642 523.204 177.814 518.99 176.986 517.471C176.986 516.643 179.884 514.315 180.712 513.901C181.54 513.487 182.782 513.901 181.954 515.143C181.126 516.385 178.642 525.338 178.642 524.251Z" fill="#FFD099"/>
<path d="M73.0934 503.128C69.014 514.728 60.2433 540.301 57.7956 549.786C54.7361 561.642 51.6765 602.181 54.7361 615.566" stroke="#FF8A3D" stroke-width="1.5" stroke-linejoin="round" stroke-dasharray="1 5"/>
<path d="M75.0053 503.893C70.416 516.896 60.9314 545.35 59.7076 555.14C58.1778 567.378 55.1182 575.41 57.7953 615.184" stroke="#FF8A3D" stroke-width="1.5" stroke-linecap="round" stroke-linejoin="round" stroke-dasharray="1 5"/>
<path d="M171.764 407.134C171.458 405.91 170.872 403.82 170.617 403.31C147.976 408.205 114.78 407.389 97.9525 406.369L97.5701 410.576C143.846 414.783 172.147 408.664 171.764 407.134Z" fill="#232323"/>
<path d="M173.676 414.401C173.37 413.177 172.784 411.086 172.529 410.576C149.888 415.471 113.632 414.656 96.8048 413.636L96.4224 417.843C142.698 422.049 174.059 415.93 173.676 414.401Z" fill="#232323"/>
<path d="M174.823 421.667C174.823 420.405 174.313 418.352 174.058 417.843C151.418 422.738 112.103 422.304 95.275 421.285L94.8926 425.491C141.168 429.698 174.823 423.197 174.823 421.667Z" fill="#232323"/>
<path d="M81.6631 692.936H71.2334V701.666H67.542V692.936H57.2588V689.947H81.6631V692.936ZM60.1299 676.324H78.7334V687.076H60.1299V676.324ZM75.0127 684.146V679.283H63.8213V684.146H75.0127ZM107.532 691.471H83.2158V688.482H107.532V691.471ZM84.4756 683.941C86.3506 683.658 87.9619 683.141 89.3096 682.389C90.667 681.637 91.6973 680.758 92.4004 679.752C93.1035 678.736 93.46 677.701 93.4697 676.646V675.738H97.3076V676.646C97.3076 677.701 97.6543 678.736 98.3477 679.752C99.0508 680.758 100.081 681.637 101.438 682.389C102.796 683.141 104.417 683.658 106.302 683.941L104.808 686.9C102.63 686.549 100.73 685.88 99.1094 684.894C97.4883 683.907 96.2432 682.696 95.374 681.261C94.4951 682.696 93.2402 683.912 91.6094 684.908C89.9883 685.895 88.0889 686.559 85.9111 686.9L84.4756 683.941ZM86.1455 693.404H89.8955V698.238H104.778V701.227H86.1455V693.404ZM137.796 689.537H130.12V695.66H140.462V698.648H116.058V695.66H126.341V689.537H118.782V677.086H122.62V686.52H137.796V689.537ZM152.854 687.896H146.321V692.672C147.757 692.652 149.075 692.604 150.276 692.525C151.487 692.447 152.728 692.311 153.997 692.115L154.261 695.104C152.649 695.377 151.106 695.558 149.632 695.646C148.157 695.733 146.478 695.777 144.593 695.777H142.747V684.908H149.251V680.631H142.718V677.613H152.854V687.896ZM155.491 675.475H158.919V685.113H161.497V675.035H165.042V701.695H161.497V688.131H158.919V700.406H155.491V675.475ZM181.624 677.291H192.317V675.445H196.038V684.381H177.933V675.445H181.624V677.291ZM174.827 685.758H199.144V688.775H188.831V690.445H196.185V697.184H181.331V698.707H196.888V701.52H177.669V694.605H192.493V693.17H177.64V690.445H185.081V688.775H174.827V685.758ZM192.317 681.598V679.986H181.624V681.598H192.317ZM223.226 701.754H219.505V687.691H215.198V684.645H219.505V675.035H223.226V701.754ZM201.634 677.262H213.704V687.252H205.413V692.467C207.464 692.447 209.28 692.389 210.862 692.291C212.444 692.184 214.036 691.988 215.638 691.705L215.931 694.752C214.144 695.055 212.352 695.265 210.555 695.382C208.758 695.489 206.727 695.543 204.461 695.543H203.89H201.692V684.293H210.071V680.279H201.634V677.262ZM233.86 676.91C235.218 676.91 236.424 677.301 237.479 678.082C238.543 678.854 239.378 679.957 239.983 681.393C240.589 682.828 240.892 684.498 240.892 686.402C240.892 688.316 240.589 689.996 239.983 691.441C239.378 692.877 238.543 693.985 237.479 694.767C236.424 695.538 235.218 695.924 233.86 695.924C232.503 695.924 231.287 695.538 230.213 694.767C229.148 693.985 228.318 692.877 227.723 691.441C227.127 689.996 226.829 688.316 226.829 686.402C226.829 684.498 227.127 682.828 227.723 681.393C228.318 679.957 229.148 678.854 230.213 678.082C231.287 677.301 232.503 676.91 233.86 676.91ZM230.433 686.402C230.433 687.701 230.574 688.814 230.857 689.742C231.141 690.66 231.541 691.358 232.059 691.837C232.576 692.306 233.177 692.535 233.86 692.525C234.554 692.535 235.159 692.306 235.677 691.837C236.194 691.358 236.595 690.66 236.878 689.742C237.171 688.814 237.317 687.701 237.317 686.402C237.317 685.104 237.171 683.995 236.878 683.077C236.595 682.159 236.194 681.466 235.677 680.997C235.159 680.519 234.554 680.279 233.86 680.279C233.177 680.279 232.576 680.519 232.059 680.997C231.541 681.466 231.141 682.164 230.857 683.092C230.574 684.01 230.433 685.113 230.433 686.402ZM243.968 675.035H247.718V681.217H251.497V684.352H247.718V689.098H251.497V692.145H247.718V701.695H243.968V675.035ZM280.677 680.777H284.28V683.766H280.677V689.42H276.927V674.977H280.677V680.777ZM259.524 677.027H265.589V674.859H269.31V677.027H275.345V679.869H259.524V677.027ZM260.813 684.879C260.813 684 261.087 683.233 261.634 682.579C262.19 681.925 262.967 681.417 263.963 681.056C264.959 680.694 266.116 680.514 267.435 680.514C268.763 680.514 269.92 680.694 270.906 681.056C271.893 681.417 272.654 681.925 273.191 682.579C273.729 683.233 273.997 684 273.997 684.879C273.997 685.777 273.729 686.554 273.191 687.208C272.654 687.862 271.893 688.365 270.906 688.717C269.92 689.068 268.763 689.244 267.435 689.244C266.116 689.244 264.954 689.068 263.948 688.717C262.952 688.365 262.181 687.862 261.634 687.208C261.087 686.554 260.813 685.777 260.813 684.879ZM262.981 690.504H280.677V697.242H266.702V698.766H281.438V701.52H263.04V694.693H276.956V693.199H262.981V690.504ZM264.476 684.879C264.466 685.436 264.72 685.855 265.237 686.139C265.755 686.422 266.487 686.568 267.435 686.578C268.392 686.568 269.134 686.422 269.661 686.139C270.188 685.855 270.452 685.436 270.452 684.879C270.452 684.332 270.188 683.907 269.661 683.604C269.144 683.302 268.421 683.15 267.493 683.15C266.536 683.15 265.789 683.297 265.252 683.59C264.725 683.883 264.466 684.312 264.476 684.879ZM302.708 682.301C302.698 683.775 302.947 685.226 303.455 686.651C303.963 688.067 304.72 689.347 305.726 690.489C306.731 691.622 307.952 692.486 309.388 693.082L307.366 696.012C305.843 695.367 304.534 694.425 303.44 693.185C302.347 691.935 301.487 690.475 300.862 688.805C300.237 690.611 299.368 692.203 298.255 693.58C297.151 694.947 295.833 695.982 294.3 696.686L292.161 693.727C293.587 693.092 294.803 692.169 295.809 690.958C296.824 689.747 297.586 688.39 298.094 686.886C298.611 685.372 298.87 683.844 298.87 682.301V680.66H293.216V677.613H308.274V680.66H302.708V682.301ZM310.911 675.035H314.69V701.695H310.911V675.035ZM91.0674 718.869C91.0576 720.422 91.0332 721.755 90.9941 722.868C90.9648 723.972 90.8721 725.271 90.7158 726.765C90.5596 728.249 90.3154 729.865 89.9834 731.613L86.2334 731.232C86.6924 728.996 86.9854 726.984 87.1123 725.197C87.2393 723.4 87.3076 721.438 87.3174 719.309H71.6143V716.35H91.0674V718.869ZM69.0947 734.396H77.7959V725.227H81.5166V734.396H93.4111V737.443H69.0947V734.396ZM109.407 729.035H96.3701V716.174H109.407V729.035ZM99.4756 731.262H103.255V737.092H118.05V740.109H99.4756V731.262ZM105.687 726.076V719.133H100.062V726.076H105.687ZM113.597 714.064H117.347V733.02H113.597V714.064ZM133.812 721.066H120.921V718.107H125.55V714.768H129.241V718.107H133.812V721.066ZM121.536 728.596C121.536 727.375 121.79 726.286 122.298 725.329C122.806 724.372 123.504 723.625 124.393 723.088C125.291 722.541 126.302 722.268 127.425 722.268C128.548 722.268 129.554 722.541 130.442 723.088C131.331 723.625 132.024 724.372 132.522 725.329C133.03 726.286 133.284 727.375 133.284 728.596C133.284 729.816 133.03 730.91 132.522 731.877C132.024 732.844 131.331 733.601 130.442 734.147C129.554 734.685 128.548 734.953 127.425 734.953C126.302 734.953 125.291 734.685 124.393 734.147C123.504 733.601 122.806 732.844 122.298 731.877C121.79 730.91 121.536 729.816 121.536 728.596ZM124.817 728.596C124.817 729.602 125.052 730.388 125.521 730.954C125.999 731.511 126.634 731.789 127.425 731.789C128.187 731.789 128.802 731.506 129.271 730.939C129.749 730.373 129.993 729.592 130.003 728.596C130.003 727.941 129.891 727.37 129.666 726.882C129.441 726.394 129.134 726.022 128.743 725.769C128.362 725.505 127.923 725.373 127.425 725.373C126.644 725.373 126.014 725.661 125.535 726.237C125.057 726.813 124.817 727.6 124.817 728.596ZM134.808 714.562H138.294V724.875H140.462V714.035H144.007V740.695H140.462V727.863H138.294V739.553H134.808V714.562ZM153.675 717.668H164.368V715.002H168.089V725.9H160.882V728.156H171.194V731.145H146.878V728.156H157.132V725.9H149.983V715.002H153.675V717.668ZM149.808 732.668H153.558V737.238H168.44V740.227H149.808V732.668ZM164.368 722.912V720.539H153.675V722.912H164.368ZM195.101 718.488H189.798C189.808 719.572 190.032 720.622 190.472 721.638C190.921 722.644 191.604 723.552 192.522 724.362C193.44 725.173 194.573 725.803 195.921 726.252L194.075 729.123C192.649 728.674 191.419 728 190.384 727.102C189.349 726.193 188.533 725.119 187.938 723.879C187.322 725.256 186.473 726.447 185.389 727.453C184.305 728.449 183.001 729.191 181.478 729.68L179.573 726.721C180.979 726.271 182.161 725.617 183.118 724.758C184.075 723.898 184.788 722.927 185.257 721.843C185.735 720.749 185.979 719.631 185.989 718.488H180.628V715.529H195.101V718.488ZM183.88 731.086H202.19V740.695H198.47V734.074H183.88V731.086ZM194.339 720.451H198.47V714.035H202.19V729.914H198.47V723.498H194.339V720.451ZM222.259 731.145C222.259 732.277 222.513 733.356 223.021 734.382C223.528 735.407 224.295 736.271 225.32 736.975C226.375 736.232 227.166 735.339 227.693 734.294C228.23 733.249 228.499 732.199 228.499 731.145V730.236H232.19V731.145C232.171 732.619 232.576 733.933 233.406 735.085C234.236 736.228 235.501 737.062 237.2 737.59L235.384 740.314C234.144 739.895 233.094 739.294 232.234 738.513C231.385 737.741 230.721 736.823 230.242 735.759C229.783 736.843 229.148 737.8 228.338 738.63C227.537 739.46 226.565 740.1 225.423 740.549C224.222 740.109 223.211 739.484 222.391 738.674C221.57 737.873 220.936 736.936 220.486 735.861C219.998 736.887 219.334 737.78 218.494 738.542C217.654 739.304 216.644 739.895 215.462 740.314L213.616 737.59C214.739 737.209 215.672 736.682 216.414 736.008C217.166 735.334 217.718 734.582 218.069 733.752C218.431 732.912 218.616 732.043 218.626 731.145V730.236H222.259V731.145ZM212.972 721.828C212.972 720.588 213.289 719.484 213.924 718.518C214.559 717.541 215.428 716.779 216.531 716.232C217.645 715.686 218.89 715.412 220.267 715.412C221.634 715.412 222.869 715.686 223.973 716.232C225.086 716.779 225.96 717.541 226.595 718.518C227.239 719.484 227.562 720.588 227.562 721.828C227.562 723.049 227.239 724.143 226.595 725.109C225.96 726.076 225.086 726.833 223.973 727.38C222.869 727.917 221.634 728.186 220.267 728.186C218.899 728.186 217.659 727.917 216.546 727.38C215.433 726.833 214.559 726.076 213.924 725.109C213.289 724.143 212.972 723.049 212.972 721.828ZM216.634 721.828C216.624 722.482 216.771 723.059 217.073 723.557C217.386 724.045 217.815 724.421 218.362 724.685C218.919 724.948 219.554 725.08 220.267 725.08C220.96 725.08 221.575 724.948 222.112 724.685C222.659 724.421 223.089 724.045 223.401 723.557C223.714 723.059 223.87 722.482 223.87 721.828C223.87 721.154 223.714 720.573 223.401 720.085C223.089 719.587 222.659 719.206 222.112 718.942C221.575 718.679 220.96 718.547 220.267 718.547C219.554 718.547 218.919 718.679 218.362 718.942C217.815 719.206 217.386 719.587 217.073 720.085C216.771 720.573 216.624 721.154 216.634 721.828ZM231.136 714.064H234.886V729.123H231.136V714.064ZM263.304 727.189H259.524V740.637H255.774V714.035H259.524V724.143H263.304V727.189ZM239.339 716.584H243.06V731.042C246.839 730.974 250.481 730.588 253.987 729.885L254.368 732.99C252.288 733.41 250.198 733.708 248.099 733.884C245.999 734.05 243.851 734.133 241.653 734.133H239.339V716.584ZM288.821 737.59H264.417V734.514H269.866V727.98C268.812 727.346 267.996 726.564 267.42 725.637C266.844 724.699 266.556 723.654 266.556 722.502C266.556 721.086 266.985 719.836 267.845 718.752C268.704 717.668 269.891 716.828 271.404 716.232C272.928 715.627 274.651 715.324 276.575 715.324C278.489 715.324 280.208 715.627 281.731 716.232C283.255 716.828 284.451 717.668 285.32 718.752C286.189 719.836 286.624 721.086 286.624 722.502C286.614 723.635 286.331 724.66 285.774 725.578C285.218 726.496 284.427 727.272 283.401 727.907V734.514H288.821V737.59ZM270.247 722.502C270.247 723.361 270.506 724.108 271.023 724.743C271.551 725.378 272.288 725.866 273.235 726.208C274.192 726.55 275.306 726.721 276.575 726.721C277.825 726.721 278.929 726.55 279.886 726.208C280.843 725.866 281.59 725.378 282.127 724.743C282.664 724.108 282.933 723.361 282.933 722.502C282.933 721.623 282.664 720.866 282.127 720.231C281.6 719.597 280.857 719.113 279.9 718.781C278.943 718.439 277.835 718.273 276.575 718.283C275.306 718.283 274.192 718.449 273.235 718.781C272.288 719.113 271.551 719.597 271.023 720.231C270.506 720.866 270.247 721.623 270.247 722.502ZM279.622 734.514V729.328C278.646 729.523 277.63 729.621 276.575 729.621C275.55 729.621 274.544 729.528 273.558 729.343V734.514H279.622ZM295.003 731.32C295.003 730.148 295.105 729.201 295.311 728.479C295.525 727.746 295.823 727.165 296.204 726.735C296.585 726.296 297.103 725.871 297.757 725.461C298.47 724.992 299.021 724.519 299.412 724.04C299.803 723.562 299.993 723.01 299.983 722.385C299.983 721.906 299.871 721.486 299.646 721.125C299.422 720.754 299.114 720.471 298.724 720.275C298.343 720.07 297.913 719.963 297.435 719.953C296.966 719.963 296.531 720.07 296.131 720.275C295.73 720.48 295.403 720.783 295.149 721.184C294.896 721.574 294.759 722.043 294.739 722.59H290.579C290.599 721.262 290.916 720.144 291.531 719.235C292.146 718.317 292.967 717.634 293.992 717.185C295.027 716.726 296.185 716.496 297.464 716.496C298.831 716.496 300.037 716.726 301.082 717.185C302.137 717.644 302.957 718.308 303.543 719.177C304.139 720.036 304.437 721.057 304.437 722.238C304.437 723.391 304.163 724.377 303.616 725.197C303.079 726.008 302.298 726.721 301.272 727.336C300.696 727.678 300.237 728.024 299.896 728.376C299.554 728.728 299.295 729.138 299.119 729.606C298.953 730.075 298.87 730.646 298.87 731.32V731.643H295.003V731.32ZM294.563 735.803C294.554 735.363 294.656 734.958 294.871 734.587C295.096 734.206 295.398 733.908 295.779 733.693C296.16 733.479 296.575 733.371 297.024 733.371C297.454 733.371 297.854 733.479 298.226 733.693C298.597 733.908 298.895 734.206 299.119 734.587C299.344 734.958 299.456 735.363 299.456 735.803C299.456 736.252 299.344 736.667 299.119 737.048C298.895 737.419 298.597 737.717 298.226 737.941C297.854 738.156 297.454 738.264 297.024 738.264C296.575 738.264 296.16 738.156 295.779 737.941C295.398 737.717 295.096 737.419 294.871 737.048C294.656 736.667 294.554 736.252 294.563 735.803Z" fill="#EDEDED"/>
<g filter="url(#filter0_f_212_555)">
<ellipse cx="281.84" cy="364.167" rx="77.8404" ry="13.5829" fill="#FF8A3D" fill-opacity="0.3"/>
</g>
<g filter="url(#filter1_f_212_555)">
<ellipse cx="282.363" cy="363.122" rx="49.1073" ry="8.3587" fill="#2F1605"/>
</g>
<path d="M240.929 -0.480957H322.752L359.681 317.15H204L240.929 -0.480957Z" fill="url(#paint0_linear_212_555)" fill-opacity="0.4"/>
<path d="M283.625 275.309L300.974 292.471L259.484 327.986C257.608 329.593 254.813 329.492 253.057 327.755L249.023 323.763C247.272 322.032 247.136 319.249 248.709 317.354L283.625 275.309Z" fill="#111111" stroke="#FF8A3D" stroke-width="7.12228" stroke-linecap="round" stroke-linejoin="round"/>
<circle cx="301.69" cy="274.54" r="21.6101" transform="rotate(44.69 301.69 274.54)" fill="#111111" stroke="#FF8A3D" stroke-width="7.12228" stroke-linecap="round" stroke-linejoin="round"/>
<line x1="320.761" y1="294.243" x2="282.15" y2="255.632" stroke="#FF8A3D" stroke-width="7.12228" stroke-linecap="round"/>
<path d="M267.713 343.934C266.545 345.102 265.16 346.031 263.637 346.668C262.115 347.304 260.485 347.636 258.84 347.644C257.196 347.651 255.569 347.335 254.052 346.713C252.536 346.091 251.16 345.175 250.002 344.018C248.845 342.86 247.929 341.484 247.307 339.968C246.685 338.451 246.368 336.824 246.376 335.18C246.384 333.535 246.716 331.905 247.352 330.383C247.989 328.86 248.918 327.475 250.086 326.307" stroke="#FF8A3D" stroke-width="7.12228" stroke-linecap="round"/>
<path d="M289.369 322.278C290.515 321.131 291.878 320.224 293.38 319.608C294.882 318.992 296.494 318.679 298.123 318.687C299.752 318.694 301.366 319.023 302.874 319.653C304.382 320.284 305.754 321.204 306.911 322.362C308.069 323.519 308.989 324.891 309.62 326.399C310.25 327.907 310.579 329.522 310.587 331.151C310.594 332.78 310.281 334.391 309.665 335.893C309.049 337.395 308.142 338.758 306.995 339.905" stroke="#FF8A3D" stroke-width="7.12228" stroke-linecap="round"/>
<path d="M265.195 341.415C263.804 342.806 263.804 345.061 265.195 346.452C266.586 347.842 268.84 347.842 270.231 346.452L265.195 341.415ZM270.231 346.452L291.719 324.964L286.683 319.927L265.195 341.415L270.231 346.452Z" fill="#FF8A3D"/>
<path d="M293.566 348.298C292.175 349.689 292.175 351.944 293.566 353.335C294.956 354.725 297.211 354.725 298.602 353.335L293.566 348.298ZM298.602 353.335L309.346 342.591L304.31 337.554L293.566 348.298L298.602 353.335Z" fill="#FF8A3D"/>
<g opacity="0.45">
<circle cx="215.428" cy="185.036" r="5.19813" transform="rotate(-13.7903 215.428 185.036)" stroke="#FF8A3D" stroke-width="3.46542" stroke-linecap="round" stroke-linejoin="round"/>
<path d="M220.476 183.797L215.106 161.921" stroke="#FF8A3D" stroke-width="3.46542" stroke-linecap="round" stroke-linejoin="round"/>
<path d="M234.474 153.599L215.107 161.921" stroke="#FF8A3D" stroke-width="3.46542" stroke-linecap="round"/>
<path d="M236.126 160.33L216.759 168.652" stroke="#FF8A3D" stroke-width="3.46542" stroke-linecap="round"/>
<circle cx="234.795" cy="176.714" r="5.19813" transform="rotate(-13.7903 234.795 176.714)" stroke="#FF8A3D" stroke-width="3.46542" stroke-linecap="round" stroke-linejoin="round"/>
<path d="M239.843 175.475L234.474 153.599" stroke="#FF8A3D" stroke-width="3.46542" stroke-linecap="round" stroke-linejoin="round"/>
</g>
<g opacity="0.4">
<circle cx="294.963" cy="75.9444" r="2.4439" transform="rotate(-13.7903 294.963 75.9444)" stroke="#FF8A3D" stroke-width="1.62927" stroke-linecap="round" stroke-linejoin="round"/>
<path d="M297.336 75.3619L294.812 65.0769" stroke="#FF8A3D" stroke-width="1.62927" stroke-linecap="round" stroke-linejoin="round"/>
<path d="M303.917 61.1644L294.812 65.0769" stroke="#FF8A3D" stroke-width="1.62927" stroke-linecap="round"/>
<path d="M304.694 64.329L295.589 68.2415" stroke="#FF8A3D" stroke-width="1.62927" stroke-linecap="round"/>
<circle cx="304.069" cy="72.0319" r="2.4439" transform="rotate(-13.7903 304.069 72.0319)" stroke="#FF8A3D" stroke-width="1.62927" stroke-linecap="round" stroke-linejoin="round"/>
<path d="M306.442 71.4494L303.917 61.1644" stroke="#FF8A3D" stroke-width="1.62927" stroke-linecap="round" stroke-linejoin="round"/>
</g>
<g opacity="0.5">
<circle cx="282.902" cy="5.51385" r="1.92151" transform="rotate(30.3099 282.902 5.51385)" stroke="#FF8A3D" stroke-width="1.28101" stroke-linecap="round" stroke-linejoin="round"/>
<path d="M284.561 6.48367L288.763 -0.704712" stroke="#FF8A3D" stroke-width="1.28101" stroke-linecap="round" stroke-linejoin="round"/>
<path d="M296.045 2.06854L288.763 -0.704521" stroke="#FF8A3D" stroke-width="1.28101" stroke-linecap="round"/>
<path d="M294.752 4.28021L287.47 1.50715" stroke="#FF8A3D" stroke-width="1.28101" stroke-linecap="round"/>
<circle cx="290.184" cy="8.28704" r="1.92151" transform="rotate(30.3099 290.184 8.28704)" stroke="#FF8A3D" stroke-width="1.28101" stroke-linecap="round" stroke-linejoin="round"/>
<path d="M291.842 9.25674L296.045 2.06836" stroke="#FF8A3D" stroke-width="1.28101" stroke-linecap="round" stroke-linejoin="round"/>
</g>
<g opacity="0.4">
<circle cx="323.521" cy="152.536" r="4.35465" transform="rotate(34.4337 323.521 152.536)" stroke="#FF8A3D" stroke-width="2.9031" stroke-linecap="round" stroke-linejoin="round"/>
<path d="M327.112 154.998L339.424 137.04" stroke="#FF8A3D" stroke-width="2.9031" stroke-linecap="round" stroke-linejoin="round"/>
<path d="M339.424 137.04L345.787 143.162L342.503 147.951L336.141 141.829L339.424 137.04Z" stroke="#FF8A3D" stroke-width="2.9031" stroke-linecap="round" stroke-linejoin="round"/>
</g>
<g opacity="0.35">
<circle cx="280.724" cy="134.096" r="3.60452" transform="rotate(-10.1372 280.724 134.096)" stroke="#FF8A3D" stroke-width="2.40301" stroke-linecap="round" stroke-linejoin="round"/>
<path d="M284.273 133.461L281.101 115.72" stroke="#FF8A3D" stroke-width="2.40301" stroke-linecap="round" stroke-linejoin="round"/>
<path d="M281.101 115.72L288.409 115.634L289.255 120.365L281.947 120.451L281.101 115.72Z" stroke="#FF8A3D" stroke-width="2.40301" stroke-linecap="round" stroke-linejoin="round"/>
</g>
<g opacity="0.4">
<circle cx="245.31" cy="92.1349" r="2.64128" transform="rotate(36.7337 245.31 92.1349)" stroke="#FF8A3D" stroke-width="1.76085" stroke-linecap="round" stroke-linejoin="round"/>
<path d="M247.427 93.7148L255.326 83.1309" stroke="#FF8A3D" stroke-width="1.76085" stroke-linecap="round" stroke-linejoin="round"/>
<path d="M255.326 83.1309L259.033 86.9959L256.927 89.8183L253.22 85.9532L255.326 83.1309Z" stroke="#FF8A3D" stroke-width="1.76085" stroke-linecap="round" stroke-linejoin="round"/>
</g>
<g opacity="0.4">
<circle cx="321.334" cy="26.3538" r="2.07238" transform="rotate(27.1445 321.334 26.3538)" stroke="#FF8A3D" stroke-width="1.38158" stroke-linecap="round" stroke-linejoin="round"/>
<path d="M323.179 27.2993L327.906 18.0787" stroke="#FF8A3D" stroke-width="1.38158" stroke-linecap="round" stroke-linejoin="round"/>
<path d="M327.906 18.0787L331.279 20.5844L330.019 23.0433L326.646 20.5376L327.906 18.0787Z" stroke="#FF8A3D" stroke-width="1.38158" stroke-linecap="round" stroke-linejoin="round"/>
</g>
<g opacity="0.4">
<circle cx="275.795" cy="38.6671" r="2.07238" transform="rotate(-38.3952 275.795 38.6671)" stroke="#FF8A3D" stroke-width="1.38158" stroke-linecap="round" stroke-linejoin="round"/>
<path d="M277.419 37.3797L270.983 29.2587" stroke="#FF8A3D" stroke-width="1.38158" stroke-linecap="round" stroke-linejoin="round"/>
<path d="M270.983 29.2587L274.661 27.2258L276.377 29.3915L272.7 31.4243L270.983 29.2587Z" stroke="#FF8A3D" stroke-width="1.38158" stroke-linecap="round" stroke-linejoin="round"/>
</g>
<g opacity="0.7">
<circle cx="304.506" cy="213.822" r="5.01048" transform="rotate(20.9495 304.506 213.822)" stroke="#FF8A3D" stroke-width="3.34032" stroke-linecap="round" stroke-linejoin="round"/>
<path d="M309.185 215.614L318.143 192.218" stroke="#FF8A3D" stroke-width="3.34032" stroke-linecap="round" stroke-linejoin="round"/>
<path d="M318.143 192.218L326.904 197.36L324.516 203.599L315.754 198.457L318.143 192.218Z" stroke="#FF8A3D" stroke-width="3.34032" stroke-linecap="round" stroke-linejoin="round"/>
</g>
</g>
<defs>
<filter id="filter0_f_212_555" x="199.821" y="346.405" width="164.039" height="35.5245" filterUnits="userSpaceOnUse" color-interpolation-filters="sRGB">
<feFlood flood-opacity="0" result="BackgroundImageFix"/>
<feBlend mode="normal" in="SourceGraphic" in2="BackgroundImageFix" result="shape"/>
<feGaussianBlur stdDeviation="2.08967" result="effect1_foregroundBlur_212_555"/>
</filter>
<filter id="filter1_f_212_555" x="224.897" y="346.405" width="114.932" height="33.4347" filterUnits="userSpaceOnUse" color-interpolation-filters="sRGB">
<feFlood flood-opacity="0" result="BackgroundImageFix"/>
<feBlend mode="normal" in="SourceGraphic" in2="BackgroundImageFix" result="shape"/>
<feGaussianBlur stdDeviation="4.17935" result="effect1_foregroundBlur_212_555"/>
</filter>
<linearGradient id="paint0_linear_212_555" x1="281.84" y1="-0.480957" x2="281.84" y2="317.15" gradientUnits="userSpaceOnUse">
<stop stop-color="#FF8A3D"/>
<stop offset="0.807292" stop-color="#FF8A3D" stop-opacity="0"/>
</linearGradient>
<clipPath id="clip0_212_555">
<rect width="375" height="812" fill="white"/>
</clipPath>
</defs>
</svg>
