<svg width="41" height="46" viewBox="0 0 41 46" fill="none" xmlns="http://www.w3.org/2000/svg">
<g filter="url(#filter0_d_1246_9664)">
<path fill-rule="evenodd" clip-rule="evenodd" d="M13.8818 1.74022L16.8183 6.82635L22.9136 4.43477C25.4386 3.44386 28.1897 4.27922 29.4204 6.41087L32.3223 11.437C33.2493 13.0427 32.5634 15.1727 30.7896 16.1968L22.7631 20.8308C21.4832 21.5698 19.9878 21.5304 18.9061 20.8479L10.652 17.8374C10.0213 17.6125 9.74861 16.9252 10.0412 16.3049C10.843 14.6039 12.781 13.6565 14.5495 14.0189L14.519 13.9661L14.4958 13.9254L9.06594 4.52066C8.37131 3.31752 8.8863 1.71824 10.2155 0.950841C11.5447 0.18344 13.1872 0.537081 13.8818 1.74022Z" fill="white"/>
</g>
<defs>
<filter id="filter0_d_1246_9664" x="0.756592" y="0.54541" width="39.9788" height="44.8271" filterUnits="userSpaceOnUse" color-interpolation-filters="sRGB">
<feFlood flood-opacity="0" result="BackgroundImageFix"/>
<feColorMatrix in="SourceAlpha" type="matrix" values="0 0 0 0 0 0 0 0 0 0 0 0 0 0 0 0 0 0 127 0" result="hardAlpha"/>
<feOffset dy="16"/>
<feGaussianBlur stdDeviation="4"/>
<feComposite in2="hardAlpha" operator="out"/>
<feColorMatrix type="matrix" values="0 0 0 0 0 0 0 0 0 0 0 0 0 0 0 0 0 0 0.16 0"/>
<feBlend mode="normal" in2="BackgroundImageFix" result="effect1_dropShadow_1246_9664"/>
<feBlend mode="normal" in="SourceGraphic" in2="effect1_dropShadow_1246_9664" result="shape"/>
</filter>
</defs>
</svg>
