<svg xmlns="http://www.w3.org/2000/svg" width="69" height="70" fill="none" viewBox="0 0 69 70">
  <ellipse cx="34.327" cy="34.762" fill="#C9C9C9" fill-opacity=".24" rx="34.327" ry="34.762"/>
  <path stroke="#000" stroke-linejoin="round" stroke-width="2" d="M34 63c15.464 0 28-12.536 28-28S49.464 7 34 7 6 19.536 6 35s12.536 28 28 28Z"/>
  <path fill="#fff" d="M49.766 52.851s1.724-12.054-8.623-12.054c-2.752 1.852-5.11 3.131-7.76 3.125h.108c-2.65.006-5.009-1.274-7.76-3.125-10.347 0-8.622 12.054-8.622 12.054"/>
  <path fill="#61B2E4" d="M25.73 40.797C15.383 40.797 17.108 53 17.108 53h13.704S27 50.148 25.731 40.797m15.412 0C51.49 40.797 49.766 53 49.766 53H36.187s4.675-6.503 4.956-12.203Z"/>
  <path fill="#92D3F5" d="M31.448 43.846s-1.041 5.261 1.989 5.261c3.029 0 1.989-5.261 1.989-5.261"/>
  <path fill="#9B9B9A" d="m50.202 37.24 2.439-2.472L59 41.212l-2.438 2.47-6.36-6.443Z"/>
  <path fill="#D0CFCE" d="M48.803 37.01c1.905 0 3.45-1.565 3.45-3.495 0-1.93-1.545-3.495-3.45-3.495-1.904 0-3.449 1.565-3.449 3.495 0 1.93 1.544 3.495 3.45 3.495Z"/>
  <path fill="#92D3F5" d="m32.704 49.266-2.083 3.178c-3.13-1.532-4.89-11.325-4.89-11.325l-4.402 6.059 2.564 1.61-.86 2.72 7.647.936m2.618-3.52 1.543 2.28 1.3 1.786h-5.442l1.3-1.786 1.299-2.28Zm.277.684 2.083 3.179c3.13-1.532 4.891-11.325 4.891-11.325l4.401 6.058-2.564 1.61.861 2.72-7.648.937"/>
  <path fill="#A57939" d="m38.553 15.39-.54-.546c-.246-.643-2.55-5.984-9.745-2.883-1.815.783-3.431 1.967-4.842 3.365 0 0-2.446 2.081-3.38 3.526 0 0-1.454-.248-2.817-1.541 0 0-.376 5.804 6.533 6.62 0 0 2.464.02 5.337-2.463l1.212-.544c2.621-.173 4.615-1.033 4.616-2.07l1.041-.468.8-.221s3.966 7.075 6.296 5.286h.003c.198-4.635-.893-7.914-4.514-8.062Z"/>
  <path fill="#FADCBC" d="m36.767 18.165-.799.221-1.042.467c0 1.038-1.995 1.898-4.615 2.071l-1.211.544c-2.824 2.44-5.247 2.464-5.33 2.464-.18.944-.272 1.903-.275 2.865 0 6.838 4.378 12.383 9.778 12.383s9.776-5.545 9.776-12.383c0-1.093-.124-2.146-.332-3.154-2.356.927-5.95-5.478-5.95-5.478Z"/>
  <path fill="#000" d="M38.715 25.198c0 .464-.182.909-.505 1.236a1.714 1.714 0 0 1-1.22.512c-.458 0-.896-.184-1.22-.512a1.76 1.76 0 0 1-.505-1.236c0-.464.182-.909.506-1.236a1.714 1.714 0 0 1 1.22-.512c.458 0 .897.184 1.22.512.324.328.505.773.505 1.236m-6.899 0a1.77 1.77 0 0 1-.505 1.236 1.725 1.725 0 0 1-1.22.512 1.705 1.705 0 0 1-1.22-.512 1.747 1.747 0 0 1-.504-1.236c0-.464.182-.909.505-1.236a1.714 1.714 0 0 1 1.22-.512c.458 0 .897.184 1.22.512.324.328.505.773.505 1.236m1.724 8.74c-.993 0-1.986-.25-2.972-.75a.864.864 0 0 1-.433-.505.886.886 0 0 1 .253-.937.86.86 0 0 1 .951-.121c1.48.751 2.92.751 4.402 0a.855.855 0 0 1 1.158.39.882.882 0 0 1-.386 1.174c-.986.498-1.98.748-2.973.748Z"/>
  <path stroke="#000" stroke-miterlimit="10" stroke-width="2" d="M43.042 23.467c.18.935.276 1.922.276 2.918 0 6.841-4.38 12.39-9.778 12.39-5.397 0-9.777-5.549-9.777-12.39 0-.848.068-1.669.198-2.464m13.882-8.65c.069.035.138.079.198.123.12.078.241.157.354.244"/>
  <path stroke="#000" stroke-linecap="round" stroke-linejoin="round" stroke-miterlimit="10" stroke-width="2" d="m50.202 37.24 2.439-2.472L59 41.212l-2.438 2.47-6.36-6.443Z"/>
  <path stroke="#000" stroke-linecap="round" stroke-linejoin="round" stroke-miterlimit="10" stroke-width="2" d="M48.803 37.01c1.905 0 3.45-1.565 3.45-3.495 0-1.93-1.545-3.495-3.45-3.495-1.904 0-3.449 1.565-3.449 3.495 0 1.93 1.544 3.495 3.45 3.495ZM32.704 48.944l-2.083 3.178c-3.13-1.532-4.89-11.325-4.89-11.325l-4.402 6.06 2.564 1.609-.86 2.72 7.647.936m3.49-3.178 2.082 3.178c3.13-1.532 4.891-11.325 4.891-11.325l4.401 6.06-2.564 1.609.861 2.72-7.648.936m.048-33.86 1.797-3.354s-2.122-6.243-9.77-2.946c-1.815.782-3.431 1.966-4.842 3.364 0 0-2.446 2.082-3.38 3.526 0 0-1.454-.248-2.817-1.541 0 0-.376 5.804 6.533 6.62 0 0 2.464.02 5.337-2.463"/>
  <path stroke="#000" stroke-linecap="round" stroke-linejoin="round" stroke-miterlimit="10" stroke-width="2" d="M36.254 18.165c-.003-.405-2.838 5.402-12 2.481m-7.146 31.509s-1.725-11.358 8.622-11.358c2.752 1.859 5.11 3.143 7.76 3.138h-.107c2.65.005 5.008-1.279 7.76-3.138 10.347 0 8.623 11.358 8.623 11.358"/>
</svg>
