<svg width="38" height="27" viewBox="0 0 38 27" fill="none" xmlns="http://www.w3.org/2000/svg">
<g filter="url(#filter0_d_740_4856)">
<path d="M33.3378 3.72834C33.1657 3.1807 32.83 2.68144 32.3642 2.28027C31.8984 1.8791 31.3186 1.59001 30.6827 1.4418C28.3546 0.89502 18.9849 0.89502 18.9849 0.89502C18.9849 0.89502 9.61462 0.91157 7.28654 1.45835C6.65061 1.60657 6.07086 1.89567 5.60503 2.29686C5.13921 2.69806 4.80355 3.19734 4.63149 3.74499C3.9273 7.30725 3.65413 12.7353 4.65083 16.1551C4.8229 16.7027 5.15857 17.202 5.6244 17.6032C6.09022 18.0043 6.66996 18.2934 7.30587 18.4416C9.63396 18.9884 19.004 18.9884 19.004 18.9884C19.004 18.9884 28.3738 18.9884 30.7018 18.4416C31.3377 18.2934 31.9175 18.0043 32.3834 17.6032C32.8492 17.202 33.1849 16.7027 33.357 16.1551C34.0997 12.5878 34.3286 7.16314 33.3378 3.72844V3.72834Z" fill="#FF0000"/>
<path d="M16.0027 13.8187L23.7756 9.94159L16.0027 6.06445V13.8187Z" fill="white"/>
</g>
<defs>
<filter id="filter0_d_740_4856" x="-0.000183105" y="0.89502" width="38" height="26.0933" filterUnits="userSpaceOnUse" color-interpolation-filters="sRGB">
<feFlood flood-opacity="0" result="BackgroundImageFix"/>
<feColorMatrix in="SourceAlpha" type="matrix" values="0 0 0 0 0 0 0 0 0 0 0 0 0 0 0 0 0 0 127 0" result="hardAlpha"/>
<feOffset dy="4"/>
<feGaussianBlur stdDeviation="2"/>
<feComposite in2="hardAlpha" operator="out"/>
<feColorMatrix type="matrix" values="0 0 0 0 0 0 0 0 0 0 0 0 0 0 0 0 0 0 0.25 0"/>
<feBlend mode="normal" in2="BackgroundImageFix" result="effect1_dropShadow_740_4856"/>
<feBlend mode="normal" in="SourceGraphic" in2="effect1_dropShadow_740_4856" result="shape"/>
</filter>
</defs>
</svg>
