<svg width="30" height="22" viewBox="0 0 30 22" fill="none" xmlns="http://www.w3.org/2000/svg">
<path d="M29.3878 6.73475V14.6939C29.3878 18.0732 26.6446 20.8164 23.2653 20.8164H6.73469C3.35541 20.8164 0.612244 18.0732 0.612244 14.6939V6.73475C0.612244 3.35522 3.35541 0.612305 6.73469 0.612305H23.2653C26.6446 0.612305 29.3878 3.35522 29.3878 6.73475Z" fill="#EA4640"/>
<path d="M19.5918 10.7143L12.2449 13.7755V7.65308L19.5918 10.7143Z" fill="white"/>
<path d="M23.2653 0H6.73469C3.02118 0 0 3.02118 0 6.73469V14.6939C0 18.4074 3.02118 21.4286 6.73469 21.4286H23.2653C26.9788 21.4286 30 18.4074 30 14.6939V6.73469C30 3.02118 26.9788 0 23.2653 0ZM28.7755 14.6939C28.7755 17.7322 26.3036 20.2041 23.2653 20.2041H6.73469C3.69637 20.2041 1.22449 17.7322 1.22449 14.6939V6.73469C1.22449 3.69637 3.69637 1.22449 6.73469 1.22449H23.2653C26.3036 1.22449 28.7755 3.69637 28.7755 6.73469V14.6939Z" fill="#231F20"/>
<path d="M19.8273 10.1491L12.4804 7.08788C12.2915 7.00914 12.0756 7.03002 11.9053 7.14365C11.735 7.25716 11.6327 7.44837 11.6327 7.65304V13.7755C11.6327 13.9802 11.735 14.1714 11.9053 14.2849C12.0073 14.353 12.1258 14.3877 12.245 14.3877C12.3246 14.3877 12.4046 14.3722 12.4804 14.3407L19.8273 11.2794C20.0555 11.1843 20.2041 10.9614 20.2041 10.7143C20.2041 10.4671 20.0554 10.2442 19.8273 10.1491ZM12.8571 12.8571V8.57141L18 10.7143L12.8571 12.8571Z" fill="#231F20"/>
</svg>
